ISO-10303-21;
HEADER;
FILE_DESCRIPTION (( 'STEP AP214' ),
    '1' );
FILE_NAME ('Holder2.STEP',
    '2026-08-13T08:54:56',
    ( '' ),
    ( '' ),
    'SwSTEP 2.0',
    'SolidWorks 2026',
    '' );
FILE_SCHEMA (( 'AUTOMOTIVE_DESIGN' ));
ENDSEC;

DATA;
#1 = CARTESIAN_POINT ( 'NONE',  ( -650.3168213242694264, 834.3822226882110726, 5.000000000000000000 ) ) ;
#2 = ORIENTED_EDGE ( 'NONE', *, *, #818, .T. ) ;
#3 = LINE ( 'NONE', #849, #352 ) ;
#4 = CARTESIAN_POINT ( 'NONE',  ( -615.3182604232865742, 834.3822226882110726, -5.000000000000000000 ) ) ;
#5 = CARTESIAN_POINT ( 'NONE',  ( -650.3168213242694264, 831.0777184998784151, -3.013172039381597056 ) ) ;
#6 =( NAMED_UNIT ( * ) PLANE_ANGLE_UNIT ( ) SI_UNIT ( $, .RADIAN. ) );
#7 = DIRECTION ( 'NONE',  ( -0.000000000000000000, -1.000000000000000000, -0.000000000000000000 ) ) ;
#8 = DIRECTION ( 'NONE',  ( -0.000000000000000000, -0.000000000000000000, -1.000000000000000000 ) ) ;
#9 = CARTESIAN_POINT ( 'NONE',  ( -626.4182604232864833, 830.4822226882110954, -4.500000000000000888 ) ) ;
#10 = ORIENTED_EDGE ( 'NONE', *, *, #473, .T. ) ;
#11 = AXIS2_PLACEMENT_3D ( 'NONE', #412, #477, #419 ) ;
#12 = LINE ( 'NONE', #556, #286 ) ;
#13 = CARTESIAN_POINT ( 'NONE',  ( -627.6175408737780117, 831.9822226882110954, -5.000000000000000000 ) ) ;
#14 = EDGE_CURVE ( 'NONE', #705, #727, #157, .T. ) ;
#15 = CARTESIAN_POINT ( 'NONE',  ( -650.3172908737780062, 829.5822226882110044, -3.199999999999618705 ) ) ;
#16 = VECTOR ( 'NONE', #86, 1000.000000000000000 ) ;
#17 = DIRECTION ( 'NONE',  ( -0.000000000000000000, -0.000000000000000000, 1.000000000000000000 ) ) ;
#18 = VECTOR ( 'NONE', #410, 1000.000000000000000 ) ;
#19 = DIRECTION ( 'NONE',  ( 0.000000000000000000, 0.000000000000000000, -1.000000000000000000 ) ) ;
#20 = FACE_OUTER_BOUND ( 'NONE', #774, .T. ) ;
#21 = VECTOR ( 'NONE', #700, 1000.000000000000000 ) ;
#22 = LINE ( 'NONE', #762, #106 ) ;
#23 = DIRECTION ( 'NONE',  ( 1.000000000000000000, -0.000000000000000000, -0.000000000000000000 ) ) ;
#24 = ORIENTED_EDGE ( 'NONE', *, *, #720, .F. ) ;
#25 = EDGE_CURVE ( 'NONE', #42, #377, #497, .T. ) ;
#26 = LINE ( 'NONE', #298, #435 ) ;
#27 = FACE_OUTER_BOUND ( 'NONE', #591, .T. ) ;
#28 = EDGE_LOOP ( 'NONE', ( #371, #806, #712, #151 ) ) ;
#29 = ORIENTED_EDGE ( 'NONE', *, *, #301, .T. ) ;
#30 = CARTESIAN_POINT ( 'NONE',  ( -615.3182604232865742, 834.3822226882110726, 5.000000000000000000 ) ) ;
#31 = CARTESIAN_POINT ( 'NONE',  ( -628.4182604232864833, 829.5822226882110044, 10.00000000000000000 ) ) ;
#32 = CARTESIAN_POINT ( 'NONE',  ( -650.3168213242694264, 834.3822226882110726, -5.000000000000000000 ) ) ;
#33 = ORIENTED_EDGE ( 'NONE', *, *, #408, .F. ) ;
#34 = VERTEX_POINT ( 'NONE', #431 ) ;
#35 = FACE_BOUND ( 'NONE', #249, .T. ) ;
#36 = DIRECTION ( 'NONE',  ( -1.000000000000000000, 0.000000000000000000, 0.000000000000000000 ) ) ;
#37 = CARTESIAN_POINT ( 'NONE',  ( -621.8682604232865287, 830.5822226882110044, 0.4999999999999995559 ) ) ;
#38 = ORIENTED_EDGE ( 'NONE', *, *, #294, .T. ) ;
#39 = DIRECTION ( 'NONE',  ( 0.000000000000000000, 0.000000000000000000, -1.000000000000000000 ) ) ;
#40 = VERTEX_POINT ( 'NONE', #775 ) ;
#41 = ORIENTED_EDGE ( 'NONE', *, *, #734, .F. ) ;
#42 = VERTEX_POINT ( 'NONE', #769 ) ;
#43 = CARTESIAN_POINT ( 'NONE',  ( -615.3182604232865742, 831.9822226882110954, -1.497406626973751154 ) ) ;
#44 = ORIENTED_EDGE ( 'NONE', *, *, #458, .T. ) ;
#45 = ORIENTED_EDGE ( 'NONE', *, *, #14, .F. ) ;
#46 = FILL_AREA_STYLE ('',( #726 ) ) ;
#47 = CARTESIAN_POINT ( 'NONE',  ( -627.6175408737780117, 831.9822226882110954, -3.502593373026035461 ) ) ;
#48 = ORIENTED_EDGE ( 'NONE', *, *, #789, .T. ) ;
#49 = VECTOR ( 'NONE', #7, 1000.000000000000000 ) ;
#50 = EDGE_CURVE ( 'NONE', #116, #42, #180, .T. ) ;
#51 = ORIENTED_EDGE ( 'NONE', *, *, #607, .F. ) ;
#52 = CARTESIAN_POINT ( 'NONE',  ( -638.0175408737779890, 829.5822226882110044, -5.000000000000000000 ) ) ;
#53 = CARTESIAN_POINT ( 'NONE',  ( -650.3168213242691991, 831.0776587398859192, -1.986478036633189337 ) ) ;
#54 = ORIENTED_EDGE ( 'NONE', *, *, #205, .F. ) ;
#55 = EDGE_CURVE ( 'NONE', #233, #138, #391, .T. ) ;
#56 = AXIS2_PLACEMENT_3D ( 'NONE', #91, #588, #65 ) ;
#57 = CARTESIAN_POINT ( 'NONE',  ( -650.3182604232865742, 830.4822226882110954, -4.500000000000002665 ) ) ;
#58 = EDGE_CURVE ( 'NONE', #182, #147, #127, .T. ) ;
#59 = DIRECTION ( 'NONE',  ( 0.000000000000000000, -1.000000000000000000, 0.000000000000000000 ) ) ;
#60 = VERTEX_POINT ( 'NONE', #131 ) ;
#61 = VECTOR ( 'NONE', #470, 1000.000000000000000 ) ;
#62 = CARTESIAN_POINT ( 'NONE',  ( -638.0175408737779890, 829.5822226882110044, -3.199999999999617817 ) ) ;
#63 = VECTOR ( 'NONE', #826, 1000.000000000000000 ) ;
#64 = ORIENTED_EDGE ( 'NONE', *, *, #522, .F. ) ;
#65 = DIRECTION ( 'NONE',  ( 1.000000000000000000, 0.000000000000000000, -0.000000000000000000 ) ) ;
#66 = ORIENTED_EDGE ( 'NONE', *, *, #335, .T. ) ;
#67 = FACE_OUTER_BOUND ( 'NONE', #586, .T. ) ;
#68 = CARTESIAN_POINT ( 'NONE',  ( -650.3182604232865742, 831.9822226882110954, -3.502593373026035461 ) ) ;
#69 = CARTESIAN_POINT ( 'NONE',  ( -650.3168213242694264, 834.3822226882110726, 5.000000000000000000 ) ) ;
#70 = ADVANCED_FACE ( 'NONE', ( #386 ), #321, .F. ) ;
#71 = ORIENTED_EDGE ( 'NONE', *, *, #649, .T. ) ;
#72 = AXIS2_PLACEMENT_3D ( 'NONE', #481, #804, #666 ) ;
#73 = CARTESIAN_POINT ( 'NONE',  ( -650.3182604232865742, 831.9822226882110954, -2.499999999999893419 ) ) ;
#74 = CARTESIAN_POINT ( 'NONE',  ( -627.6175408737780117, 829.5822226882110044, 0.000000000000000000 ) ) ;
#75 = ORIENTED_EDGE ( 'NONE', *, *, #363, .F. ) ;
#76 = ADVANCED_FACE ( 'NONE', ( #462 ), #847, .F. ) ;
#77 = CARTESIAN_POINT ( 'NONE',  ( -627.6175408737780117, 829.5822226882110044, 0.000000000000000000 ) ) ;
#78 = LINE ( 'NONE', #154, #758 ) ;
#79 = ADVANCED_FACE ( 'NONE', ( #654 ), #250, .T. ) ;
#80 = DIRECTION ( 'NONE',  ( 0.000000000000000000, 0.000000000000000000, 1.000000000000000000 ) ) ;
#81 = DIRECTION ( 'NONE',  ( 1.000000000000000000, -0.000000000000000000, -0.000000000000000000 ) ) ;
#82 = FACE_OUTER_BOUND ( 'NONE', #370, .T. ) ;
#83 = APPLICATION_PROTOCOL_DEFINITION ( 'draft international standard', 'automotive_design', 1998, #264 ) ;
#84 = CARTESIAN_POINT ( 'NONE',  ( -650.3182604232865742, 829.5822226882110044, -3.199999999999617817 ) ) ;
#85 = CARTESIAN_POINT ( 'NONE',  ( -650.3168213242693128, 830.0378449543205761, -4.166895388566064007 ) ) ;
#86 = DIRECTION ( 'NONE',  ( 1.000000000000000000, 0.000000000000000000, 0.000000000000000000 ) ) ;
#87 = EDGE_CURVE ( 'NONE', #92, #160, #191, .T. ) ;
#88 = VERTEX_POINT ( 'NONE', #533 ) ;
#89 = CIRCLE ( 'NONE', #200, 2.500000000000047962 ) ;
#90 = LINE ( 'NONE', #30, #213 ) ;
#91 = CARTESIAN_POINT ( 'NONE',  ( 0.000000000000000000, 0.000000000000000000, -5.000000000000000000 ) ) ;
#92 = VERTEX_POINT ( 'NONE', #62 ) ;
#93 = CARTESIAN_POINT ( 'NONE',  ( -650.3168213242691991, 832.8867866365357031, -3.013521963366597056 ) ) ;
#94 = PLANE ( 'NONE',  #851 ) ;
#95 = CARTESIAN_POINT ( 'NONE',  ( -638.0175408737779890, 834.3822226882110726, 0.000000000000000000 ) ) ;
#96 = VECTOR ( 'NONE', #128, 1000.000000000000000 ) ;
#97 = DIRECTION ( 'NONE',  ( 1.000000000000000000, 0.000000000000000000, 0.000000000000000000 ) ) ;
#98 = EDGE_LOOP ( 'NONE', ( #502, #312, #108, #492 ) ) ;
#99 = VECTOR ( 'NONE', #404, 1000.000000000000000 ) ;
#100 = ORIENTED_EDGE ( 'NONE', *, *, #239, .F. ) ;
#101 = FACE_OUTER_BOUND ( 'NONE', #606, .T. ) ;
#102 = CARTESIAN_POINT ( 'NONE',  ( -650.3182604232865742, 831.9822226882110954, -1.497406626973751154 ) ) ;
#103 = ADVANCED_FACE ( 'NONE', ( #455 ), #657, .F. ) ;
#104 = DIRECTION ( 'NONE',  ( 0.000000000000000000, 0.000000000000000000, -1.000000000000000000 ) ) ;
#105 = VECTOR ( 'NONE', #714, 1000.000000000000000 ) ;
#106 = VECTOR ( 'NONE', #304, 1000.000000000000000 ) ;
#107 = VERTEX_POINT ( 'NONE', #195 ) ;
#108 = ORIENTED_EDGE ( 'NONE', *, *, #692, .F. ) ;
#109 = AXIS2_PLACEMENT_3D ( 'NONE', #719, #397, #261 ) ;
#110 = CARTESIAN_POINT ( 'NONE',  ( -650.3182604232865742, 831.9822226882110954, -1.497406626973751154 ) ) ;
#111 = PRODUCT_DEFINITION_SHAPE ( 'NONE', 'NONE',  #150 ) ;
#112 = MANIFOLD_SOLID_BREP ( 'Boss-Extrude3', #214 ) ;
#113 = ORIENTED_EDGE ( 'NONE', *, *, #672, .T. ) ;
#114 = DIRECTION ( 'NONE',  ( 1.000000000000000000, 0.000000000000000000, 0.000000000000000000 ) ) ;
#115 = PLANE ( 'NONE',  #548 ) ;
#116 = VERTEX_POINT ( 'NONE', #670 ) ;
#117 = ORIENTED_EDGE ( 'NONE', *, *, #545, .F. ) ;
#118 = PRODUCT ( 'Holder2', 'Holder2', '', ( #273 ) ) ;
#119 = FACE_OUTER_BOUND ( 'NONE', #650, .T. ) ;
#120 = ORIENTED_EDGE ( 'NONE', *, *, #209, .F. ) ;
#121 = EDGE_CURVE ( 'NONE', #850, #40, #469, .T. ) ;
#122 = ADVANCED_FACE ( 'NONE', ( #20 ), #735, .F. ) ;
#123 = DIRECTION ( 'NONE',  ( 1.000000000000000000, 0.000000000000000000, -0.000000000000000000 ) ) ;
#124 = CARTESIAN_POINT ( 'NONE',  ( -627.6175408737780117, 831.9822226882110954, -1.497406626973751154 ) ) ;
#125 = ORIENTED_EDGE ( 'NONE', *, *, #720, .T. ) ;
#126 = VECTOR ( 'NONE', #278, 1000.000000000000000 ) ;
#127 = LINE ( 'NONE', #57, #105 ) ;
#128 = DIRECTION ( 'NONE',  ( 0.000000000000000000, 0.000000000000000000, -1.000000000000000000 ) ) ;
#129 = ORIENTED_EDGE ( 'NONE', *, *, #235, .F. ) ;
#130 = CIRCLE ( 'NONE', #738, 1.002593373026142043 ) ;
#131 = CARTESIAN_POINT ( 'NONE',  ( -638.0175408737779890, 831.9822226882110954, -1.497406626973751154 ) ) ;
#132 = LINE ( 'NONE', #535, #96 ) ;
#133 = AXIS2_PLACEMENT_3D ( 'NONE', #292, #559, #432 ) ;
#134 = CIRCLE ( 'NONE', #855, 1.002593373026142043 ) ;
#135 = ORIENTED_EDGE ( 'NONE', *, *, #87, .T. ) ;
#136 = DIRECTION ( 'NONE',  ( 0.000000000000000000, -0.000000000000000000, 1.000000000000000000 ) ) ;
#137 = DIRECTION ( 'NONE',  ( 0.000000000000000000, 0.000000000000000000, -1.000000000000000000 ) ) ;
#138 = VERTEX_POINT ( 'NONE', #616 ) ;
#139 = CARTESIAN_POINT ( 'NONE',  ( -650.3182604232865742, 831.9822226882110954, -5.000000000000000000 ) ) ;
#140 = VERTEX_POINT ( 'NONE', #74 ) ;
#141 = DIRECTION ( 'NONE',  ( 1.000000000000000000, -0.000000000000000000, -0.000000000000000000 ) ) ;
#142 = EDGE_CURVE ( 'NONE', #377, #107, #78, .T. ) ;
#143 = ORIENTED_EDGE ( 'NONE', *, *, #544, .T. ) ;
#144 = CARTESIAN_POINT ( 'NONE',  ( -650.3175408737780572, 831.9822226882110954, -1.497406626973751376 ) ) ;
#145 = EDGE_CURVE ( 'NONE', #722, #578, #199, .T. ) ;
#146 = AXIS2_PLACEMENT_3D ( 'NONE', #808, #680, #281 ) ;
#147 = VERTEX_POINT ( 'NONE', #9 ) ;
#148 = CARTESIAN_POINT ( 'NONE',  ( -650.3175408737780572, 831.9822226882110954, -3.502593373026035906 ) ) ;
#149 = CARTESIAN_POINT ( 'NONE',  ( -650.3168213242694264, 829.5822226882110044, 5.000000000000000000 ) ) ;
#150 = PRODUCT_DEFINITION ( 'UNKNOWN', '', #210, #409 ) ;
#151 = ORIENTED_EDGE ( 'NONE', *, *, #58, .F. ) ;
#152 = EDGE_CURVE ( 'NONE', #836, #34, #407, .T. ) ;
#153 = FACE_OUTER_BOUND ( 'NONE', #225, .T. ) ;
#154 = CARTESIAN_POINT ( 'NONE',  ( -615.3182604232865742, 834.3822226882110726, 10.00000000000000000 ) ) ;
#155 = CARTESIAN_POINT ( 'NONE',  ( -615.3182604232865742, 829.5822226882110044, -3.199999999999617817 ) ) ;
#156 = CARTESIAN_POINT ( 'NONE',  ( -650.3182604232865742, 831.9822226882110954, -5.000000000000000000 ) ) ;
#157 = B_SPLINE_CURVE_WITH_KNOTS ( 'NONE', 3,
 ( #510, #827, #227, #93, #364, #297, #569, #564, #822, #504 ),
 .UNSPECIFIED., .F., .F.,
 ( 4, 2, 2, 2, 4 ),
 ( 0.000000000000000000, 0.1250000000000000000, 0.2500000000000000000, 0.3750000000000000000, 0.5000000000000000000 ),
 .UNSPECIFIED. ) ;
#158 = CARTESIAN_POINT ( 'NONE',  ( -617.3182604232865742, 829.5822226882110044, 5.000000000000000000 ) ) ;
#159 = CARTESIAN_POINT ( 'NONE',  ( -638.0175408737779890, 831.9822226882110954, -3.502593373026035461 ) ) ;
#160 = VERTEX_POINT ( 'NONE', #557 ) ;
#161 = AXIS2_PLACEMENT_3D ( 'NONE', #639, #291, #499 ) ;
#162 = ORIENTED_EDGE ( 'NONE', *, *, #489, .F. ) ;
#163 = FACE_OUTER_BOUND ( 'NONE', #405, .T. ) ;
#164 = PLANE ( 'NONE',  #56 ) ;
#165 = ORIENTED_EDGE ( 'NONE', *, *, #671, .F. ) ;
#166 = ADVANCED_FACE ( 'NONE', ( #284 ), #217, .F. ) ;
#167 = DIRECTION ( 'NONE',  ( 0.000000000000000000, 1.000000000000000000, 0.000000000000000000 ) ) ;
#168 = DIRECTION ( 'NONE',  ( 0.000000000000000000, 0.000000000000000000, 1.000000000000000000 ) ) ;
#169 = CARTESIAN_POINT ( 'NONE',  ( -650.3168213242694264, 829.5822226882110044, 0.000000000000000000 ) ) ;
#170 = VECTOR ( 'NONE', #491, 1000.000000000000000 ) ;
#171 = PLANE ( 'NONE',  #244 ) ;
#172 = ORIENTED_EDGE ( 'NONE', *, *, #754, .T. ) ;
#173 = AXIS2_PLACEMENT_3D ( 'NONE', #347, #618, #612 ) ;
#174 = ORIENTED_EDGE ( 'NONE', *, *, #306, .T. ) ;
#175 = CYLINDRICAL_SURFACE ( 'NONE', #328, 2.500000000000047962 ) ;
#176 = FACE_OUTER_BOUND ( 'NONE', #857, .T. ) ;
#177 = VECTOR ( 'NONE', #703, 1000.000000000000000 ) ;
#178 = EDGE_CURVE ( 'NONE', #92, #34, #424, .T. ) ;
#179 = ORIENTED_EDGE ( 'NONE', *, *, #791, .T. ) ;
#180 = LINE ( 'NONE', #441, #852 ) ;
#181 = DIRECTION ( 'NONE',  ( 0.000000000000000000, 0.000000000000000000, -1.000000000000000000 ) ) ;
#182 = VERTEX_POINT ( 'NONE', #415 ) ;
#183 = ORIENTED_EDGE ( 'NONE', *, *, #766, .F. ) ;
#184 = ORIENTED_EDGE ( 'NONE', *, *, #185, .F. ) ;
#185 = EDGE_CURVE ( 'NONE', #233, #850, #800, .T. ) ;
#186 = DIRECTION ( 'NONE',  ( 0.000000000000000000, 0.000000000000000000, 1.000000000000000000 ) ) ;
#187 = ORIENTED_EDGE ( 'NONE', *, *, #142, .T. ) ;
#188 = VERTEX_POINT ( 'NONE', #13 ) ;
#189 = CARTESIAN_POINT ( 'NONE',  ( -638.0175408737779890, 829.5822226882110044, -5.000000000000000000 ) ) ;
#190 = EDGE_LOOP ( 'NONE', ( #343, #54, #623, #574 ) ) ;
#191 = LINE ( 'NONE', #52, #704 ) ;
#192 = CARTESIAN_POINT ( 'NONE',  ( 0.000000000000000000, 830.5822226882110044, 0.000000000000000000 ) ) ;
#193 = ORIENTED_EDGE ( 'NONE', *, *, #121, .T. ) ;
#194 = CARTESIAN_POINT ( 'NONE',  ( -615.3182604232865742, 834.3822226882110726, 10.00000000000000000 ) ) ;
#195 = CARTESIAN_POINT ( 'NONE',  ( -628.4182604232864833, 834.3822226882110726, 10.00000000000000000 ) ) ;
#196 = DIRECTION ( 'NONE',  ( -1.000000000000000000, 0.000000000000000000, -9.531447670202239898E-17 ) ) ;
#197 = CARTESIAN_POINT ( 'NONE',  ( -621.8682604232865287, 830.5822226882110044, 1.999999999999965805 ) ) ;
#198 = CARTESIAN_POINT ( 'NONE',  ( -626.4182604232864833, 830.5822226882110044, 5.000000000000000000 ) ) ;
#199 = LINE ( 'NONE', #805, #317 ) ;
#200 = AXIS2_PLACEMENT_3D ( 'NONE', #750, #813, #220 ) ;
#201 = UNCERTAINTY_MEASURE_WITH_UNIT (LENGTH_MEASURE( 1.000000000000000082E-05 ), #339, 'distance_accuracy_value', 'NONE');
#202 = EDGE_LOOP ( 'NONE', ( #165, #381, #637, #320 ) ) ;
#203 = EDGE_CURVE ( 'NONE', #810, #730, #674, .T. ) ;
#204 = CARTESIAN_POINT ( 'NONE',  ( -650.3175408737780572, 831.9822226882110954, -5.000000000000000000 ) ) ;
#205 = EDGE_CURVE ( 'NONE', #840, #40, #538, .T. ) ;
#206 = CARTESIAN_POINT ( 'NONE',  ( -617.3182604232865742, 830.5822226882110044, 5.000000000000000000 ) ) ;
#207 = ORIENTED_EDGE ( 'NONE', *, *, #478, .T. ) ;
#208 = AXIS2_PLACEMENT_3D ( 'NONE', #728, #59, #329 ) ;
#209 = EDGE_CURVE ( 'NONE', #466, #92, #679, .T. ) ;
#210 = PRODUCT_DEFINITION_FORMATION_WITH_SPECIFIED_SOURCE ( 'ANY', '', #118, .NOT_KNOWN. ) ;
#211 = PLANE ( 'NONE',  #551 ) ;
#212 = CARTESIAN_POINT ( 'NONE',  ( -650.3168213242694264, 829.5822226882110044, 5.000000000000000000 ) ) ;
#213 = VECTOR ( 'NONE', #359, 1000.000000000000000 ) ;
#214 = CLOSED_SHELL ( 'NONE', ( #784, #122, #70, #76, #166, #641, #269, #756, #422, #520, #634, #362, #459, #331, #643, #396, #558, #795, #686, #447, #631, #403, #614, #103, #79 ) ) ;
#215 = VECTOR ( 'NONE', #828, 1000.000000000000000 ) ;
#216 = DIRECTION ( 'NONE',  ( 1.000000000000000000, 0.000000000000000000, -0.000000000000000000 ) ) ;
#217 = PLANE ( 'NONE',  #349 ) ;
#218 = ORIENTED_EDGE ( 'NONE', *, *, #610, .T. ) ;
#219 = CYLINDRICAL_SURFACE ( 'NONE', #695, 1.002593373026142043 ) ;
#220 = DIRECTION ( 'NONE',  ( 0.000000000000000000, 0.000000000000000000, 1.000000000000000000 ) ) ;
#221 = CARTESIAN_POINT ( 'NONE',  ( -626.4182604232864833, 830.5822226882110044, 5.000000000000000000 ) ) ;
#222 = LINE ( 'NONE', #305, #767 ) ;
#223 = CARTESIAN_POINT ( 'NONE',  ( -621.8682604232865287, 834.3832476882109859, 0.4999999999999995559 ) ) ;
#224 = DIRECTION ( 'NONE',  ( -1.000000000000000000, 0.000000000000000000, -0.000000000000000000 ) ) ;
#225 = EDGE_LOOP ( 'NONE', ( #652, #428, #100, #10, #183 ) ) ;
#226 = EDGE_CURVE ( 'NONE', #88, #788, #274, .T. ) ;
#227 = CARTESIAN_POINT ( 'NONE',  ( -650.3168213242695401, 832.4955398855652220, -3.404359182312147514 ) ) ;
#228 = CARTESIAN_POINT ( 'NONE',  ( -627.6175408737780117, 834.3822226882110726, 0.000000000000000000 ) ) ;
#229 = EDGE_CURVE ( 'NONE', #390, #788, #839, .T. ) ;
#230 = LINE ( 'NONE', #293, #170 ) ;
#231 = LINE ( 'NONE', #439, #803 ) ;
#232 = ORIENTED_EDGE ( 'NONE', *, *, #209, .T. ) ;
#233 = VERTEX_POINT ( 'NONE', #69 ) ;
#234 = DIRECTION ( 'NONE',  ( 0.000000000000000000, 0.000000000000000000, 1.000000000000000000 ) ) ;
#235 = EDGE_CURVE ( 'NONE', #270, #730, #89, .T. ) ;
#236 = CARTESIAN_POINT ( 'NONE',  ( -626.4182604232864833, 830.5822226882110044, -4.500000000000000888 ) ) ;
#237 = AXIS2_PLACEMENT_3D ( 'NONE', #829, #36, #622 ) ;
#238 = DIRECTION ( 'NONE',  ( 0.000000000000000000, 0.000000000000000000, -1.000000000000000000 ) ) ;
#239 = EDGE_CURVE ( 'NONE', #495, #530, #543, .T. ) ;
#240 = ORIENTED_EDGE ( 'NONE', *, *, #408, .T. ) ;
#241 = EDGE_LOOP ( 'NONE', ( #33, #262, #835, #628, #736, #232, #135, #436, #576, #361 ) ) ;
#242 = CARTESIAN_POINT ( 'NONE',  ( -617.3182604232865742, 830.5822226882110044, -4.500000000000000000 ) ) ;
#243 = ORIENTED_EDGE ( 'NONE', *, *, #522, .T. ) ;
#244 = AXIS2_PLACEMENT_3D ( 'NONE', #318, #644, #181 ) ;
#245 = EDGE_CURVE ( 'NONE', #279, #270, #471, .T. ) ;
#246 = ORIENTED_EDGE ( 'NONE', *, *, #226, .F. ) ;
#247 = CARTESIAN_POINT ( 'NONE',  ( -638.0175408737779890, 831.9822226882110954, -2.499999999999893419 ) ) ;
#248 = VERTEX_POINT ( 'NONE', #268 ) ;
#249 = EDGE_LOOP ( 'NONE', ( #660, #143 ) ) ;
#250 = PLANE ( 'NONE',  #599 ) ;
#251 = DIRECTION ( 'NONE',  ( 1.000000000000000000, -0.000000000000000000, 0.000000000000000000 ) ) ;
#252 = ORIENTED_EDGE ( 'NONE', *, *, #25, .F. ) ;
#253 = ORIENTED_EDGE ( 'NONE', *, *, #413, .T. ) ;
#254 = CARTESIAN_POINT ( 'NONE',  ( -650.3168213242694264, 829.5822226882110044, 5.000000000000000000 ) ) ;
#255 = FACE_OUTER_BOUND ( 'NONE', #539, .T. ) ;
#256 = ORIENTED_EDGE ( 'NONE', *, *, #259, .T. ) ;
#257 = ORIENTED_EDGE ( 'NONE', *, *, #335, .F. ) ;
#258 = AXIS2_PLACEMENT_3D ( 'NONE', #383, #251, #104 ) ;
#259 = EDGE_CURVE ( 'NONE', #727, #60, #433, .T. ) ;
#260 = FACE_OUTER_BOUND ( 'NONE', #28, .T. ) ;
#261 = DIRECTION ( 'NONE',  ( 0.000000000000000000, 0.000000000000000000, -1.000000000000000000 ) ) ;
#262 = ORIENTED_EDGE ( 'NONE', *, *, #341, .F. ) ;
#263 = CARTESIAN_POINT ( 'NONE',  ( -650.3182604232865742, 831.9822226882110954, -2.499999999999893419 ) ) ;
#264 = APPLICATION_CONTEXT ( 'automotive_design' ) ;
#265 = ORIENTED_EDGE ( 'NONE', *, *, #527, .T. ) ;
#266 = LINE ( 'NONE', #139, #699 ) ;
#267 = DIRECTION ( 'NONE',  ( 0.000000000000000000, -1.000000000000000000, 0.000000000000000000 ) ) ;
#268 = CARTESIAN_POINT ( 'NONE',  ( -626.4182604232864833, 829.5822226882110044, 10.00000000000000000 ) ) ;
#269 = ADVANCED_FACE ( 'NONE', ( #427, #27 ), #299, .F. ) ;
#270 = VERTEX_POINT ( 'NONE', #571 ) ;
#271 = EDGE_CURVE ( 'NONE', #845, #233, #222, .T. ) ;
#272 = CARTESIAN_POINT ( 'NONE',  ( -650.3175408737780572, 831.9822226882110954, -5.000000000000000000 ) ) ;
#273 = PRODUCT_CONTEXT ( 'NONE', #282, 'mechanical' ) ;
#274 = LINE ( 'NONE', #354, #613 ) ;
#275 = VECTOR ( 'NONE', #81, 1000.000000000000000 ) ;
#276 = UNCERTAINTY_MEASURE_WITH_UNIT (LENGTH_MEASURE( 1.000000000000000082E-05 ), #460, 'distance_accuracy_value', 'NONE');
#277 = DIRECTION ( 'NONE',  ( 1.000000000000000000, -0.000000000000000000, -0.000000000000000000 ) ) ;
#278 = DIRECTION ( 'NONE',  ( 1.000000000000000000, -0.000000000000000000, -0.000000000000000000 ) ) ;
#279 = VERTEX_POINT ( 'NONE', #566 ) ;
#280 = VECTOR ( 'NONE', #752, 1000.000000000000000 ) ;
#281 = DIRECTION ( 'NONE',  ( 0.000000000000000000, 0.000000000000000000, -1.000000000000000000 ) ) ;
#282 = APPLICATION_CONTEXT ( 'automotive_design' ) ;
#283 = LINE ( 'NONE', #68, #99 ) ;
#284 = FACE_OUTER_BOUND ( 'NONE', #241, .T. ) ;
#285 = ORIENTED_EDGE ( 'NONE', *, *, #734, .T. ) ;
#286 = VECTOR ( 'NONE', #350, 1000.000000000000000 ) ;
#287 = VECTOR ( 'NONE', #841, 1000.000000000000000 ) ;
#288 = LINE ( 'NONE', #673, #61 ) ;
#289 = DIRECTION ( 'NONE',  ( -0.000000000000000000, -1.000000000000000000, -0.000000000000000000 ) ) ;
#290 = CARTESIAN_POINT ( 'NONE',  ( -650.3168213242694264, 829.5822226882110044, 5.000000000000000000 ) ) ;
#291 = DIRECTION ( 'NONE',  ( -1.000000000000000000, 0.000000000000000000, 0.000000000000000000 ) ) ;
#292 = CARTESIAN_POINT ( 'NONE',  ( -627.6175408737780117, 829.5822226882110044, -5.000000000000000000 ) ) ;
#293 = CARTESIAN_POINT ( 'NONE',  ( -626.4182604232864833, 829.5822226882110044, 10.00000000000000000 ) ) ;
#294 = EDGE_CURVE ( 'NONE', #578, #308, #366, .T. ) ;
#295 = VERTEX_POINT ( 'NONE', #373 ) ;
#296 = EDGE_CURVE ( 'NONE', #160, #140, #824, .T. ) ;
#297 = CARTESIAN_POINT ( 'NONE',  ( -650.3168213242695401, 832.9849608526599241, -2.223491560722357097 ) ) ;
#298 = CARTESIAN_POINT ( 'NONE',  ( -617.3182604232865742, 830.5822226882110044, 10.00000000000000000 ) ) ;
#299 = PLANE ( 'NONE',  #161 ) ;
#300 = DIRECTION ( 'NONE',  ( -0.000000000000000000, -1.000000000000000000, -0.000000000000000000 ) ) ;
#301 = EDGE_CURVE ( 'NONE', #357, #60, #617, .T. ) ;
#302 = EDGE_LOOP ( 'NONE', ( #382, #709, #706, #240, #257 ) ) ;
#303 = ORIENTED_EDGE ( 'NONE', *, *, #152, .F. ) ;
#304 = DIRECTION ( 'NONE',  ( 1.000000000000000000, -0.000000000000000000, -0.000000000000000000 ) ) ;
#305 = CARTESIAN_POINT ( 'NONE',  ( -650.3168213242694264, 834.3822226882110726, 5.000000000000000000 ) ) ;
#306 = EDGE_CURVE ( 'NONE', #248, #319, #230, .T. ) ;
#307 = LINE ( 'NONE', #32, #512 ) ;
#308 = VERTEX_POINT ( 'NONE', #95 ) ;
#309 = DIRECTION ( 'NONE',  ( -0.000000000000000000, -1.000000000000000000, -0.000000000000000000 ) ) ;
#310 = ORIENTED_EDGE ( 'NONE', *, *, #245, .F. ) ;
#311 = ORIENTED_EDGE ( 'NONE', *, *, #484, .T. ) ;
#312 = ORIENTED_EDGE ( 'NONE', *, *, #294, .F. ) ;
#313 = CARTESIAN_POINT ( 'NONE',  ( -617.3182604232865742, 830.5822226882110044, 10.00000000000000000 ) ) ;
#314 = VERTEX_POINT ( 'NONE', #236 ) ;
#315 = VERTEX_POINT ( 'NONE', #625 ) ;
#316 = SURFACE_SIDE_STYLE ('',( #327 ) ) ;
#317 = VECTOR ( 'NONE', #17, 1000.000000000000000 ) ;
#318 = CARTESIAN_POINT ( 'NONE',  ( -650.3168213242694264, 829.5822226882110044, 5.000000000000000000 ) ) ;
#319 = VERTEX_POINT ( 'NONE', #630 ) ;
#320 = ORIENTED_EDGE ( 'NONE', *, *, #50, .F. ) ;
#321 = CYLINDRICAL_SURFACE ( 'NONE', #109, 1.002593373026142043 ) ;
#322 = CARTESIAN_POINT ( 'NONE',  ( -650.3175408737780572, 831.9822226882110954, -1.497406626973751376 ) ) ;
#323 = ORIENTED_EDGE ( 'NONE', *, *, #50, .T. ) ;
#324 = EDGE_CURVE ( 'NONE', #308, #160, #560, .T. ) ;
#325 = VECTOR ( 'NONE', #563, 1000.000000000000000 ) ;
#326 = CIRCLE ( 'NONE', #848, 1.499999999999966027 ) ;
#327 = SURFACE_STYLE_FILL_AREA ( #46 ) ;
#328 = AXIS2_PLACEMENT_3D ( 'NONE', #355, #372, #426 ) ;
#329 = DIRECTION ( 'NONE',  ( 0.000000000000000000, -0.000000000000000000, -1.000000000000000000 ) ) ;
#330 = ORIENTED_EDGE ( 'NONE', *, *, #387, .T. ) ;
#331 = ADVANCED_FACE ( 'NONE', ( #506 ), #764, .T. ) ;
#332 = CARTESIAN_POINT ( 'NONE',  ( -628.4182604232864833, 834.3822226882110726, 10.00000000000000000 ) ) ;
#333 = ORIENTED_EDGE ( 'NONE', *, *, #58, .T. ) ;
#334 = CARTESIAN_POINT ( 'NONE',  ( -650.3168213242694264, 831.4688457308650413, -3.404709106297148846 ) ) ;
#335 = EDGE_CURVE ( 'NONE', #147, #295, #724, .T. ) ;
#336 = AXIS2_PLACEMENT_3D ( 'NONE', #332, #854, #598 ) ;
#337 = EDGE_LOOP ( 'NONE', ( #187, #218, #509, #174, #600, #733, #323, #713 ) ) ;
#338 = DIRECTION ( 'NONE',  ( 0.000000000000000000, 0.000000000000000000, -1.000000000000000000 ) ) ;
#339 =( LENGTH_UNIT ( ) NAMED_UNIT ( * ) SI_UNIT ( .MILLI., .METRE. ) );
#340 = CARTESIAN_POINT ( 'NONE',  ( -615.3182604232865742, 829.5822226882110044, -5.000000000000000000 ) ) ;
#341 = EDGE_CURVE ( 'NONE', #840, #248, #681, .T. ) ;
#342 = VECTOR ( 'NONE', #476, 1000.000000000000000 ) ;
#343 = ORIENTED_EDGE ( 'NONE', *, *, #368, .T. ) ;
#344 = LINE ( 'NONE', #608, #592 ) ;
#345 = DIRECTION ( 'NONE',  ( 1.000000000000000000, -0.000000000000000000, -0.000000000000000000 ) ) ;
#346 = ORIENTED_EDGE ( 'NONE', *, *, #271, .T. ) ;
#347 = CARTESIAN_POINT ( 'NONE',  ( -617.3182604232865742, 831.9822226882110954, -2.499999999999893419 ) ) ;
#348 = CARTESIAN_POINT ( 'NONE',  ( -628.4182604232864833, 829.5822226882110044, 10.00000000000000000 ) ) ;
#349 = AXIS2_PLACEMENT_3D ( 'NONE', #212, #609, #553 ) ;
#350 = DIRECTION ( 'NONE',  ( -0.000000000000000000, -0.000000000000000000, 1.000000000000000000 ) ) ;
#351 = DIRECTION ( 'NONE',  ( 1.000000000000000000, 0.000000000000000000, 0.000000000000000000 ) ) ;
#352 = VECTOR ( 'NONE', #267, 1000.000000000000000 ) ;
#353 = CARTESIAN_POINT ( 'NONE',  ( -650.3168213242695401, 831.4269055482268413, -4.999999999999940492 ) ) ;
#354 = CARTESIAN_POINT ( 'NONE',  ( -621.8682604232865287, 834.3832476882109859, 1.999999999999965361 ) ) ;
#355 = CARTESIAN_POINT ( 'NONE',  ( -650.3182604232865742, 831.9822226882110954, -2.499999999999893419 ) ) ;
#356 = DIRECTION ( 'NONE',  ( 1.000000000000000000, 0.000000000000000000, 0.000000000000000000 ) ) ;
#357 = VERTEX_POINT ( 'NONE', #159 ) ;
#358 = AXIS2_PLACEMENT_3D ( 'NONE', #482, #141, #798 ) ;
#359 = DIRECTION ( 'NONE',  ( -0.000000000000000000, -0.000000000000000000, -1.000000000000000000 ) ) ;
#360 = DIRECTION ( 'NONE',  ( -1.000000000000000000, -0.000000000000000000, -0.000000000000000000 ) ) ;
#361 = ORIENTED_EDGE ( 'NONE', *, *, #582, .T. ) ;
#362 = ADVANCED_FACE ( 'NONE', ( #683 ), #164, .F. ) ;
#363 = EDGE_CURVE ( 'NONE', #727, #705, #620, .T. ) ;
#364 = CARTESIAN_POINT ( 'NONE',  ( -650.3168213242694264, 832.9846712698144984, -2.776508439277431073 ) ) ;
#365 = PLANE ( 'NONE',  #133 ) ;
#366 = LINE ( 'NONE', #757, #325 ) ;
#367 = CARTESIAN_POINT ( 'NONE',  ( -627.6175408737780117, 831.9822226882110954, -2.499999999999893419 ) ) ;
#368 = EDGE_CURVE ( 'NONE', #845, #40, #3, .T. ) ;
#369 = CIRCLE ( 'NONE', #771, 1.499999999999966027 ) ;
#370 = EDGE_LOOP ( 'NONE', ( #162, #648, #842, #330 ) ) ;
#371 = ORIENTED_EDGE ( 'NONE', *, *, #473, .F. ) ;
#372 = DIRECTION ( 'NONE',  ( 1.000000000000000000, -0.000000000000000000, -0.000000000000000000 ) ) ;
#373 = CARTESIAN_POINT ( 'NONE',  ( -626.4182604232864833, 829.5822226882110044, -3.199999999999617817 ) ) ;
#374 = AXIS2_PLACEMENT_3D ( 'NONE', #247, #711, #168 ) ;
#375 = FACE_OUTER_BOUND ( 'NONE', #781, .T. ) ;
#376 = ORIENTED_EDGE ( 'NONE', *, *, #843, .T. ) ;
#377 = VERTEX_POINT ( 'NONE', #194 ) ;
#378 = DIRECTION ( 'NONE',  ( 1.000000000000000000, -0.000000000000000000, -0.000000000000000000 ) ) ;
#379 = ORIENTED_EDGE ( 'NONE', *, *, #818, .F. ) ;
#380 = LINE ( 'NONE', #575, #438 ) ;
#381 = ORIENTED_EDGE ( 'NONE', *, *, #203, .T. ) ;
#382 = ORIENTED_EDGE ( 'NONE', *, *, #549, .F. ) ;
#383 = CARTESIAN_POINT ( 'NONE',  ( -627.6175408737780117, 831.9822226882110954, -2.499999999999893419 ) ) ;
#384 = ORIENTED_EDGE ( 'NONE', *, *, #145, .F. ) ;
#385 = ORIENTED_EDGE ( 'NONE', *, *, #817, .F. ) ;
#386 = FACE_OUTER_BOUND ( 'NONE', #524, .T. ) ;
#387 = EDGE_CURVE ( 'NONE', #696, #515, #130, .T. ) ;
#388 = VECTOR ( 'NONE', #351, 1000.000000000000000 ) ;
#389 = FACE_BOUND ( 'NONE', #518, .T. ) ;
#390 = VERTEX_POINT ( 'NONE', #665 ) ;
#391 = LINE ( 'NONE', #1, #701 ) ;
#392 = CARTESIAN_POINT ( 'NONE',  ( -615.3182604232865742, 829.5822226882110044, 5.000000000000000000 ) ) ;
#393 = ORIENTED_EDGE ( 'NONE', *, *, #259, .F. ) ;
#394 = PRESENTATION_LAYER_ASSIGNMENT (  '', '', ( #429 ) ) ;
#395 = AXIS2_PLACEMENT_3D ( 'NONE', #698, #494, #421 ) ;
#396 = ADVANCED_FACE ( 'NONE', ( #255 ), #721, .F. ) ;
#397 = DIRECTION ( 'NONE',  ( 1.000000000000000000, -0.000000000000000000, -0.000000000000000000 ) ) ;
#398 = AXIS2_PLACEMENT_3D ( 'NONE', #223, #755, #498 ) ;
#399 = FACE_OUTER_BOUND ( 'NONE', #793, .T. ) ;
#400 = VECTOR ( 'NONE', #378, 1000.000000000000000 ) ;
#401 = ORIENTED_EDGE ( 'NONE', *, *, #245, .T. ) ;
#402 = CARTESIAN_POINT ( 'NONE',  ( -650.3168213242694264, 831.7051592551447357, -3.502593373026036794 ) ) ;
#403 = ADVANCED_FACE ( 'NONE', ( #389, #67 ), #604, .F. ) ;
#404 = DIRECTION ( 'NONE',  ( 1.000000000000000000, -0.000000000000000000, -0.000000000000000000 ) ) ;
#405 = EDGE_LOOP ( 'NONE', ( #579, #346, #463, #193 ) ) ;
#406 = DIRECTION ( 'NONE',  ( 1.000000000000000000, -0.000000000000000000, -0.000000000000000000 ) ) ;
#407 = LINE ( 'NONE', #156, #717 ) ;
#408 = EDGE_CURVE ( 'NONE', #248, #295, #132, .T. ) ;
#409 = PRODUCT_DEFINITION_CONTEXT ( 'detailed design', #264, 'design' ) ;
#410 = DIRECTION ( 'NONE',  ( 0.000000000000000000, 1.000000000000000000, 0.000000000000000000 ) ) ;
#411 = CARTESIAN_POINT ( 'NONE',  ( -627.6175408737780117, 829.5822226882110044, -5.000000000000000000 ) ) ;
#412 = CARTESIAN_POINT ( 'NONE',  ( -638.0175408737779890, 831.9822226882110954, -2.499999999999893419 ) ) ;
#413 = EDGE_CURVE ( 'NONE', #42, #730, #595, .T. ) ;
#414 = FACE_OUTER_BOUND ( 'NONE', #98, .T. ) ;
#415 = CARTESIAN_POINT ( 'NONE',  ( -617.3182604232865742, 830.4822226882110954, -4.500000000000000000 ) ) ;
#416 = DIRECTION ( 'NONE',  ( 1.000000000000000000, 0.000000000000000000, 0.000000000000000000 ) ) ;
#417 = CARTESIAN_POINT ( 'NONE',  ( -650.3182604232865742, 829.5822226882110044, -3.199999999999617817 ) ) ;
#418 = CARTESIAN_POINT ( 'NONE',  ( -617.3182604232865742, 829.5822226882110044, -3.199999999999828315 ) ) ;
#419 = DIRECTION ( 'NONE',  ( 0.000000000000000000, -4.440892098500540965E-14, 1.000000000000000000 ) ) ;
#420 = DIRECTION ( 'NONE',  ( -0.000000000000000000, -0.000000000000000000, 1.000000000000000000 ) ) ;
#421 = DIRECTION ( 'NONE',  ( 0.000000000000000000, 0.000000000000000000, 1.000000000000000000 ) ) ;
#422 = ADVANCED_FACE ( 'NONE', ( #715, #399 ), #659, .F. ) ;
#423 = ORIENTED_EDGE ( 'NONE', *, *, #692, .T. ) ;
#424 = CIRCLE ( 'NONE', #11, 2.500000000000047962 ) ;
#425 = EDGE_LOOP ( 'NONE', ( #401, #777, #376, #172 ) ) ;
#426 = DIRECTION ( 'NONE',  ( 0.000000000000000000, 0.000000000000000000, -1.000000000000000000 ) ) ;
#427 = FACE_BOUND ( 'NONE', #718, .T. ) ;
#428 = ORIENTED_EDGE ( 'NONE', *, *, #675, .F. ) ;
#429 = STYLED_ITEM ( 'NONE', ( #521 ), #112 ) ;
#430 = VECTOR ( 'NONE', #833, 1000.000000000000000 ) ;
#431 = CARTESIAN_POINT ( 'NONE',  ( -638.0175408737779890, 831.9822226882110954, -5.000000000000000000 ) ) ;
#432 = DIRECTION ( 'NONE',  ( 0.000000000000000000, 0.000000000000000000, -1.000000000000000000 ) ) ;
#433 = LINE ( 'NONE', #102, #541 ) ;
#434 = LINE ( 'NONE', #110, #400 ) ;
#435 = VECTOR ( 'NONE', #565, 1000.000000000000000 ) ;
#436 = ORIENTED_EDGE ( 'NONE', *, *, #296, .T. ) ;
#437 = VERTEX_POINT ( 'NONE', #124 ) ;
#438 = VECTOR ( 'NONE', #300, 1000.000000000000000 ) ;
#439 = CARTESIAN_POINT ( 'NONE',  ( -621.8682604232865287, 834.3832476882109859, -0.9999999999999663602 ) ) ;
#440 = ORIENTED_EDGE ( 'NONE', *, *, #239, .T. ) ;
#441 = CARTESIAN_POINT ( 'NONE',  ( -617.3182604232865742, 829.5822226882110044, 10.00000000000000000 ) ) ;
#442 = CARTESIAN_POINT ( 'NONE',  ( -627.6175408737780117, 831.9822226882110954, -2.499999999999893419 ) ) ;
#443 = ORIENTED_EDGE ( 'NONE', *, *, #484, .F. ) ;
#444 = VERTEX_POINT ( 'NONE', #856 ) ;
#445 = CARTESIAN_POINT ( 'NONE',  ( -626.4182604232864833, 830.5822226882110044, -4.500000000000000888 ) ) ;
#446 = ORIENTED_EDGE ( 'NONE', *, *, #489, .T. ) ;
#447 = ADVANCED_FACE ( 'NONE', ( #260 ), #532, .F. ) ;
#448 = VERTEX_POINT ( 'NONE', #572 ) ;
#449 = DIRECTION ( 'NONE',  ( 0.000000000000000000, 1.000000000000000000, 0.000000000000000000 ) ) ;
#450 = ADVANCED_BREP_SHAPE_REPRESENTATION ( 'Holder2', ( #112, #72 ), #710 ) ;
#451 = DIRECTION ( 'NONE',  ( 1.000000000000000000, -0.000000000000000000, -0.000000000000000000 ) ) ;
#452 = ORIENTED_EDGE ( 'NONE', *, *, #453, .T. ) ;
#453 = EDGE_CURVE ( 'NONE', #444, #390, #231, .T. ) ;
#454 = ORIENTED_EDGE ( 'NONE', *, *, #649, .F. ) ;
#455 = FACE_OUTER_BOUND ( 'NONE', #190, .T. ) ;
#456 = CARTESIAN_POINT ( 'NONE',  ( -650.3168213242694264, 830.9797741066078061, -2.223491560722357097 ) ) ;
#457 = EDGE_LOOP ( 'NONE', ( #246, #2, #452, #785 ) ) ;
#458 = EDGE_CURVE ( 'NONE', #314, #495, #772, .T. ) ;
#459 = ADVANCED_FACE ( 'NONE', ( #651, #176 ), #115, .F. ) ;
#460 =( LENGTH_UNIT ( ) NAMED_UNIT ( * ) SI_UNIT ( .MILLI., .METRE. ) );
#461 = CARTESIAN_POINT ( 'NONE',  ( -615.3182604232865742, 831.9822226882110954, -2.499999999999893419 ) ) ;
#462 = FACE_OUTER_BOUND ( 'NONE', #202, .T. ) ;
#463 = ORIENTED_EDGE ( 'NONE', *, *, #185, .T. ) ;
#464 = DIRECTION ( 'NONE',  ( -0.000000000000000000, -0.000000000000000000, -1.000000000000000000 ) ) ;
#465 = SHAPE_DEFINITION_REPRESENTATION ( #111, #450 ) ;
#466 = VERTEX_POINT ( 'NONE', #830 ) ;
#467 = DIRECTION ( 'NONE',  ( 0.000000000000000000, 0.000000000000000000, -1.000000000000000000 ) ) ;
#468 = AXIS2_PLACEMENT_3D ( 'NONE', #809, #747, #619 ) ;
#469 = LINE ( 'NONE', #149, #388 ) ;
#470 = DIRECTION ( 'NONE',  ( -0.000000000000000000, -0.000000000000000000, 1.000000000000000000 ) ) ;
#471 = LINE ( 'NONE', #340, #49 ) ;
#472 = AXIS2_PLACEMENT_3D ( 'NONE', #263, #451, #529 ) ;
#473 = EDGE_CURVE ( 'NONE', #495, #182, #567, .T. ) ;
#474 = DIRECTION ( 'NONE',  ( 1.000000000000000000, -0.000000000000000000, -0.000000000000000000 ) ) ;
#475 = AXIS2_PLACEMENT_3D ( 'NONE', #638, #621, #490 ) ;
#476 = DIRECTION ( 'NONE',  ( 0.000000000000000000, 1.000000000000000000, 0.000000000000000000 ) ) ;
#477 = DIRECTION ( 'NONE',  ( 1.000000000000000000, -0.000000000000000000, -0.000000000000000000 ) ) ;
#478 = EDGE_CURVE ( 'NONE', #448, #34, #380, .T. ) ;
#479 = CIRCLE ( 'NONE', #664, 1.499999999999966027 ) ;
#480 = DIRECTION ( 'NONE',  ( 0.000000000000000000, 0.000000000000000000, -1.000000000000000000 ) ) ;
#481 = CARTESIAN_POINT ( 'NONE',  ( 0.000000000000000000, 0.000000000000000000, 0.000000000000000000 ) ) ;
#482 = CARTESIAN_POINT ( 'NONE',  ( -650.3182604232865742, 831.9822226882110954, -2.499999999999893419 ) ) ;
#483 = ORIENTED_EDGE ( 'NONE', *, *, #178, .T. ) ;
#484 = EDGE_CURVE ( 'NONE', #188, #315, #555, .T. ) ;
#485 = AXIS2_PLACEMENT_3D ( 'NONE', #254, #449, #584 ) ;
#486 = EDGE_CURVE ( 'NONE', #705, #357, #585, .T. ) ;
#487 = CARTESIAN_POINT ( 'NONE',  ( -621.8682604232865287, 834.3822226882110726, 0.4999999999999995559 ) ) ;
#488 = DIRECTION ( 'NONE',  ( -0.000000000000000000, -0.000000000000000000, 1.000000000000000000 ) ) ;
#489 = EDGE_CURVE ( 'NONE', #437, #515, #434, .T. ) ;
#490 = DIRECTION ( 'NONE',  ( 0.000000000000000000, 0.000000000000000000, -1.000000000000000000 ) ) ;
#491 = DIRECTION ( 'NONE',  ( 0.000000000000000000, 1.000000000000000000, 0.000000000000000000 ) ) ;
#492 = ORIENTED_EDGE ( 'NONE', *, *, #296, .F. ) ;
#493 = FACE_OUTER_BOUND ( 'NONE', #832, .T. ) ;
#494 = DIRECTION ( 'NONE',  ( -1.000000000000000000, 0.000000000000000000, 0.000000000000000000 ) ) ;
#495 = VERTEX_POINT ( 'NONE', #690 ) ;
#496 = VECTOR ( 'NONE', #739, 1000.000000000000000 ) ;
#497 = LINE ( 'NONE', #761, #511 ) ;
#498 = DIRECTION ( 'NONE',  ( 0.000000000000000000, 0.000000000000000000, -1.000000000000000000 ) ) ;
#499 = DIRECTION ( 'NONE',  ( 0.000000000000000000, 0.000000000000000000, 1.000000000000000000 ) ) ;
#500 = LINE ( 'NONE', #765, #21 ) ;
#501 = MECHANICAL_DESIGN_GEOMETRIC_PRESENTATION_REPRESENTATION (  '', ( #429 ), #825 ) ;
#502 = ORIENTED_EDGE ( 'NONE', *, *, #324, .F. ) ;
#503 = AXIS2_PLACEMENT_3D ( 'NONE', #820, #815, #224 ) ;
#504 = CARTESIAN_POINT ( 'NONE',  ( -650.3175408737780572, 831.9822226882110954, -1.497406626973751376 ) ) ;
#505 = DIRECTION ( 'NONE',  ( 0.000000000000000000, 0.000000000000000000, 1.000000000000000000 ) ) ;
#506 = FACE_OUTER_BOUND ( 'NONE', #708, .T. ) ;
#507 = CARTESIAN_POINT ( 'NONE',  ( -650.3182604232865742, 831.9822226882110954, -3.502593373026035461 ) ) ;
#508 = AXIS2_PLACEMENT_3D ( 'NONE', #697, #505, #682 ) ;
#509 = ORIENTED_EDGE ( 'NONE', *, *, #341, .T. ) ;
#510 = CARTESIAN_POINT ( 'NONE',  ( -650.3175408737780572, 831.9822226882110954, -3.502593373026035906 ) ) ;
#511 = VECTOR ( 'NONE', #167, 1000.000000000000000 ) ;
#512 = VECTOR ( 'NONE', #97, 1000.000000000000000 ) ;
#513 = LINE ( 'NONE', #445, #287 ) ;
#514 = ORIENTED_EDGE ( 'NONE', *, *, #577, .T. ) ;
#515 = VERTEX_POINT ( 'NONE', #43 ) ;
#516 = VERTEX_POINT ( 'NONE', #47 ) ;
#517 = DIRECTION ( 'NONE',  ( -1.000000000000000000, 0.000000000000000000, 0.000000000000000000 ) ) ;
#518 = EDGE_LOOP ( 'NONE', ( #667, #117 ) ) ;
#519 = ORIENTED_EDGE ( 'NONE', *, *, #545, .T. ) ;
#520 = ADVANCED_FACE ( 'NONE', ( #782, #119 ), #171, .F. ) ;
#521 = PRESENTATION_STYLE_ASSIGNMENT (( #594 ) ) ;
#522 = EDGE_CURVE ( 'NONE', #138, #448, #307, .T. ) ;
#523 = DIRECTION ( 'NONE',  ( 1.000000000000000000, -0.000000000000000000, -0.000000000000000000 ) ) ;
#524 = EDGE_LOOP ( 'NONE', ( #75, #256, #554, #702 ) ) ;
#525 = CIRCLE ( 'NONE', #475, 1.002593373026142043 ) ;
#526 = ORIENTED_EDGE ( 'NONE', *, *, #791, .F. ) ;
#527 = EDGE_CURVE ( 'NONE', #836, #138, #500, .T. ) ;
#528 = CARTESIAN_POINT ( 'NONE',  ( 0.000000000000000000, 0.000000000000000000, 10.00000000000000000 ) ) ;
#529 = DIRECTION ( 'NONE',  ( 0.000000000000000000, 0.000000000000000000, -1.000000000000000000 ) ) ;
#530 = VERTEX_POINT ( 'NONE', #313 ) ;
#531 =( NAMED_UNIT ( * ) PLANE_ANGLE_UNIT ( ) SI_UNIT ( $, .RADIAN. ) );
#532 = PLANE ( 'NONE',  #694 ) ;
#533 = CARTESIAN_POINT ( 'NONE',  ( -621.8682604232865287, 834.3822226882110726, 1.999999999999965805 ) ) ;
#534 = ORIENTED_EDGE ( 'NONE', *, *, #846, .F. ) ;
#535 = CARTESIAN_POINT ( 'NONE',  ( -626.4182604232864833, 829.5822226882110044, 5.000000000000000000 ) ) ;
#536 = FACE_OUTER_BOUND ( 'NONE', #740, .T. ) ;
#537 = APPLICATION_PROTOCOL_DEFINITION ( 'draft international standard', 'automotive_design', 1998, #282 ) ;
#538 = LINE ( 'NONE', #348, #653 ) ;
#539 = EDGE_LOOP ( 'NONE', ( #393, #45, #626, #748 ) ) ;
#540 = DIRECTION ( 'NONE',  ( -0.000000000000000000, 1.000000000000000000, -0.000000000000000000 ) ) ;
#541 = VECTOR ( 'NONE', #23, 1000.000000000000000 ) ;
#542 = LINE ( 'NONE', #198, #627 ) ;
#543 = LINE ( 'NONE', #206, #684 ) ;
#544 = EDGE_CURVE ( 'NONE', #437, #516, #773, .T. ) ;
#545 = EDGE_CURVE ( 'NONE', #788, #390, #479, .T. ) ;
#546 = CARTESIAN_POINT ( 'NONE',  ( -615.3182604232865742, 831.9822226882110954, -3.502593373026035461 ) ) ;
#547 = DIRECTION ( 'NONE',  ( -1.000000000000000000, 0.000000000000000000, 0.000000000000000000 ) ) ;
#548 = AXIS2_PLACEMENT_3D ( 'NONE', #189, #517, #186 ) ;
#549 = EDGE_CURVE ( 'NONE', #314, #147, #513, .T. ) ;
#550 = LINE ( 'NONE', #812, #593 ) ;
#551 = AXIS2_PLACEMENT_3D ( 'NONE', #676, #80, #216 ) ;
#552 =( NAMED_UNIT ( * ) SI_UNIT ( $, .STERADIAN. ) SOLID_ANGLE_UNIT ( ) );
#553 = DIRECTION ( 'NONE',  ( 0.000000000000000000, -0.000000000000000000, 1.000000000000000000 ) ) ;
#554 = ORIENTED_EDGE ( 'NONE', *, *, #301, .F. ) ;
#555 = CIRCLE ( 'NONE', #811, 2.500000000000047962 ) ;
#556 = CARTESIAN_POINT ( 'NONE',  ( -627.6175408737780117, 829.5822226882110044, -5.000000000000000000 ) ) ;
#557 = CARTESIAN_POINT ( 'NONE',  ( -638.0175408737779890, 829.5822226882110044, 0.000000000000000000 ) ) ;
#558 = ADVANCED_FACE ( 'NONE', ( #375 ), #776, .T. ) ;
#559 = DIRECTION ( 'NONE',  ( 1.000000000000000000, -0.000000000000000000, 0.000000000000000000 ) ) ;
#560 = LINE ( 'NONE', #689, #280 ) ;
#561 = EDGE_LOOP ( 'NONE', ( #526, #379 ) ) ;
#562 = LINE ( 'NONE', #570, #215 ) ;
#563 = DIRECTION ( 'NONE',  ( -1.000000000000000000, -0.000000000000000000, -0.000000000000000000 ) ) ;
#564 = CARTESIAN_POINT ( 'NONE',  ( -650.3168213242694264, 832.4957446516103801, -1.595436051697675328 ) ) ;
#565 = DIRECTION ( 'NONE',  ( 0.000000000000000000, -1.000000000000000000, 0.000000000000000000 ) ) ;
#566 = CARTESIAN_POINT ( 'NONE',  ( -615.3182604232865742, 834.3822226882110726, -5.000000000000000000 ) ) ;
#567 = LINE ( 'NONE', #242, #63 ) ;
#568 = EDGE_CURVE ( 'NONE', #516, #437, #134, .T. ) ;
#569 = CARTESIAN_POINT ( 'NONE',  ( -650.3168213242694264, 832.8865818704908861, -1.986682802623154664 ) ) ;
#570 = CARTESIAN_POINT ( 'NONE',  ( -628.4182604232864833, 834.3822226882110726, 10.00000000000000000 ) ) ;
#571 = CARTESIAN_POINT ( 'NONE',  ( -615.3182604232865742, 831.9822226882110954, -5.000000000000000000 ) ) ;
#572 = CARTESIAN_POINT ( 'NONE',  ( -638.0175408737779890, 834.3822226882110726, -5.000000000000000000 ) ) ;
#573 = ORIENTED_EDGE ( 'NONE', *, *, #235, .T. ) ;
#574 = ORIENTED_EDGE ( 'NONE', *, *, #817, .T. ) ;
#575 = CARTESIAN_POINT ( 'NONE',  ( -638.0175408737779890, 829.5822226882110044, -5.000000000000000000 ) ) ;
#576 = ORIENTED_EDGE ( 'NONE', *, *, #789, .F. ) ;
#577 = EDGE_CURVE ( 'NONE', #60, #357, #745, .T. ) ;
#578 = VERTEX_POINT ( 'NONE', #228 ) ;
#579 = ORIENTED_EDGE ( 'NONE', *, *, #368, .F. ) ;
#580 = DIRECTION ( 'NONE',  ( 0.000000000000000000, 0.000000000000000000, -1.000000000000000000 ) ) ;
#581 = ORIENTED_EDGE ( 'NONE', *, *, #142, .F. ) ;
#582 = EDGE_CURVE ( 'NONE', #315, #295, #22, .T. ) ;
#583 = ORIENTED_EDGE ( 'NONE', *, *, #763, .T. ) ;
#584 = DIRECTION ( 'NONE',  ( 0.000000000000000000, -0.000000000000000000, 1.000000000000000000 ) ) ;
#585 = LINE ( 'NONE', #507, #177 ) ;
#586 = EDGE_LOOP ( 'NONE', ( #440, #831, #602, #44 ) ) ;
#587 = ORIENTED_EDGE ( 'NONE', *, *, #672, .F. ) ;
#588 = DIRECTION ( 'NONE',  ( 0.000000000000000000, -0.000000000000000000, 1.000000000000000000 ) ) ;
#589 = VECTOR ( 'NONE', #464, 1000.000000000000000 ) ;
#590 = CARTESIAN_POINT ( 'NONE',  ( -650.3175408737780572, 831.9822226882110954, -3.502593373026035906 ) ) ;
#591 = EDGE_LOOP ( 'NONE', ( #129, #310, #587, #252, #253 ) ) ;
#592 = VECTOR ( 'NONE', #8, 1000.000000000000000 ) ;
#593 = VECTOR ( 'NONE', #416, 1000.000000000000000 ) ;
#594 = SURFACE_STYLE_USAGE ( .BOTH. , #316 ) ;
#595 = LINE ( 'NONE', #392, #589 ) ;
#596 = EDGE_LOOP ( 'NONE', ( #691, #716 ) ) ;
#597 = VECTOR ( 'NONE', #770, 1000.000000000000000 ) ;
#598 = DIRECTION ( 'NONE',  ( -0.000000000000000000, 0.000000000000000000, -1.000000000000000000 ) ) ;
#599 = AXIS2_PLACEMENT_3D ( 'NONE', #528, #786, #123 ) ;
#600 = ORIENTED_EDGE ( 'NONE', *, *, #759, .T. ) ;
#601 = CARTESIAN_POINT ( 'NONE',  ( -650.3168213242695401, 830.9794845237620393, -2.776508439277430629 ) ) ;
#602 = ORIENTED_EDGE ( 'NONE', *, *, #858, .T. ) ;
#603 = CARTESIAN_POINT ( 'NONE',  ( -627.6175408737780117, 834.3822226882110726, -5.000000000000000000 ) ) ;
#604 = PLANE ( 'NONE',  #844 ) ;
#605 = CARTESIAN_POINT ( 'NONE',  ( -628.4182604232864833, 829.5822226882110044, 10.00000000000000000 ) ) ;
#606 = EDGE_LOOP ( 'NONE', ( #120, #24, #768, #780 ) ) ;
#607 = EDGE_CURVE ( 'NONE', #850, #466, #751, .T. ) ;
#608 = CARTESIAN_POINT ( 'NONE',  ( -628.4182604232864833, 834.3822226882110726, 10.00000000000000000 ) ) ;
#609 = DIRECTION ( 'NONE',  ( 0.000000000000000000, 1.000000000000000000, 0.000000000000000000 ) ) ;
#610 = EDGE_CURVE ( 'NONE', #107, #840, #562, .T. ) ;
#611 = ORIENTED_EDGE ( 'NONE', *, *, #478, .F. ) ;
#612 = DIRECTION ( 'NONE',  ( 0.000000000000000000, 0.000000000000000000, -1.000000000000000000 ) ) ;
#613 = VECTOR ( 'NONE', #289, 1000.000000000000000 ) ;
#614 = ADVANCED_FACE ( 'NONE', ( #819 ), #688, .F. ) ;
#615 = CARTESIAN_POINT ( 'NONE',  ( -650.3168213242694264, 829.7378449543206216, -3.733562055232656718 ) ) ;
#616 = CARTESIAN_POINT ( 'NONE',  ( -650.3168213242694264, 834.3822226882110726, -5.000000000000000000 ) ) ;
#617 = CIRCLE ( 'NONE', #237, 1.002593373026142265 ) ;
#618 = DIRECTION ( 'NONE',  ( 1.000000000000000000, -0.000000000000000000, 0.000000000000000000 ) ) ;
#619 = DIRECTION ( 'NONE',  ( 0.000000000000000000, 0.000000000000000000, -1.000000000000000000 ) ) ;
#620 = B_SPLINE_CURVE_WITH_KNOTS ( 'NONE', 3,
 ( #322, #655, #790, #53, #456, #601, #5, #334, #402, #590 ),
 .UNSPECIFIED., .F., .F.,
 ( 4, 2, 2, 2, 4 ),
 ( 0.5000000000000000000, 0.6250000000000000000, 0.7500000000000000000, 0.8750000000000000000, 1.000000000000000000 ),
 .UNSPECIFIED. ) ;
#621 = DIRECTION ( 'NONE',  ( 1.000000000000000000, 0.000000000000000000, 0.000000000000000000 ) ) ;
#622 = DIRECTION ( 'NONE',  ( 0.000000000000000000, 0.000000000000000000, 1.000000000000000000 ) ) ;
#623 = ORIENTED_EDGE ( 'NONE', *, *, #610, .F. ) ;
#624 = DIRECTION ( 'NONE',  ( -1.000000000000000000, 0.000000000000000000, 0.000000000000000000 ) ) ;
#625 = CARTESIAN_POINT ( 'NONE',  ( -627.6175408737780117, 829.5822226882110044, -3.199999999999617817 ) ) ;
#626 = ORIENTED_EDGE ( 'NONE', *, *, #486, .T. ) ;
#627 = VECTOR ( 'NONE', #137, 1000.000000000000000 ) ;
#628 = ORIENTED_EDGE ( 'NONE', *, *, #121, .F. ) ;
#629 = PLANE ( 'NONE',  #508 ) ;
#630 = CARTESIAN_POINT ( 'NONE',  ( -626.4182604232864833, 830.5822226882110044, 10.00000000000000000 ) ) ;
#631 = ADVANCED_FACE ( 'NONE', ( #823 ), #94, .F. ) ;
#632 = CIRCLE ( 'NONE', #173, 2.500000000000047962 ) ;
#633 = DIRECTION ( 'NONE',  ( 1.000000000000000000, -0.000000000000000000, 0.000000000000000000 ) ) ;
#634 = ADVANCED_FACE ( 'NONE', ( #35, #493 ), #365, .F. ) ;
#635 = AXIS2_PLACEMENT_3D ( 'NONE', #640, #523, #580 ) ;
#636 = ORIENTED_EDGE ( 'NONE', *, *, #226, .T. ) ;
#637 = ORIENTED_EDGE ( 'NONE', *, *, #413, .F. ) ;
#638 = CARTESIAN_POINT ( 'NONE',  ( -615.3182604232865742, 831.9822226882110954, -2.499999999999893419 ) ) ;
#639 = CARTESIAN_POINT ( 'NONE',  ( -615.3182604232865742, 829.5822226882110044, 5.000000000000000000 ) ) ;
#640 = CARTESIAN_POINT ( 'NONE',  ( -650.3182604232865742, 831.9822226882110954, -2.499999999999893419 ) ) ;
#641 = ADVANCED_FACE ( 'NONE', ( #163 ), #629, .T. ) ;
#642 = ORIENTED_EDGE ( 'NONE', *, *, #87, .F. ) ;
#643 = ADVANCED_FACE ( 'NONE', ( #101 ), #175, .T. ) ;
#644 = DIRECTION ( 'NONE',  ( 1.000000000000000000, 0.000000000000000000, 0.000000000000000000 ) ) ;
#645 = ORIENTED_EDGE ( 'NONE', *, *, #324, .T. ) ;
#646 = ORIENTED_EDGE ( 'NONE', *, *, #55, .F. ) ;
#647 = DIRECTION ( 'NONE',  ( -1.000000000000000000, 0.000000000000000000, -0.000000000000000000 ) ) ;
#648 = ORIENTED_EDGE ( 'NONE', *, *, #568, .F. ) ;
#649 = EDGE_CURVE ( 'NONE', #515, #696, #525, .T. ) ;
#650 = EDGE_LOOP ( 'NONE', ( #656, #125, #51, #184, #834 ) ) ;
#651 = FACE_BOUND ( 'NONE', #685, .T. ) ;
#652 = ORIENTED_EDGE ( 'NONE', *, *, #671, .T. ) ;
#653 = VECTOR ( 'NONE', #744, 1000.000000000000000 ) ;
#654 = FACE_OUTER_BOUND ( 'NONE', #337, .T. ) ;
#655 = CARTESIAN_POINT ( 'NONE',  ( -650.3168213242695401, 831.7057142489468333, -1.497261835528073126 ) ) ;
#656 = ORIENTED_EDGE ( 'NONE', *, *, #527, .F. ) ;
#657 = PLANE ( 'NONE',  #336 ) ;
#658 = VECTOR ( 'NONE', #356, 1000.000000000000000 ) ;
#659 = PLANE ( 'NONE',  #208 ) ;
#660 = ORIENTED_EDGE ( 'NONE', *, *, #568, .T. ) ;
#661 = VECTOR ( 'NONE', #474, 1000.000000000000000 ) ;
#662 = DIRECTION ( 'NONE',  ( -0.000000000000000000, -0.000000000000000000, 1.000000000000000000 ) ) ;
#663 = CARTESIAN_POINT ( 'NONE',  ( -617.3182604232865742, 830.5822226882110044, -4.500000000000000000 ) ) ;
#664 = AXIS2_PLACEMENT_3D ( 'NONE', #37, #707, #39 ) ;
#665 = CARTESIAN_POINT ( 'NONE',  ( -621.8682604232865287, 830.5822226882110044, -0.9999999999999663602 ) ) ;
#666 = DIRECTION ( 'NONE',  ( 1.000000000000000000, 0.000000000000000000, 0.000000000000000000 ) ) ;
#667 = ORIENTED_EDGE ( 'NONE', *, *, #229, .F. ) ;
#668 = DIRECTION ( 'NONE',  ( -0.000000000000000000, -1.000000000000000000, -0.000000000000000000 ) ) ;
#669 = CARTESIAN_POINT ( 'NONE',  ( -628.4182604232864833, 834.3822226882110726, 5.000000000000000000 ) ) ;
#670 = CARTESIAN_POINT ( 'NONE',  ( -617.3182604232865742, 829.5822226882110044, 10.00000000000000000 ) ) ;
#671 = EDGE_CURVE ( 'NONE', #810, #116, #814, .T. ) ;
#672 = EDGE_CURVE ( 'NONE', #377, #279, #90, .T. ) ;
#673 = CARTESIAN_POINT ( 'NONE',  ( -638.0175408737779890, 834.3822226882110726, -5.000000000000000000 ) ) ;
#674 = LINE ( 'NONE', #417, #126 ) ;
#675 = EDGE_CURVE ( 'NONE', #530, #116, #26, .T. ) ;
#676 = CARTESIAN_POINT ( 'NONE',  ( 0.000000000000000000, 0.000000000000000000, 0.000000000000000000 ) ) ;
#677 = CARTESIAN_POINT ( 'NONE',  ( -650.3168213242694264, 829.5822226882110044, 5.000000000000000000 ) ) ;
#678 = DIRECTION ( 'NONE',  ( -0.000000000000000000, 1.000000000000000000, -0.000000000000000000 ) ) ;
#679 = LINE ( 'NONE', #84, #275 ) ;
#680 = DIRECTION ( 'NONE',  ( 1.000000000000000000, -0.000000000000000000, 0.000000000000000000 ) ) ;
#681 = LINE ( 'NONE', #31, #16 ) ;
#682 = DIRECTION ( 'NONE',  ( 1.000000000000000000, 0.000000000000000000, -0.000000000000000000 ) ) ;
#683 = FACE_OUTER_BOUND ( 'NONE', #425, .T. ) ;
#684 = VECTOR ( 'NONE', #488, 1000.000000000000000 ) ;
#685 = EDGE_LOOP ( 'NONE', ( #29, #514 ) ) ;
#686 = ADVANCED_FACE ( 'NONE', ( #153 ), #799, .F. ) ;
#687 = ORIENTED_EDGE ( 'NONE', *, *, #544, .F. ) ;
#688 = CYLINDRICAL_SURFACE ( 'NONE', #398, 1.499999999999966027 ) ;
#689 = CARTESIAN_POINT ( 'NONE',  ( -638.0175408737779890, 829.5822226882110044, 0.000000000000000000 ) ) ;
#690 = CARTESIAN_POINT ( 'NONE',  ( -617.3182604232865742, 830.5822226882110044, -4.500000000000000000 ) ) ;
#691 = ORIENTED_EDGE ( 'NONE', *, *, #14, .T. ) ;
#692 = EDGE_CURVE ( 'NONE', #140, #578, #732, .T. ) ;
#693 = COLOUR_RGB ( '',0.7921568627450980005, 0.8196078431372548767, 0.9333333333333333481 ) ;
#694 = AXIS2_PLACEMENT_3D ( 'NONE', #663, #794, #196 ) ;
#695 = AXIS2_PLACEMENT_3D ( 'NONE', #73, #277, #467 ) ;
#696 = VERTEX_POINT ( 'NONE', #546 ) ;
#697 = CARTESIAN_POINT ( 'NONE',  ( 0.000000000000000000, 0.000000000000000000, 5.000000000000000000 ) ) ;
#698 = CARTESIAN_POINT ( 'NONE',  ( -626.4182604232864833, 831.9822226882110954, -2.499999999999893419 ) ) ;
#699 = VECTOR ( 'NONE', #406, 1000.000000000000000 ) ;
#700 = DIRECTION ( 'NONE',  ( 0.000000000000000000, 1.000000000000000000, 0.000000000000000000 ) ) ;
#701 = VECTOR ( 'NONE', #792, 1000.000000000000000 ) ;
#702 = ORIENTED_EDGE ( 'NONE', *, *, #486, .F. ) ;
#703 = DIRECTION ( 'NONE',  ( 1.000000000000000000, -0.000000000000000000, -0.000000000000000000 ) ) ;
#704 = VECTOR ( 'NONE', #662, 1000.000000000000000 ) ;
#705 = VERTEX_POINT ( 'NONE', #148 ) ;
#706 = ORIENTED_EDGE ( 'NONE', *, *, #306, .F. ) ;
#707 = DIRECTION ( 'NONE',  ( 0.000000000000000000, -1.000000000000000000, 0.000000000000000000 ) ) ;
#708 = EDGE_LOOP ( 'NONE', ( #303, #265, #243, #207 ) ) ;
#709 = ORIENTED_EDGE ( 'NONE', *, *, #858, .F. ) ;
#710 =( GEOMETRIC_REPRESENTATION_CONTEXT ( 3 ) GLOBAL_UNCERTAINTY_ASSIGNED_CONTEXT ( ( #201 ) ) GLOBAL_UNIT_ASSIGNED_CONTEXT ( ( #339, #6, #552 ) ) REPRESENTATION_CONTEXT ( 'NONE', 'WORKASPACE' ) );
#711 = DIRECTION ( 'NONE',  ( -1.000000000000000000, 0.000000000000000000, 0.000000000000000000 ) ) ;
#712 = ORIENTED_EDGE ( 'NONE', *, *, #549, .T. ) ;
#713 = ORIENTED_EDGE ( 'NONE', *, *, #25, .T. ) ;
#714 = DIRECTION ( 'NONE',  ( -1.000000000000000000, 0.000000000000000000, 0.000000000000000000 ) ) ;
#715 = FACE_BOUND ( 'NONE', #561, .T. ) ;
#716 = ORIENTED_EDGE ( 'NONE', *, *, #363, .T. ) ;
#717 = VECTOR ( 'NONE', #345, 1000.000000000000000 ) ;
#718 = EDGE_LOOP ( 'NONE', ( #816, #454 ) ) ;
#719 = CARTESIAN_POINT ( 'NONE',  ( -650.3182604232865742, 831.9822226882110954, -2.499999999999893419 ) ) ;
#720 = EDGE_CURVE ( 'NONE', #836, #466, #731, .T. ) ;
#721 = CYLINDRICAL_SURFACE ( 'NONE', #472, 1.002593373026142043 ) ;
#722 = VERTEX_POINT ( 'NONE', #603 ) ;
#723 =( NAMED_UNIT ( * ) SI_UNIT ( $, .STERADIAN. ) SOLID_ANGLE_UNIT ( ) );
#724 = CIRCLE ( 'NONE', #395, 2.500000000000047962 ) ;
#725 = DIRECTION ( 'NONE',  ( 1.000000000000000000, 0.000000000000000000, 0.000000000000000000 ) ) ;
#726 = FILL_AREA_STYLE_COLOUR ( '', #693 ) ;
#727 = VERTEX_POINT ( 'NONE', #144 ) ;
#728 = CARTESIAN_POINT ( 'NONE',  ( -650.3168213242694264, 834.3822226882110726, 5.000000000000000000 ) ) ;
#729 = LINE ( 'NONE', #411, #342 ) ;
#730 = VERTEX_POINT ( 'NONE', #155 ) ;
#731 = B_SPLINE_CURVE_WITH_KNOTS ( 'NONE', 3,
 ( #272, #353, #742, #85, #615, #15 ),
 .UNSPECIFIED., .F., .F.,
 ( 4, 2, 4 ),
 ( 0.000000000000000000, 0.5000000000000000000, 1.000000000000000000 ),
 .UNSPECIFIED. ) ;
#732 = LINE ( 'NONE', #77, #18 ) ;
#733 = ORIENTED_EDGE ( 'NONE', *, *, #675, .T. ) ;
#734 = EDGE_CURVE ( 'NONE', #448, #308, #288, .T. ) ;
#735 = CYLINDRICAL_SURFACE ( 'NONE', #358, 1.002593373026142043 ) ;
#736 = ORIENTED_EDGE ( 'NONE', *, *, #607, .T. ) ;
#737 = CYLINDRICAL_SURFACE ( 'NONE', #741, 1.499999999999966027 ) ;
#738 = AXIS2_PLACEMENT_3D ( 'NONE', #461, #725, #338 ) ;
#739 = DIRECTION ( 'NONE',  ( -0.000000000000000000, -1.000000000000000000, -0.000000000000000000 ) ) ;
#740 = EDGE_LOOP ( 'NONE', ( #179, #636, #519, #796 ) ) ;
#741 = AXIS2_PLACEMENT_3D ( 'NONE', #797, #668, #480 ) ;
#742 = CARTESIAN_POINT ( 'NONE',  ( -650.3168213242695401, 830.9266004221015010, -4.833104611433618913 ) ) ;
#743 = CARTESIAN_POINT ( 'NONE',  ( -650.3168213242694264, 829.5822226882110044, 5.000000000000000000 ) ) ;
#744 = DIRECTION ( 'NONE',  ( -0.000000000000000000, -0.000000000000000000, -1.000000000000000000 ) ) ;
#745 = CIRCLE ( 'NONE', #374, 1.002593373026142265 ) ;
#746 = CARTESIAN_POINT ( 'NONE',  ( -621.8682604232865287, 834.3822226882110726, 0.4999999999999995559 ) ) ;
#747 = DIRECTION ( 'NONE',  ( 0.000000000000000000, -1.000000000000000000, 0.000000000000000000 ) ) ;
#748 = ORIENTED_EDGE ( 'NONE', *, *, #577, .F. ) ;
#749 = DIRECTION ( 'NONE',  ( 0.000000000000000000, 0.000000000000000000, -1.000000000000000000 ) ) ;
#750 = CARTESIAN_POINT ( 'NONE',  ( -615.3182604232865742, 831.9822226882110954, -2.499999999999893419 ) ) ;
#751 = LINE ( 'NONE', #290, #597 ) ;
#752 = DIRECTION ( 'NONE',  ( -0.000000000000000000, -1.000000000000000000, -0.000000000000000000 ) ) ;
#753 = ORIENTED_EDGE ( 'NONE', *, *, #843, .F. ) ;
#754 = EDGE_CURVE ( 'NONE', #722, #279, #802, .T. ) ;
#755 = DIRECTION ( 'NONE',  ( -0.000000000000000000, -1.000000000000000000, -0.000000000000000000 ) ) ;
#756 = ADVANCED_FACE ( 'NONE', ( #414 ), #211, .F. ) ;
#757 = CARTESIAN_POINT ( 'NONE',  ( -650.3168213242694264, 834.3822226882110726, 0.000000000000000000 ) ) ;
#758 = VECTOR ( 'NONE', #547, 1000.000000000000000 ) ;
#759 = EDGE_CURVE ( 'NONE', #319, #530, #550, .T. ) ;
#760 = ORIENTED_EDGE ( 'NONE', *, *, #203, .F. ) ;
#761 = CARTESIAN_POINT ( 'NONE',  ( -615.3182604232865742, 829.5822226882110044, 10.00000000000000000 ) ) ;
#762 = CARTESIAN_POINT ( 'NONE',  ( -650.3182604232865742, 829.5822226882110044, -3.199999999999617817 ) ) ;
#763 = EDGE_CURVE ( 'NONE', #188, #270, #266, .T. ) ;
#764 = PLANE ( 'NONE',  #503 ) ;
#765 = CARTESIAN_POINT ( 'NONE',  ( -650.3168213242694264, 0.000000000000000000, -5.000000000000000000 ) ) ;
#766 = EDGE_CURVE ( 'NONE', #810, #182, #632, .T. ) ;
#767 = VECTOR ( 'NONE', #360, 1000.000000000000000 ) ;
#768 = ORIENTED_EDGE ( 'NONE', *, *, #152, .T. ) ;
#769 = CARTESIAN_POINT ( 'NONE',  ( -615.3182604232865742, 829.5822226882110044, 10.00000000000000000 ) ) ;
#770 = DIRECTION ( 'NONE',  ( -0.000000000000000000, 0.000000000000000000, -1.000000000000000000 ) ) ;
#771 = AXIS2_PLACEMENT_3D ( 'NONE', #746, #678, #19 ) ;
#772 = LINE ( 'NONE', #779, #430 ) ;
#773 = CIRCLE ( 'NONE', #258, 1.002593373026142043 ) ;
#774 = EDGE_LOOP ( 'NONE', ( #687, #446, #71, #534 ) ) ;
#775 = CARTESIAN_POINT ( 'NONE',  ( -628.4182604232864833, 829.5822226882110044, 5.000000000000000000 ) ) ;
#776 = CYLINDRICAL_SURFACE ( 'NONE', #635, 2.500000000000047962 ) ;
#777 = ORIENTED_EDGE ( 'NONE', *, *, #763, .F. ) ;
#778 = ORIENTED_EDGE ( 'NONE', *, *, #271, .F. ) ;
#779 = CARTESIAN_POINT ( 'NONE',  ( -617.3182604232865742, 830.5822226882110044, -4.500000000000000000 ) ) ;
#780 = ORIENTED_EDGE ( 'NONE', *, *, #178, .F. ) ;
#781 = EDGE_LOOP ( 'NONE', ( #760, #821, #333, #66, #783, #443, #583, #573 ) ) ;
#782 = FACE_BOUND ( 'NONE', #596, .T. ) ;
#783 = ORIENTED_EDGE ( 'NONE', *, *, #582, .F. ) ;
#784 = ADVANCED_FACE ( 'NONE', ( #536 ), #737, .F. ) ;
#785 = ORIENTED_EDGE ( 'NONE', *, *, #229, .T. ) ;
#786 = DIRECTION ( 'NONE',  ( 0.000000000000000000, 0.000000000000000000, 1.000000000000000000 ) ) ;
#787 = DIRECTION ( 'NONE',  ( 0.000000000000000000, 1.000000000000000000, 0.000000000000000000 ) ) ;
#788 = VERTEX_POINT ( 'NONE', #197 ) ;
#789 = EDGE_CURVE ( 'NONE', #315, #140, #12, .T. ) ;
#790 = CARTESIAN_POINT ( 'NONE',  ( -650.3168213242695401, 831.4689054908573098, -1.595640817687638657 ) ) ;
#791 = EDGE_CURVE ( 'NONE', #444, #88, #369, .T. ) ;
#792 = DIRECTION ( 'NONE',  ( -0.000000000000000000, -0.000000000000000000, -1.000000000000000000 ) ) ;
#793 = EDGE_LOOP ( 'NONE', ( #113, #801, #838, #38, #41, #64, #646, #778, #385, #581 ) ) ;
#794 = DIRECTION ( 'NONE',  ( 9.531447670202239898E-17, 0.000000000000000000, -1.000000000000000000 ) ) ;
#795 = ADVANCED_FACE ( 'NONE', ( #82 ), #219, .F. ) ;
#796 = ORIENTED_EDGE ( 'NONE', *, *, #453, .F. ) ;
#797 = CARTESIAN_POINT ( 'NONE',  ( -621.8682604232865287, 834.3832476882109859, 0.4999999999999995559 ) ) ;
#798 = DIRECTION ( 'NONE',  ( 0.000000000000000000, 0.000000000000000000, -1.000000000000000000 ) ) ;
#799 = PLANE ( 'NONE',  #146 ) ;
#800 = LINE ( 'NONE', #677, #496 ) ;
#801 = ORIENTED_EDGE ( 'NONE', *, *, #754, .F. ) ;
#802 = LINE ( 'NONE', #4, #661 ) ;
#803 = VECTOR ( 'NONE', #309, 1000.000000000000000 ) ;
#804 = DIRECTION ( 'NONE',  ( 0.000000000000000000, 0.000000000000000000, 1.000000000000000000 ) ) ;
#805 = CARTESIAN_POINT ( 'NONE',  ( -627.6175408737780117, 834.3822226882110726, -5.000000000000000000 ) ) ;
#806 = ORIENTED_EDGE ( 'NONE', *, *, #458, .F. ) ;
#807 = VECTOR ( 'NONE', #420, 1000.000000000000000 ) ;
#808 = CARTESIAN_POINT ( 'NONE',  ( -617.3182604232865742, 830.5822226882110044, 5.000000000000000000 ) ) ;
#809 = CARTESIAN_POINT ( 'NONE',  ( -621.8682604232865287, 830.5822226882110044, 0.4999999999999995559 ) ) ;
#810 = VERTEX_POINT ( 'NONE', #418 ) ;
#811 = AXIS2_PLACEMENT_3D ( 'NONE', #442, #647, #238 ) ;
#812 = CARTESIAN_POINT ( 'NONE',  ( -626.4182604232864833, 830.5822226882110044, 10.00000000000000000 ) ) ;
#813 = DIRECTION ( 'NONE',  ( -1.000000000000000000, -0.000000000000000000, 0.000000000000000000 ) ) ;
#814 = LINE ( 'NONE', #158, #807 ) ;
#815 = DIRECTION ( 'NONE',  ( 0.000000000000000000, 0.000000000000000000, -1.000000000000000000 ) ) ;
#816 = ORIENTED_EDGE ( 'NONE', *, *, #387, .F. ) ;
#817 = EDGE_CURVE ( 'NONE', #107, #845, #344, .T. ) ;
#818 = EDGE_CURVE ( 'NONE', #88, #444, #326, .T. ) ;
#819 = FACE_OUTER_BOUND ( 'NONE', #457, .T. ) ;
#820 = CARTESIAN_POINT ( 'NONE',  ( 0.000000000000000000, 0.000000000000000000, -5.000000000000000000 ) ) ;
#821 = ORIENTED_EDGE ( 'NONE', *, *, #766, .T. ) ;
#822 = CARTESIAN_POINT ( 'NONE',  ( -650.3168213242694264, 832.2587311274753574, -1.497551418419429403 ) ) ;
#823 = FACE_OUTER_BOUND ( 'NONE', #302, .T. ) ;
#824 = LINE ( 'NONE', #169, #658 ) ;
#825 =( GEOMETRIC_REPRESENTATION_CONTEXT ( 3 ) GLOBAL_UNCERTAINTY_ASSIGNED_CONTEXT ( ( #276 ) ) GLOBAL_UNIT_ASSIGNED_CONTEXT ( ( #460, #531, #723 ) ) REPRESENTATION_CONTEXT ( 'NONE', 'WORKASPACE' ) );
#826 = DIRECTION ( 'NONE',  ( -0.000000000000000000, -1.000000000000000000, -0.000000000000000000 ) ) ;
#827 = CARTESIAN_POINT ( 'NONE',  ( -650.3168213242695401, 832.2588760706380526, -3.502593373026036350 ) ) ;
#828 = DIRECTION ( 'NONE',  ( 0.000000000000000000, -1.000000000000000000, 0.000000000000000000 ) ) ;
#829 = CARTESIAN_POINT ( 'NONE',  ( -638.0175408737779890, 831.9822226882110954, -2.499999999999893419 ) ) ;
#830 = CARTESIAN_POINT ( 'NONE',  ( -650.3172908737780062, 829.5822226882110044, -3.199999999999618705 ) ) ;
#831 = ORIENTED_EDGE ( 'NONE', *, *, #759, .F. ) ;
#832 = EDGE_LOOP ( 'NONE', ( #753, #311, #48, #423, #384 ) ) ;
#833 = DIRECTION ( 'NONE',  ( 1.000000000000000000, -0.000000000000000000, 9.531447670202239898E-17 ) ) ;
#834 = ORIENTED_EDGE ( 'NONE', *, *, #55, .T. ) ;
#835 = ORIENTED_EDGE ( 'NONE', *, *, #205, .T. ) ;
#836 = VERTEX_POINT ( 'NONE', #204 ) ;
#837 = DIRECTION ( 'NONE',  ( 0.000000000000000000, 0.000000000000000000, -1.000000000000000000 ) ) ;
#838 = ORIENTED_EDGE ( 'NONE', *, *, #145, .T. ) ;
#839 = CIRCLE ( 'NONE', #468, 1.499999999999966027 ) ;
#840 = VERTEX_POINT ( 'NONE', #605 ) ;
#841 = DIRECTION ( 'NONE',  ( -0.000000000000000000, -1.000000000000000000, -0.000000000000000000 ) ) ;
#842 = ORIENTED_EDGE ( 'NONE', *, *, #846, .T. ) ;
#843 = EDGE_CURVE ( 'NONE', #188, #722, #729, .T. ) ;
#844 = AXIS2_PLACEMENT_3D ( 'NONE', #192, #787, #136 ) ;
#845 = VERTEX_POINT ( 'NONE', #669 ) ;
#846 = EDGE_CURVE ( 'NONE', #516, #696, #283, .T. ) ;
#847 = PLANE ( 'NONE',  #485 ) ;
#848 = AXIS2_PLACEMENT_3D ( 'NONE', #487, #540, #749 ) ;
#849 = CARTESIAN_POINT ( 'NONE',  ( -628.4182604232864833, 834.3822226882110726, 5.000000000000000000 ) ) ;
#850 = VERTEX_POINT ( 'NONE', #743 ) ;
#851 = AXIS2_PLACEMENT_3D ( 'NONE', #221, #624, #234 ) ;
#852 = VECTOR ( 'NONE', #114, 1000.000000000000000 ) ;
#853 = PRODUCT_RELATED_PRODUCT_CATEGORY ( 'part', '', ( #118 ) ) ;
#854 = DIRECTION ( 'NONE',  ( 1.000000000000000000, 0.000000000000000000, -0.000000000000000000 ) ) ;
#855 = AXIS2_PLACEMENT_3D ( 'NONE', #367, #633, #837 ) ;
#856 = CARTESIAN_POINT ( 'NONE',  ( -621.8682604232865287, 834.3822226882110726, -0.9999999999999663602 ) ) ;
#857 = EDGE_LOOP ( 'NONE', ( #642, #483, #611, #285, #645 ) ) ;
#858 = EDGE_CURVE ( 'NONE', #319, #314, #542, .T. ) ;
ENDSEC;
END-ISO-10303-21;
