ISO-10303-21;
HEADER;
FILE_DESCRIPTION (( 'STEP AP214' ),
    '1' );
FILE_NAME ('Holder1.STEP',
    '2026-07-15T08:45:13',
    ( '' ),
    ( '' ),
    'SwSTEP 2.0',
    'SolidWorks 2026',
    '' );
FILE_SCHEMA (( 'AUTOMOTIVE_DESIGN' ));
ENDSEC;

DATA;
#1 = ORIENTED_EDGE ( 'NONE', *, *, #841, .T. ) ;
#2 = CARTESIAN_POINT ( 'NONE',  ( -603.4158213242692455, 831.9822226882110954, 2.500000000000039524 ) ) ;
#3 = EDGE_CURVE ( 'NONE', #516, #686, #571, .T. ) ;
#4 = LINE ( 'NONE', #786, #507 ) ;
#5 = CARTESIAN_POINT ( 'NONE',  ( -613.4168213242693355, 839.4822226882110954, 0.000000000000000000 ) ) ;
#6 = ORIENTED_EDGE ( 'NONE', *, *, #110, .T. ) ;
#7 = DIRECTION ( 'NONE',  ( 0.000000000000000000, 0.000000000000000000, 1.000000000000000000 ) ) ;
#8 = EDGE_CURVE ( 'NONE', #487, #291, #794, .T. ) ;
#9 = DIRECTION ( 'NONE',  ( -1.000000000000000000, 0.000000000000000000, 0.000000000000000000 ) ) ;
#10 = VECTOR ( 'NONE', #532, 1000.000000000000000 ) ;
#11 = CIRCLE ( 'NONE', #464, 2.500000000000048406 ) ;
#12 = ORIENTED_EDGE ( 'NONE', *, *, #662, .F. ) ;
#13 = ORIENTED_EDGE ( 'NONE', *, *, #8, .T. ) ;
#14 = CARTESIAN_POINT ( 'NONE',  ( -627.8175408737779435, 831.9822226882110954, 3.502593373026162027 ) ) ;
#15 = FILL_AREA_STYLE ('',( #706 ) ) ;
#16 = ORIENTED_EDGE ( 'NONE', *, *, #720, .F. ) ;
#17 = ORIENTED_EDGE ( 'NONE', *, *, #674, .T. ) ;
#18 = CARTESIAN_POINT ( 'NONE',  ( -627.8175408737779435, 831.9822226882110954, 5.000000000000000000 ) ) ;
#19 = ORIENTED_EDGE ( 'NONE', *, *, #754, .T. ) ;
#20 = EDGE_CURVE ( 'NONE', #327, #984, #777, .T. ) ;
#21 = ORIENTED_EDGE ( 'NONE', *, *, #421, .T. ) ;
#22 = DIRECTION ( 'NONE',  ( 1.000000000000000000, -0.000000000000000000, -0.000000000000000000 ) ) ;
#23 = EDGE_CURVE ( 'NONE', #759, #726, #171, .T. ) ;
#24 = DIRECTION ( 'NONE',  ( 0.000000000000000000, 0.000000000000000000, -1.000000000000000000 ) ) ;
#25 = MECHANICAL_DESIGN_GEOMETRIC_PRESENTATION_REPRESENTATION (  '', ( #638 ), #668 ) ;
#26 = VERTEX_POINT ( 'NONE', #5 ) ;
#27 = DIRECTION ( 'NONE',  ( -1.000000000000000000, -0.000000000000000000, -0.000000000000000000 ) ) ;
#28 = VECTOR ( 'NONE', #693, 1000.000000000000000 ) ;
#29 = VECTOR ( 'NONE', #268, 1000.000000000000000 ) ;
#30 = CARTESIAN_POINT ( 'NONE',  ( -657.4168213242693355, 831.9822226882110954, 2.500000000000000000 ) ) ;
#31 = EDGE_LOOP ( 'NONE', ( #466, #442 ) ) ;
#32 = CARTESIAN_POINT ( 'NONE',  ( -650.4168213242693355, 834.4822226882110954, -0.001000000000008806345 ) ) ;
#33 = PLANE ( 'NONE',  #947 ) ;
#34 = EDGE_CURVE ( 'NONE', #245, #158, #956, .T. ) ;
#35 = CARTESIAN_POINT ( 'NONE',  ( -658.9168213242693355, 839.4822226882110954, 5.000000000000000000 ) ) ;
#36 = VERTEX_POINT ( 'NONE', #486 ) ;
#37 = CARTESIAN_POINT ( 'NONE',  ( -637.8175408737779435, 834.4822226882110954, 5.000000000000000000 ) ) ;
#38 = CARTESIAN_POINT ( 'NONE',  ( -608.4168213242693355, 839.4822226882110954, 5.000000000000000000 ) ) ;
#39 = EDGE_CURVE ( 'NONE', #103, #424, #717, .T. ) ;
#40 = DIRECTION ( 'NONE',  ( -1.000000000000000000, -0.000000000000000000, -0.000000000000000000 ) ) ;
#41 = VECTOR ( 'NONE', #876, 1000.000000000000000 ) ;
#42 = ORIENTED_EDGE ( 'NONE', *, *, #467, .T. ) ;
#43 = CARTESIAN_POINT ( 'NONE',  ( -603.4158213242692455, 831.9822226882110954, 2.500000000000000000 ) ) ;
#44 = CARTESIAN_POINT ( 'NONE',  ( -657.4168213242693355, 839.4822226882110954, 5.000000000000000000 ) ) ;
#45 = VECTOR ( 'NONE', #990, 1000.000000000000000 ) ;
#46 = DIRECTION ( 'NONE',  ( 1.000000000000000000, 0.000000000000000000, 0.000000000000000000 ) ) ;
#47 = ORIENTED_EDGE ( 'NONE', *, *, #707, .T. ) ;
#48 = DIRECTION ( 'NONE',  ( -1.000000000000000000, -0.000000000000000000, -0.000000000000000000 ) ) ;
#49 = CARTESIAN_POINT ( 'NONE',  ( -650.4168213242693355, 834.4822226882110954, -0.001000000000008806345 ) ) ;
#50 = DIRECTION ( 'NONE',  ( 1.000000000000000000, 0.000000000000000000, 0.000000000000000000 ) ) ;
#51 = ORIENTED_EDGE ( 'NONE', *, *, #85, .F. ) ;
#52 = CARTESIAN_POINT ( 'NONE',  ( -657.4168213242693355, 839.4822226882110954, 0.000000000000000000 ) ) ;
#53 = EDGE_CURVE ( 'NONE', #68, #71, #181, .T. ) ;
#54 = DIRECTION ( 'NONE',  ( -0.000000000000000000, 1.000000000000000000, 0.000000000000000000 ) ) ;
#55 = CARTESIAN_POINT ( 'NONE',  ( -608.4168213242693355, 831.9822226882110954, 1.497406626973837973 ) ) ;
#56 = ORIENTED_EDGE ( 'NONE', *, *, #679, .F. ) ;
#57 =( LENGTH_UNIT ( ) NAMED_UNIT ( * ) SI_UNIT ( .MILLI., .METRE. ) );
#58 = DIRECTION ( 'NONE',  ( -1.000000000000000000, -0.000000000000000000, -0.000000000000000000 ) ) ;
#59 = VECTOR ( 'NONE', #445, 1000.000000000000000 ) ;
#60 = CIRCLE ( 'NONE', #510, 1.002593373026162027 ) ;
#61 = VECTOR ( 'NONE', #295, 1000.000000000000000 ) ;
#62 = DIRECTION ( 'NONE',  ( 0.000000000000000000, 0.000000000000000000, 1.000000000000000000 ) ) ;
#63 = ORIENTED_EDGE ( 'NONE', *, *, #455, .F. ) ;
#64 = LINE ( 'NONE', #388, #867 ) ;
#65 = EDGE_CURVE ( 'NONE', #271, #920, #494, .T. ) ;
#66 = EDGE_CURVE ( 'NONE', #660, #158, #738, .T. ) ;
#67 = LINE ( 'NONE', #133, #59 ) ;
#68 = VERTEX_POINT ( 'NONE', #338 ) ;
#69 = LINE ( 'NONE', #376, #206 ) ;
#70 = DIRECTION ( 'NONE',  ( 0.000000000000000000, -1.000000000000000000, 0.000000000000000000 ) ) ;
#71 = VERTEX_POINT ( 'NONE', #423 ) ;
#72 =( NAMED_UNIT ( * ) SI_UNIT ( $, .STERADIAN. ) SOLID_ANGLE_UNIT ( ) );
#73 = CARTESIAN_POINT ( 'NONE',  ( -615.2182604232865515, 834.4822226882110954, 5.000000000000000000 ) ) ;
#74 = COLOUR_RGB ( '',0.7921568627450980005, 0.8196078431372548767, 0.9333333333333333481 ) ;
#75 = CARTESIAN_POINT ( 'NONE',  ( -650.4168213242693355, 834.4822226882110954, 0.000000000000000000 ) ) ;
#76 = VERTEX_POINT ( 'NONE', #578 ) ;
#77 = EDGE_CURVE ( 'NONE', #713, #676, #333, .T. ) ;
#78 = ORIENTED_EDGE ( 'NONE', *, *, #544, .F. ) ;
#79 = DIRECTION ( 'NONE',  ( 0.000000000000000000, 0.000000000000000000, 1.000000000000000000 ) ) ;
#80 = EDGE_CURVE ( 'NONE', #213, #984, #408, .T. ) ;
#81 = FACE_BOUND ( 'NONE', #615, .T. ) ;
#82 = ORIENTED_EDGE ( 'NONE', *, *, #369, .T. ) ;
#83 = ORIENTED_EDGE ( 'NONE', *, *, #644, .T. ) ;
#84 = CARTESIAN_POINT ( 'NONE',  ( -603.4158213242692455, 831.9822226882110954, 2.500000000000000000 ) ) ;
#85 = EDGE_CURVE ( 'NONE', #920, #291, #492, .T. ) ;
#86 = CARTESIAN_POINT ( 'NONE',  ( -650.4168213242693355, 834.4822226882110954, 0.000000000000000000 ) ) ;
#87 = ORIENTED_EDGE ( 'NONE', *, *, #8, .F. ) ;
#88 = VERTEX_POINT ( 'NONE', #259 ) ;
#89 = DIRECTION ( 'NONE',  ( 0.000000000000000000, 0.000000000000000000, 1.000000000000000000 ) ) ;
#90 = DIRECTION ( 'NONE',  ( 0.000000000000000000, -1.000000000000000000, 0.000000000000000000 ) ) ;
#91 = AXIS2_PLACEMENT_3D ( 'NONE', #927, #224, #394 ) ;
#92 = AXIS2_PLACEMENT_3D ( 'NONE', #863, #772, #175 ) ;
#93 = VECTOR ( 'NONE', #617, 1000.000000000000000 ) ;
#94 = VERTEX_POINT ( 'NONE', #573 ) ;
#95 = AXIS2_PLACEMENT_3D ( 'NONE', #736, #48, #665 ) ;
#96 = VERTEX_POINT ( 'NONE', #641 ) ;
#97 = DIRECTION ( 'NONE',  ( 0.000000000000000000, 0.000000000000000000, 1.000000000000000000 ) ) ;
#98 = DIRECTION ( 'NONE',  ( 0.000000000000000000, 0.000000000000000000, 1.000000000000000000 ) ) ;
#99 = ORIENTED_EDGE ( 'NONE', *, *, #455, .T. ) ;
#100 = ORIENTED_EDGE ( 'NONE', *, *, #116, .T. ) ;
#101 = DIRECTION ( 'NONE',  ( -0.000000000000000000, -0.000000000000000000, -1.000000000000000000 ) ) ;
#102 = CARTESIAN_POINT ( 'NONE',  ( -657.4168213242693355, 831.9822226882110954, 1.497406626973837973 ) ) ;
#103 = VERTEX_POINT ( 'NONE', #35 ) ;
#104 = CYLINDRICAL_SURFACE ( 'NONE', #248, 1.002593373026162027 ) ;
#105 = DIRECTION ( 'NONE',  ( 0.000000000000000000, -4.440892098500540334E-14, -1.000000000000000000 ) ) ;
#106 = AXIS2_PLACEMENT_3D ( 'NONE', #286, #373, #765 ) ;
#107 = ORIENTED_EDGE ( 'NONE', *, *, #399, .F. ) ;
#108 = FACE_OUTER_BOUND ( 'NONE', #189, .T. ) ;
#109 = VECTOR ( 'NONE', #27, 1000.000000000000000 ) ;
#110 = EDGE_CURVE ( 'NONE', #538, #96, #650, .T. ) ;
#111 = ADVANCED_FACE ( 'NONE', ( #949 ), #815, .T. ) ;
#112 = CARTESIAN_POINT ( 'NONE',  ( -615.2182604232865515, 831.9822226882110954, 2.500000000000000000 ) ) ;
#113 = ORIENTED_EDGE ( 'NONE', *, *, #613, .F. ) ;
#114 = DIRECTION ( 'NONE',  ( 1.000000000000000000, 0.000000000000000000, 0.000000000000000000 ) ) ;
#115 = CARTESIAN_POINT ( 'NONE',  ( -608.4168213242693355, 831.9822226882110954, 3.502593373026162027 ) ) ;
#116 = EDGE_CURVE ( 'NONE', #335, #995, #313, .T. ) ;
#117 = DIRECTION ( 'NONE',  ( 0.000000000000000000, 0.000000000000000000, 1.000000000000000000 ) ) ;
#118 = ORIENTED_EDGE ( 'NONE', *, *, #707, .F. ) ;
#119 = CYLINDRICAL_SURFACE ( 'NONE', #640, 1.002593373026162027 ) ;
#120 =( NAMED_UNIT ( * ) PLANE_ANGLE_UNIT ( ) SI_UNIT ( $, .RADIAN. ) );
#121 = DIRECTION ( 'NONE',  ( -1.000000000000000000, -0.000000000000000000, -0.000000000000000000 ) ) ;
#122 = ORIENTED_EDGE ( 'NONE', *, *, #854, .F. ) ;
#123 = CARTESIAN_POINT ( 'NONE',  ( -609.9168213242692218, 839.4822226882110954, 0.000000000000000000 ) ) ;
#124 = VECTOR ( 'NONE', #377, 1000.000000000000000 ) ;
#125 = AXIS2_PLACEMENT_3D ( 'NONE', #715, #22, #329 ) ;
#126 =( NAMED_UNIT ( * ) SI_UNIT ( $, .STERADIAN. ) SOLID_ANGLE_UNIT ( ) );
#127 = CIRCLE ( 'NONE', #318, 5.000000000000004441 ) ;
#128 = CARTESIAN_POINT ( 'NONE',  ( -608.4168213242693355, 831.9822226882110954, 2.500000000000000000 ) ) ;
#129 = ADVANCED_FACE ( 'NONE', ( #716 ), #565, .F. ) ;
#130 = ORIENTED_EDGE ( 'NONE', *, *, #825, .T. ) ;
#131 = DIRECTION ( 'NONE',  ( 1.000000000000000000, 0.000000000000000000, 0.000000000000000000 ) ) ;
#132 = DIRECTION ( 'NONE',  ( -0.000000000000000000, -0.000000000000000000, -1.000000000000000000 ) ) ;
#133 = CARTESIAN_POINT ( 'NONE',  ( -637.8175408737779435, 834.4822226882110954, -0.001000000000008806345 ) ) ;
#134 = ORIENTED_EDGE ( 'NONE', *, *, #887, .T. ) ;
#135 = CARTESIAN_POINT ( 'NONE',  ( -615.2182604232865515, 831.9822226882110954, 5.000000000000000000 ) ) ;
#136 = DIRECTION ( 'NONE',  ( -0.000000000000000000, -0.000000000000000000, -1.000000000000000000 ) ) ;
#137 = DIRECTION ( 'NONE',  ( -1.000000000000000000, 0.000000000000000000, 0.000000000000000000 ) ) ;
#138 = ORIENTED_EDGE ( 'NONE', *, *, #116, .F. ) ;
#139 = DIRECTION ( 'NONE',  ( -0.000000000000000000, -0.000000000000000000, -1.000000000000000000 ) ) ;
#140 = EDGE_CURVE ( 'NONE', #96, #633, #205, .T. ) ;
#141 = CIRCLE ( 'NONE', #398, 1.499999999999945821 ) ;
#142 = VECTOR ( 'NONE', #576, 1000.000000000000000 ) ;
#143 = LINE ( 'NONE', #357, #788 ) ;
#144 = EDGE_LOOP ( 'NONE', ( #974, #113 ) ) ;
#145 = FACE_OUTER_BOUND ( 'NONE', #320, .T. ) ;
#146 = DIRECTION ( 'NONE',  ( 0.000000000000000000, 0.000000000000000000, -1.000000000000000000 ) ) ;
#147 = EDGE_LOOP ( 'NONE', ( #490, #559, #826, #267, #457, #386, #478, #688, #836, #858, #636, #811, #281, #157, #627, #222, #391 ) ) ;
#148 = CYLINDRICAL_SURFACE ( 'NONE', #774, 2.500000000000048406 ) ;
#149 = CARTESIAN_POINT ( 'NONE',  ( -615.2182604232865515, 831.9822226882109817, 0.000000000000000000 ) ) ;
#150 = ADVANCED_FACE ( 'NONE', ( #270, #890 ), #197, .F. ) ;
#151 = ORIENTED_EDGE ( 'NONE', *, *, #319, .F. ) ;
#152 = DIRECTION ( 'NONE',  ( -0.000000000000000000, -0.000000000000000000, -1.000000000000000000 ) ) ;
#153 = AXIS2_PLACEMENT_3D ( 'NONE', #593, #983, #370 ) ;
#154 = AXIS2_PLACEMENT_3D ( 'NONE', #845, #152, #837 ) ;
#155 = CARTESIAN_POINT ( 'NONE',  ( -636.3196945256678418, 839.4822226882110954, 0.000000000000000000 ) ) ;
#156 = EDGE_CURVE ( 'NONE', #676, #495, #249, .T. ) ;
#157 = ORIENTED_EDGE ( 'NONE', *, *, #285, .F. ) ;
#158 = VERTEX_POINT ( 'NONE', #102 ) ;
#159 = FACE_BOUND ( 'NONE', #865, .T. ) ;
#160 = DIRECTION ( 'NONE',  ( 0.000000000000000000, 0.000000000000000000, 1.000000000000000000 ) ) ;
#161 = ORIENTED_EDGE ( 'NONE', *, *, #156, .T. ) ;
#162 = ORIENTED_EDGE ( 'NONE', *, *, #598, .F. ) ;
#163 = CARTESIAN_POINT ( 'NONE',  ( -637.8175408737779435, 831.9822226882110954, 3.502593373026162027 ) ) ;
#164 = LINE ( 'NONE', #609, #480 ) ;
#165 = VERTEX_POINT ( 'NONE', #255 ) ;
#166 = VERTEX_POINT ( 'NONE', #562 ) ;
#167 = CARTESIAN_POINT ( 'NONE',  ( -657.4168213242693355, 834.4822226882110954, 0.000000000000000000 ) ) ;
#168 = EDGE_CURVE ( 'NONE', #700, #844, #962, .T. ) ;
#169 = PRODUCT_DEFINITION_SHAPE ( 'NONE', 'NONE',  #527 ) ;
#170 = EDGE_CURVE ( 'NONE', #487, #271, #347, .T. ) ;
#171 = CIRCLE ( 'NONE', #509, 1.002593373026162027 ) ;
#172 = CARTESIAN_POINT ( 'NONE',  ( -650.4168213242693355, 831.9822226882110954, 2.500000000000000000 ) ) ;
#173 = VECTOR ( 'NONE', #852, 1000.000000000000000 ) ;
#174 = CIRCLE ( 'NONE', #125, 1.002593373026162027 ) ;
#175 = DIRECTION ( 'NONE',  ( 1.000000000000000000, 0.000000000000000000, 0.000000000000000000 ) ) ;
#176 = ORIENTED_EDGE ( 'NONE', *, *, #728, .T. ) ;
#177 = DIRECTION ( 'NONE',  ( 0.000000000000000000, 0.000000000000000000, -1.000000000000000000 ) ) ;
#178 = CARTESIAN_POINT ( 'NONE',  ( -650.4168213242693355, 834.4822226882110954, 5.000000000000000000 ) ) ;
#179 = ORIENTED_EDGE ( 'NONE', *, *, #888, .T. ) ;
#180 = CYLINDRICAL_SURFACE ( 'NONE', #883, 1.002593373026162027 ) ;
#181 = LINE ( 'NONE', #264, #41 ) ;
#182 = EDGE_CURVE ( 'NONE', #575, #166, #828, .T. ) ;
#183 = ORIENTED_EDGE ( 'NONE', *, *, #618, .F. ) ;
#184 = FACE_OUTER_BOUND ( 'NONE', #352, .T. ) ;
#185 = VECTOR ( 'NONE', #70, 1000.000000000000000 ) ;
#186 = DIRECTION ( 'NONE',  ( 1.000000000000000000, 0.000000000000000000, 0.000000000000000000 ) ) ;
#187 = AXIS2_PLACEMENT_3D ( 'NONE', #30, #806, #428 ) ;
#188 = ADVANCED_FACE ( 'NONE', ( #914, #221 ), #901, .F. ) ;
#189 = EDGE_LOOP ( 'NONE', ( #151, #714, #134, #549 ) ) ;
#190 = LINE ( 'NONE', #32, #142 ) ;
#191 = AXIS2_PLACEMENT_3D ( 'NONE', #634, #7, #622 ) ;
#192 = CARTESIAN_POINT ( 'NONE',  ( -637.8175408737779435, 831.9822226882110954, 1.497406626973837973 ) ) ;
#193 = DIRECTION ( 'NONE',  ( -1.000000000000000000, -0.000000000000000000, -0.000000000000000000 ) ) ;
#194 = ORIENTED_EDGE ( 'NONE', *, *, #798, .T. ) ;
#195 = DIRECTION ( 'NONE',  ( 0.000000000000000000, -0.000000000000000000, -1.000000000000000000 ) ) ;
#196 = CARTESIAN_POINT ( 'NONE',  ( -606.9168213242693355, 839.4822226882110954, 5.000000000000000000 ) ) ;
#197 = PLANE ( 'NONE',  #232 ) ;
#198 = ORIENTED_EDGE ( 'NONE', *, *, #443, .T. ) ;
#199 = CARTESIAN_POINT ( 'NONE',  ( -615.2182604232865515, 831.9822226882110954, 1.497406626973837973 ) ) ;
#200 = CARTESIAN_POINT ( 'NONE',  ( -650.4168213242693355, 831.9822226882110954, 5.000000000000000000 ) ) ;
#201 = EDGE_CURVE ( 'NONE', #620, #516, #522, .T. ) ;
#202 = FACE_BOUND ( 'NONE', #31, .T. ) ;
#203 = ORIENTED_EDGE ( 'NONE', *, *, #227, .T. ) ;
#204 = CYLINDRICAL_SURFACE ( 'NONE', #792, 1.499999999999945821 ) ;
#205 = CIRCLE ( 'NONE', #685, 2.500000000000048406 ) ;
#206 = VECTOR ( 'NONE', #683, 1000.000000000000000 ) ;
#207 = CARTESIAN_POINT ( 'NONE',  ( -608.4168213242693355, 824.4822226882109817, 5.000000000000000000 ) ) ;
#208 = ORIENTED_EDGE ( 'NONE', *, *, #275, .T. ) ;
#209 = ORIENTED_EDGE ( 'NONE', *, *, #168, .F. ) ;
#210 =( LENGTH_UNIT ( ) NAMED_UNIT ( * ) SI_UNIT ( .MILLI., .METRE. ) );
#211 = CARTESIAN_POINT ( 'NONE',  ( -652.4168213242693355, 839.4822226882110954, 5.000000000000000000 ) ) ;
#212 = ADVANCED_FACE ( 'NONE', ( #824, #508, #987 ), #280, .T. ) ;
#213 = VERTEX_POINT ( 'NONE', #211 ) ;
#214 = CYLINDRICAL_SURFACE ( 'NONE', #880, 1.002593373026162027 ) ;
#215 = DIRECTION ( 'NONE',  ( 1.000000000000000000, 0.000000000000000000, -0.000000000000000000 ) ) ;
#216 = EDGE_LOOP ( 'NONE', ( #583, #692, #118, #910 ) ) ;
#217 = ADVANCED_FACE ( 'NONE', ( #202, #909 ), #747, .F. ) ;
#218 = DIRECTION ( 'NONE',  ( -1.000000000000000000, 0.000000000000000000, 0.000000000000000000 ) ) ;
#219 = VECTOR ( 'NONE', #465, 1000.000000000000000 ) ;
#220 = AXIS2_PLACEMENT_3D ( 'NONE', #866, #326, #177 ) ;
#221 = FACE_BOUND ( 'NONE', #324, .T. ) ;
#222 = ORIENTED_EDGE ( 'NONE', *, *, #284, .F. ) ;
#223 = CARTESIAN_POINT ( 'NONE',  ( -603.4158213242692455, 831.9822226882110954, 2.500000000000000000 ) ) ;
#224 = DIRECTION ( 'NONE',  ( -0.000000000000000000, -0.000000000000000000, -1.000000000000000000 ) ) ;
#225 = ORIENTED_EDGE ( 'NONE', *, *, #201, .F. ) ;
#226 = LINE ( 'NONE', #303, #298 ) ;
#227 = EDGE_CURVE ( 'NONE', #213, #936, #382, .T. ) ;
#228 = CARTESIAN_POINT ( 'NONE',  ( -615.2182604232865515, 831.9822226882110954, 3.502593373026162027 ) ) ;
#229 = DIRECTION ( 'NONE',  ( -1.000000000000000000, 0.000000000000000000, 0.000000000000000000 ) ) ;
#230 = ORIENTED_EDGE ( 'NONE', *, *, #399, .T. ) ;
#231 = FACE_OUTER_BOUND ( 'NONE', #339, .T. ) ;
#232 = AXIS2_PLACEMENT_3D ( 'NONE', #503, #46, #24 ) ;
#233 = CIRCLE ( 'NONE', #367, 2.500000000000048406 ) ;
#234 = DIRECTION ( 'NONE',  ( -0.000000000000000000, -0.000000000000000000, -1.000000000000000000 ) ) ;
#235 = ORIENTED_EDGE ( 'NONE', *, *, #85, .T. ) ;
#236 = ORIENTED_EDGE ( 'NONE', *, *, #728, .F. ) ;
#237 = DIRECTION ( 'NONE',  ( -1.000000000000000000, -0.000000000000000000, -0.000000000000000000 ) ) ;
#238 = DIRECTION ( 'NONE',  ( 1.000000000000000000, 0.000000000000000000, -0.000000000000000000 ) ) ;
#239 = ORIENTED_EDGE ( 'NONE', *, *, #825, .F. ) ;
#240 = EDGE_LOOP ( 'NONE', ( #47, #821 ) ) ;
#241 = DIRECTION ( 'NONE',  ( 0.000000000000000000, -4.440892098500540334E-14, -1.000000000000000000 ) ) ;
#242 = ADVANCED_FACE ( 'NONE', ( #456 ), #820, .T. ) ;
#243 = SURFACE_SIDE_STYLE ('',( #630 ) ) ;
#244 = EDGE_LOOP ( 'NONE', ( #590, #891, #371, #925 ) ) ;
#245 = VERTEX_POINT ( 'NONE', #276 ) ;
#246 = CARTESIAN_POINT ( 'NONE',  ( -608.4168213242693355, 824.4822226882109817, 5.000000000000000000 ) ) ;
#247 = AXIS2_PLACEMENT_3D ( 'NONE', #172, #543, #160 ) ;
#248 = AXIS2_PLACEMENT_3D ( 'NONE', #411, #322, #97 ) ;
#249 = LINE ( 'NONE', #178, #864 ) ;
#250 = CIRCLE ( 'NONE', #849, 1.002593373026162027 ) ;
#251 = EDGE_LOOP ( 'NONE', ( #256, #950, #1000, #997 ) ) ;
#252 = DIRECTION ( 'NONE',  ( 0.000000000000000000, 0.000000000000000000, -1.000000000000000000 ) ) ;
#253 = EDGE_CURVE ( 'NONE', #68, #335, #143, .T. ) ;
#254 = EDGE_CURVE ( 'NONE', #519, #713, #67, .T. ) ;
#255 = CARTESIAN_POINT ( 'NONE',  ( -606.9168213242693355, 839.4822226882110954, 0.000000000000000000 ) ) ;
#256 = ORIENTED_EDGE ( 'NONE', *, *, #140, .F. ) ;
#257 = CARTESIAN_POINT ( 'NONE',  ( -608.4168213242693355, 839.4822226882110954, 0.000000000000000000 ) ) ;
#258 = EDGE_CURVE ( 'NONE', #302, #327, #751, .T. ) ;
#259 = CARTESIAN_POINT ( 'NONE',  ( -657.4168213242693355, 834.4822226882110954, 0.000000000000000000 ) ) ;
#260 = EDGE_LOOP ( 'NONE', ( #874, #198, #682, #56 ) ) ;
#261 = LINE ( 'NONE', #37, #607 ) ;
#262 = DIRECTION ( 'NONE',  ( 0.000000000000000000, 0.000000000000000000, 1.000000000000000000 ) ) ;
#263 = VECTOR ( 'NONE', #964, 1000.000000000000000 ) ;
#264 = CARTESIAN_POINT ( 'NONE',  ( -608.4168213242693355, 824.4822226882109817, 0.000000000000000000 ) ) ;
#265 = VECTOR ( 'NONE', #405, 1000.000000000000000 ) ;
#266 = AXIS2_PLACEMENT_3D ( 'NONE', #44, #132, #809 ) ;
#267 = ORIENTED_EDGE ( 'NONE', *, *, #887, .F. ) ;
#268 = DIRECTION ( 'NONE',  ( -0.000000000000000000, -0.000000000000000000, -1.000000000000000000 ) ) ;
#269 = DIRECTION ( 'NONE',  ( 1.000000000000000000, 0.000000000000000000, 0.000000000000000000 ) ) ;
#270 = FACE_OUTER_BOUND ( 'NONE', #959, .T. ) ;
#271 = VERTEX_POINT ( 'NONE', #55 ) ;
#272 = LINE ( 'NONE', #568, #740 ) ;
#273 = ADVANCED_FACE ( 'NONE', ( #980 ), #528, .F. ) ;
#274 = DIRECTION ( 'NONE',  ( -1.000000000000000000, 0.000000000000000000, -0.000000000000000000 ) ) ;
#275 = EDGE_CURVE ( 'NONE', #752, #76, #623, .T. ) ;
#276 = CARTESIAN_POINT ( 'NONE',  ( -650.4168213242693355, 831.9822226882110954, 1.497406626973837973 ) ) ;
#277 = VERTEX_POINT ( 'NONE', #678 ) ;
#278 = DIRECTION ( 'NONE',  ( -1.000000000000000000, 0.000000000000000000, 0.000000000000000000 ) ) ;
#279 = DIRECTION ( 'NONE',  ( 0.000000000000000000, 0.000000000000000000, 1.000000000000000000 ) ) ;
#280 = PLANE ( 'NONE',  #446 ) ;
#281 = ORIENTED_EDGE ( 'NONE', *, *, #644, .F. ) ;
#282 = VECTOR ( 'NONE', #139, 1000.000000000000000 ) ;
#283 = DIRECTION ( 'NONE',  ( -0.000000000000000000, 0.000000000000000000, 1.000000000000000000 ) ) ;
#284 = EDGE_CURVE ( 'NONE', #519, #277, #602, .T. ) ;
#285 = EDGE_CURVE ( 'NONE', #844, #575, #659, .T. ) ;
#286 = CARTESIAN_POINT ( 'NONE',  ( -642.9168213242693355, 839.4822226882110954, 5.000000000000000000 ) ) ;
#287 = ORIENTED_EDGE ( 'NONE', *, *, #888, .F. ) ;
#288 = CARTESIAN_POINT ( 'NONE',  ( -613.4168213242693355, 839.4822226882110954, 5.000000000000000000 ) ) ;
#289 = CARTESIAN_POINT ( 'NONE',  ( -608.4168213242693355, 839.4822226882110954, 5.000000000000000000 ) ) ;
#290 = EDGE_CURVE ( 'NONE', #424, #752, #300, .T. ) ;
#291 = VERTEX_POINT ( 'NONE', #228 ) ;
#292 = DIRECTION ( 'NONE',  ( -1.000000000000000000, 0.000000000000000000, 0.000000000000000000 ) ) ;
#293 = DIRECTION ( 'NONE',  ( -0.000000000000000000, 0.000000000000000000, -1.000000000000000000 ) ) ;
#294 = ORIENTED_EDGE ( 'NONE', *, *, #586, .F. ) ;
#295 = DIRECTION ( 'NONE',  ( -0.000000000000000000, -0.000000000000000000, 1.000000000000000000 ) ) ;
#296 = DIRECTION ( 'NONE',  ( -1.000000000000000000, -0.000000000000000000, -0.000000000000000000 ) ) ;
#297 = AXIS2_PLACEMENT_3D ( 'NONE', #482, #305, #238 ) ;
#298 = VECTOR ( 'NONE', #58, 1000.000000000000000 ) ;
#299 = VECTOR ( 'NONE', #345, 1000.000000000000000 ) ;
#300 = LINE ( 'NONE', #846, #556 ) ;
#301 = ORIENTED_EDGE ( 'NONE', *, *, #350, .T. ) ;
#302 = VERTEX_POINT ( 'NONE', #994 ) ;
#303 = CARTESIAN_POINT ( 'NONE',  ( -603.4158213242692455, 831.9822226882110954, 5.000000000000000000 ) ) ;
#304 = EDGE_CURVE ( 'NONE', #306, #335, #164, .T. ) ;
#305 = DIRECTION ( 'NONE',  ( 0.000000000000000000, 0.000000000000000000, 1.000000000000000000 ) ) ;
#306 = VERTEX_POINT ( 'NONE', #552 ) ;
#307 = ORIENTED_EDGE ( 'NONE', *, *, #694, .T. ) ;
#308 = LINE ( 'NONE', #450, #93 ) ;
#309 = CARTESIAN_POINT ( 'NONE',  ( -615.2182604232865515, 834.4822226882110954, 5.000000000000000000 ) ) ;
#310 = ORIENTED_EDGE ( 'NONE', *, *, #393, .F. ) ;
#311 = ORIENTED_EDGE ( 'NONE', *, *, #20, .T. ) ;
#312 = CARTESIAN_POINT ( 'NONE',  ( -627.8175408737779435, 831.9822226882110954, 1.497406626973837973 ) ) ;
#313 = CIRCLE ( 'NONE', #755, 2.500000000000048406 ) ;
#314 = CIRCLE ( 'NONE', #315, 1.499999999999945821 ) ;
#315 = AXIS2_PLACEMENT_3D ( 'NONE', #434, #569, #269 ) ;
#316 = CARTESIAN_POINT ( 'NONE',  ( -632.8175408737779435, 841.5162875344128679, 5.000000000000000000 ) ) ;
#317 = EDGE_CURVE ( 'NONE', #538, #88, #862, .T. ) ;
#318 = AXIS2_PLACEMENT_3D ( 'NONE', #257, #804, #356 ) ;
#319 = EDGE_CURVE ( 'NONE', #936, #538, #412, .T. ) ;
#320 = EDGE_LOOP ( 'NONE', ( #953, #524, #932, #621 ) ) ;
#321 = EDGE_LOOP ( 'NONE', ( #965, #941, #161, #194 ) ) ;
#322 = DIRECTION ( 'NONE',  ( -1.000000000000000000, -0.000000000000000000, -0.000000000000000000 ) ) ;
#323 = CARTESIAN_POINT ( 'NONE',  ( -650.4168213242693355, 831.9822226882109817, 0.000000000000000000 ) ) ;
#324 = EDGE_LOOP ( 'NONE', ( #533, #235 ) ) ;
#325 = ORIENTED_EDGE ( 'NONE', *, *, #972, .F. ) ;
#326 = DIRECTION ( 'NONE',  ( 1.000000000000000000, 0.000000000000000000, 0.000000000000000000 ) ) ;
#327 = VERTEX_POINT ( 'NONE', #155 ) ;
#328 = ORIENTED_EDGE ( 'NONE', *, *, #369, .F. ) ;
#329 = DIRECTION ( 'NONE',  ( 0.000000000000000000, 0.000000000000000000, 1.000000000000000000 ) ) ;
#330 = EDGE_CURVE ( 'NONE', #360, #327, #523, .T. ) ;
#331 = AXIS2_PLACEMENT_3D ( 'NONE', #316, #234, #9 ) ;
#332 = CIRCLE ( 'NONE', #220, 1.002593373026162027 ) ;
#333 = LINE ( 'NONE', #943, #570 ) ;
#334 = AXIS2_PLACEMENT_3D ( 'NONE', #52, #961, #491 ) ;
#335 = VERTEX_POINT ( 'NONE', #149 ) ;
#336 = PLANE ( 'NONE',  #913 ) ;
#337 = EDGE_CURVE ( 'NONE', #995, #554, #939, .T. ) ;
#338 = CARTESIAN_POINT ( 'NONE',  ( -608.4168213242693355, 831.9822226882110954, 0.000000000000000000 ) ) ;
#339 = EDGE_LOOP ( 'NONE', ( #530, #991, #364, #87 ) ) ;
#340 = UNCERTAINTY_MEASURE_WITH_UNIT (LENGTH_MEASURE( 1.000000000000000082E-05 ), #210, 'distance_accuracy_value', 'NONE');
#341 = CARTESIAN_POINT ( 'NONE',  ( -650.4168213242693355, 831.9822226882110954, 2.500000000000000000 ) ) ;
#342 = CARTESIAN_POINT ( 'NONE',  ( -657.4168213242693355, 839.4822226882110954, 5.000000000000000000 ) ) ;
#343 = DIRECTION ( 'NONE',  ( 0.000000000000000000, 0.000000000000000000, 1.000000000000000000 ) ) ;
#344 = ORIENTED_EDGE ( 'NONE', *, *, #77, .T. ) ;
#345 = DIRECTION ( 'NONE',  ( -1.000000000000000000, 0.000000000000000000, 0.000000000000000000 ) ) ;
#346 = FACE_OUTER_BOUND ( 'NONE', #415, .T. ) ;
#347 = CIRCLE ( 'NONE', #427, 1.002593373026162027 ) ;
#348 = CARTESIAN_POINT ( 'NONE',  ( -603.4158213242692455, 831.9822226882110954, 1.497406626973837973 ) ) ;
#349 = ADVANCED_FACE ( 'NONE', ( #460 ), #614, .F. ) ;
#350 = EDGE_CURVE ( 'NONE', #245, #748, #463, .T. ) ;
#351 = AXIS2_PLACEMENT_3D ( 'NONE', #608, #764, #917 ) ;
#352 = EDGE_LOOP ( 'NONE', ( #138, #610, #410, #611 ) ) ;
#353 = CYLINDRICAL_SURFACE ( 'NONE', #95, 2.500000000000048406 ) ;
#354 = CARTESIAN_POINT ( 'NONE',  ( -652.4168213242693355, 839.4822226882110954, 5.000000000000000000 ) ) ;
#355 = ORIENTED_EDGE ( 'NONE', *, *, #988, .T. ) ;
#356 = DIRECTION ( 'NONE',  ( 1.000000000000000000, 0.000000000000000000, 0.000000000000000000 ) ) ;
#357 = CARTESIAN_POINT ( 'NONE',  ( -603.4158213242692455, 831.9822226882109817, 0.000000000000000000 ) ) ;
#358 = ORIENTED_EDGE ( 'NONE', *, *, #928, .T. ) ;
#359 = CARTESIAN_POINT ( 'NONE',  ( -615.2182604232865515, 831.9822226882110954, 2.500000000000000000 ) ) ;
#360 = VERTEX_POINT ( 'NONE', #626 ) ;
#361 = DIRECTION ( 'NONE',  ( 0.000000000000000000, -0.000000000000000000, 1.000000000000000000 ) ) ;
#362 = EDGE_CURVE ( 'NONE', #94, #519, #770, .T. ) ;
#363 = DIRECTION ( 'NONE',  ( 0.000000000000000000, 0.000000000000000000, 1.000000000000000000 ) ) ;
#364 = ORIENTED_EDGE ( 'NONE', *, *, #899, .F. ) ;
#365 = CARTESIAN_POINT ( 'NONE',  ( -615.2182604232865515, 834.4822226882110954, -0.001000000000008806345 ) ) ;
#366 = AXIS2_PLACEMENT_3D ( 'NONE', #112, #729, #417 ) ;
#367 = AXIS2_PLACEMENT_3D ( 'NONE', #469, #783, #796 ) ;
#368 = LINE ( 'NONE', #288, #282 ) ;
#369 = EDGE_CURVE ( 'NONE', #516, #71, #776, .T. ) ;
#370 = DIRECTION ( 'NONE',  ( 1.000000000000000000, 0.000000000000000000, 0.000000000000000000 ) ) ;
#371 = ORIENTED_EDGE ( 'NONE', *, *, #721, .F. ) ;
#372 = LINE ( 'NONE', #673, #429 ) ;
#373 = DIRECTION ( 'NONE',  ( 0.000000000000000000, -1.000000000000000000, 0.000000000000000000 ) ) ;
#374 = ORIENTED_EDGE ( 'NONE', *, *, #80, .T. ) ;
#375 = VERTEX_POINT ( 'NONE', #471 ) ;
#376 = CARTESIAN_POINT ( 'NONE',  ( -629.3153872218880451, 839.4822226882110954, 5.000000000000000000 ) ) ;
#377 = DIRECTION ( 'NONE',  ( -1.000000000000000000, -0.000000000000000000, -0.000000000000000000 ) ) ;
#378 = EDGE_CURVE ( 'NONE', #395, #94, #780, .T. ) ;
#379 = ORIENTED_EDGE ( 'NONE', *, *, #290, .F. ) ;
#380 = ADVANCED_FACE ( 'NONE', ( #923, #81, #690 ), #999, .F. ) ;
#381 = DIRECTION ( 'NONE',  ( -1.000000000000000000, -0.000000000000000000, -0.000000000000000000 ) ) ;
#382 = CIRCLE ( 'NONE', #771, 5.000000000000004441 ) ;
#383 = AXIS2_PLACEMENT_3D ( 'NONE', #712, #54, #361 ) ;
#384 = CIRCLE ( 'NONE', #915, 1.002593373026162027 ) ;
#385 = DIRECTION ( 'NONE',  ( 0.000000000000000000, 1.000000000000000000, 0.000000000000000000 ) ) ;
#386 = ORIENTED_EDGE ( 'NONE', *, *, #20, .F. ) ;
#387 = ORIENTED_EDGE ( 'NONE', *, *, #841, .F. ) ;
#388 = CARTESIAN_POINT ( 'NONE',  ( -603.4158213242692455, 831.9822226882110954, 5.000000000000000000 ) ) ;
#389 = DIRECTION ( 'NONE',  ( 0.000000000000000000, -1.000000000000000000, 0.000000000000000000 ) ) ;
#390 = DIRECTION ( 'NONE',  ( 0.000000000000000000, 0.000000000000000000, 1.000000000000000000 ) ) ;
#391 = ORIENTED_EDGE ( 'NONE', *, *, #362, .F. ) ;
#392 = DIRECTION ( 'NONE',  ( 1.000000000000000000, 0.000000000000000000, 0.000000000000000000 ) ) ;
#393 = EDGE_CURVE ( 'NONE', #844, #277, #695, .T. ) ;
#394 = DIRECTION ( 'NONE',  ( 1.000000000000000000, 0.000000000000000000, 0.000000000000000000 ) ) ;
#395 = VERTEX_POINT ( 'NONE', #323 ) ;
#396 = EDGE_LOOP ( 'NONE', ( #448, #21 ) ) ;
#397 = CYLINDRICAL_SURFACE ( 'NONE', #963, 1.002593373026162027 ) ;
#398 = AXIS2_PLACEMENT_3D ( 'NONE', #560, #539, #392 ) ;
#399 = EDGE_CURVE ( 'NONE', #166, #700, #4, .T. ) ;
#400 = CARTESIAN_POINT ( 'NONE',  ( -629.3153872218880451, 839.4822226882110954, 5.000000000000000000 ) ) ;
#401 = ORIENTED_EDGE ( 'NONE', *, *, #23, .F. ) ;
#402 = ORIENTED_EDGE ( 'NONE', *, *, #544, .T. ) ;
#403 = CARTESIAN_POINT ( 'NONE',  ( -637.8175408737779435, 831.9822226882110954, 2.500000000000039524 ) ) ;
#404 = FACE_OUTER_BOUND ( 'NONE', #260, .T. ) ;
#405 = DIRECTION ( 'NONE',  ( -1.000000000000000000, -0.000000000000000000, -0.000000000000000000 ) ) ;
#406 = VERTEX_POINT ( 'NONE', #400 ) ;
#407 = DIRECTION ( 'NONE',  ( 0.000000000000000000, 0.000000000000000000, 1.000000000000000000 ) ) ;
#408 = LINE ( 'NONE', #354, #912 ) ;
#409 = MANIFOLD_SOLID_BREP ( 'Cut-Extrude2', #447 ) ;
#410 = ORIENTED_EDGE ( 'NONE', *, *, #598, .T. ) ;
#411 = CARTESIAN_POINT ( 'NONE',  ( -603.4158213242692455, 831.9822226882110954, 2.500000000000000000 ) ) ;
#412 = CIRCLE ( 'NONE', #722, 5.000000000000004441 ) ;
#413 = AXIS2_PLACEMENT_3D ( 'NONE', #793, #426, #262 ) ;
#414 = DIRECTION ( 'NONE',  ( -1.000000000000000000, -0.000000000000000000, -0.000000000000000000 ) ) ;
#415 = EDGE_LOOP ( 'NONE', ( #697, #895, #230, #989 ) ) ;
#416 = CARTESIAN_POINT ( 'NONE',  ( -662.4168213242693355, 839.4822226882110954, 5.000000000000000000 ) ) ;
#417 = DIRECTION ( 'NONE',  ( 0.000000000000000000, 0.000000000000000000, -1.000000000000000000 ) ) ;
#418 = ORIENTED_EDGE ( 'NONE', *, *, #721, .T. ) ;
#419 = DIRECTION ( 'NONE',  ( -1.000000000000000000, -0.000000000000000000, -0.000000000000000000 ) ) ;
#420 = PLANE ( 'NONE',  #898 ) ;
#421 = EDGE_CURVE ( 'NONE', #726, #759, #976, .T. ) ;
#422 = EDGE_CURVE ( 'NONE', #921, #165, #314, .T. ) ;
#423 = CARTESIAN_POINT ( 'NONE',  ( -608.4168213242693355, 834.4822226882110954, 0.000000000000000000 ) ) ;
#424 = VERTEX_POINT ( 'NONE', #517 ) ;
#425 = LINE ( 'NONE', #822, #299 ) ;
#426 = DIRECTION ( 'NONE',  ( -1.000000000000000000, -0.000000000000000000, -0.000000000000000000 ) ) ;
#427 = AXIS2_PLACEMENT_3D ( 'NONE', #128, #663, #582 ) ;
#428 = DIRECTION ( 'NONE',  ( 0.000000000000000000, 0.000000000000000000, 1.000000000000000000 ) ) ;
#429 = VECTOR ( 'NONE', #534, 1000.000000000000000 ) ;
#430 = ORIENTED_EDGE ( 'NONE', *, *, #977, .T. ) ;
#431 = PRODUCT_DEFINITION_CONTEXT ( 'detailed design', #624, 'design' ) ;
#432 = PLANE ( 'NONE',  #572 ) ;
#433 =( GEOMETRIC_REPRESENTATION_CONTEXT ( 3 ) GLOBAL_UNCERTAINTY_ASSIGNED_CONTEXT ( ( #567 ) ) GLOBAL_UNIT_ASSIGNED_CONTEXT ( ( #57, #767, #72 ) ) REPRESENTATION_CONTEXT ( 'NONE', 'WORKASPACE' ) );
#434 = CARTESIAN_POINT ( 'NONE',  ( -608.4168213242693355, 839.4822226882110954, 0.000000000000000000 ) ) ;
#435 = DIRECTION ( 'NONE',  ( 0.000000000000000000, 1.000000000000000000, 0.000000000000000000 ) ) ;
#436 = ADVANCED_FACE ( 'NONE', ( #967, #746 ), #33, .F. ) ;
#437 = ORIENTED_EDGE ( 'NONE', *, *, #422, .T. ) ;
#438 = CARTESIAN_POINT ( 'NONE',  ( -657.4168213242693355, 839.4822226882110954, 5.000000000000000000 ) ) ;
#439 = ADVANCED_FACE ( 'NONE', ( #346, #592 ), #420, .F. ) ;
#440 = FACE_OUTER_BOUND ( 'NONE', #545, .T. ) ;
#441 = CARTESIAN_POINT ( 'NONE',  ( -657.4168213242693355, 839.4822226882110954, 5.000000000000000000 ) ) ;
#442 = ORIENTED_EDGE ( 'NONE', *, *, #561, .F. ) ;
#443 = EDGE_CURVE ( 'NONE', #916, #165, #581, .T. ) ;
#444 = CARTESIAN_POINT ( 'NONE',  ( -657.4168213242693355, 831.9822226882110954, 3.502593373026162027 ) ) ;
#445 = DIRECTION ( 'NONE',  ( -0.000000000000000000, -0.000000000000000000, 1.000000000000000000 ) ) ;
#446 = AXIS2_PLACEMENT_3D ( 'NONE', #451, #597, #669 ) ;
#447 = CLOSED_SHELL ( 'NONE', ( #742, #814, #506, #948, #600, #830, #380, #129, #761, #632, #111, #918, #217, #785, #212, #242, #861, #349, #273, #475, #649, #935, #188, #439, #470, #436, #497, #150, #872 ) ) ;
#448 = ORIENTED_EDGE ( 'NONE', *, *, #23, .T. ) ;
#449 = AXIS2_PLACEMENT_3D ( 'NONE', #903, #98, #585 ) ;
#450 = CARTESIAN_POINT ( 'NONE',  ( -642.9168213242693355, 839.4822226882110954, 5.000000000000000000 ) ) ;
#451 = CARTESIAN_POINT ( 'NONE',  ( -608.4168213242693355, 839.4822226882110954, 5.000000000000000000 ) ) ;
#452 = ORIENTED_EDGE ( 'NONE', *, *, #694, .F. ) ;
#453 = CARTESIAN_POINT ( 'NONE',  ( -629.3153872218880451, 839.4822226882110954, 0.000000000000000000 ) ) ;
#454 = CARTESIAN_POINT ( 'NONE',  ( -650.4168213242693355, 834.4822226882110954, 5.000000000000000000 ) ) ;
#455 = EDGE_CURVE ( 'NONE', #424, #103, #818, .T. ) ;
#456 = FACE_OUTER_BOUND ( 'NONE', #646, .T. ) ;
#457 = ORIENTED_EDGE ( 'NONE', *, *, #467, .F. ) ;
#458 = CARTESIAN_POINT ( 'NONE',  ( -652.4168213242693355, 839.4822226882110954, 0.000000000000000000 ) ) ;
#459 = CYLINDRICAL_SURFACE ( 'NONE', #154, 1.499999999999945821 ) ;
#460 = FACE_OUTER_BOUND ( 'NONE', #906, .T. ) ;
#461 = ORIENTED_EDGE ( 'NONE', *, *, #275, .F. ) ;
#462 = CARTESIAN_POINT ( 'NONE',  ( -627.8175408737779435, 834.4822226882110954, 0.000000000000000000 ) ) ;
#463 = CIRCLE ( 'NONE', #247, 1.002593373026162027 ) ;
#464 = AXIS2_PLACEMENT_3D ( 'NONE', #982, #218, #911 ) ;
#465 = DIRECTION ( 'NONE',  ( -0.000000000000000000, 1.000000000000000000, -0.000000000000000000 ) ) ;
#466 = ORIENTED_EDGE ( 'NONE', *, *, #66, .F. ) ;
#467 = EDGE_CURVE ( 'NONE', #984, #500, #606, .T. ) ;
#468 = VERTEX_POINT ( 'NONE', #192 ) ;
#469 = CARTESIAN_POINT ( 'NONE',  ( -650.4168213242693355, 831.9822226882110954, 2.500000000000039524 ) ) ;
#470 = ADVANCED_FACE ( 'NONE', ( #813 ), #513, .F. ) ;
#471 = CARTESIAN_POINT ( 'NONE',  ( -609.9168213242692218, 839.4822226882110954, 5.000000000000000000 ) ) ;
#472 = EDGE_LOOP ( 'NONE', ( #12, #594, #374, #42 ) ) ;
#473 = EDGE_LOOP ( 'NONE', ( #437, #529 ) ) ;
#474 = DIRECTION ( 'NONE',  ( -1.000000000000000000, -0.000000000000000000, -0.000000000000000000 ) ) ;
#475 = ADVANCED_FACE ( 'NONE', ( #498 ), #732, .T. ) ;
#476 = DIRECTION ( 'NONE',  ( 1.000000000000000000, 0.000000000000000000, -0.000000000000000000 ) ) ;
#477 = ORIENTED_EDGE ( 'NONE', *, *, #900, .F. ) ;
#478 = ORIENTED_EDGE ( 'NONE', *, *, #330, .F. ) ;
#479 = DIRECTION ( 'NONE',  ( 0.000000000000000000, 0.000000000000000000, 1.000000000000000000 ) ) ;
#480 = VECTOR ( 'NONE', #389, 1000.000000000000000 ) ;
#481 = AXIS2_PLACEMENT_3D ( 'NONE', #661, #970, #278 ) ;
#482 = CARTESIAN_POINT ( 'NONE',  ( -608.4168213242693355, 839.4822226882110954, 0.000000000000000000 ) ) ;
#483 = ORIENTED_EDGE ( 'NONE', *, *, #330, .T. ) ;
#484 = ORIENTED_EDGE ( 'NONE', *, *, #754, .F. ) ;
#485 = DIRECTION ( 'NONE',  ( -1.000000000000000000, 0.000000000000000000, 0.000000000000000000 ) ) ;
#486 = CARTESIAN_POINT ( 'NONE',  ( -637.8175408737779435, 831.9822226882110954, 5.000000000000000000 ) ) ;
#487 = VERTEX_POINT ( 'NONE', #115 ) ;
#488 = DIRECTION ( 'NONE',  ( -1.000000000000000000, -0.000000000000000000, -0.000000000000000000 ) ) ;
#489 = DIRECTION ( 'NONE',  ( -1.000000000000000000, -0.000000000000000000, -0.000000000000000000 ) ) ;
#490 = ORIENTED_EDGE ( 'NONE', *, *, #378, .F. ) ;
#491 = DIRECTION ( 'NONE',  ( 1.000000000000000000, 0.000000000000000000, 0.000000000000000000 ) ) ;
#492 = CIRCLE ( 'NONE', #366, 1.002593373026162027 ) ;
#493 = AXIS2_PLACEMENT_3D ( 'NONE', #38, #648, #955 ) ;
#494 = LINE ( 'NONE', #348, #603 ) ;
#495 = VERTEX_POINT ( 'NONE', #200 ) ;
#496 = CARTESIAN_POINT ( 'NONE',  ( -658.9168213242693355, 839.4822226882110954, 5.000000000000000000 ) ) ;
#497 = ADVANCED_FACE ( 'NONE', ( #440 ), #750, .F. ) ;
#498 = FACE_OUTER_BOUND ( 'NONE', #472, .T. ) ;
#499 = DIRECTION ( 'NONE',  ( -1.000000000000000000, -0.000000000000000000, -0.000000000000000000 ) ) ;
#500 = VERTEX_POINT ( 'NONE', #666 ) ;
#501 = DIRECTION ( 'NONE',  ( -1.000000000000000000, 0.000000000000000000, 0.000000000000000000 ) ) ;
#502 = PRESENTATION_STYLE_ASSIGNMENT (( #684 ) ) ;
#503 = CARTESIAN_POINT ( 'NONE',  ( -637.8175408737779435, 834.4822226882110954, -0.001000000000008806345 ) ) ;
#504 = ORIENTED_EDGE ( 'NONE', *, *, #574, .T. ) ;
#505 = DIRECTION ( 'NONE',  ( -1.000000000000000000, -0.000000000000000000, -0.000000000000000000 ) ) ;
#506 = ADVANCED_FACE ( 'NONE', ( #404 ), #975, .F. ) ;
#507 = VECTOR ( 'NONE', #90, 1000.000000000000000 ) ;
#508 = FACE_BOUND ( 'NONE', #144, .T. ) ;
#509 = AXIS2_PLACEMENT_3D ( 'NONE', #537, #847, #390 ) ;
#510 = AXIS2_PLACEMENT_3D ( 'NONE', #760, #292, #79 ) ;
#511 = ORIENTED_EDGE ( 'NONE', *, *, #53, .T. ) ;
#512 = CARTESIAN_POINT ( 'NONE',  ( -632.8175408737779435, 841.5162875344128679, 5.000000000000000000 ) ) ;
#513 = PLANE ( 'NONE',  #882 ) ;
#514 = DIRECTION ( 'NONE',  ( -0.000000000000000000, -0.000000000000000000, 1.000000000000000000 ) ) ;
#515 = EDGE_CURVE ( 'NONE', #395, #633, #768, .T. ) ;
#516 = VERTEX_POINT ( 'NONE', #601 ) ;
#517 = CARTESIAN_POINT ( 'NONE',  ( -655.9168213242694492, 839.4822226882110954, 5.000000000000000000 ) ) ;
#518 = CARTESIAN_POINT ( 'NONE',  ( -636.3196945256678418, 839.4822226882110954, 5.000000000000000000 ) ) ;
#519 = VERTEX_POINT ( 'NONE', #926 ) ;
#520 = DIRECTION ( 'NONE',  ( -0.000000000000000000, 1.000000000000000000, -0.000000000000000000 ) ) ;
#521 = DIRECTION ( 'NONE',  ( 0.000000000000000000, 0.000000000000000000, 1.000000000000000000 ) ) ;
#522 = LINE ( 'NONE', #207, #756 ) ;
#523 = CIRCLE ( 'NONE', #91, 4.049999999999998046 ) ;
#524 = ORIENTED_EDGE ( 'NONE', *, *, #613, .T. ) ;
#525 = AXIS2_PLACEMENT_3D ( 'NONE', #672, #996, #681 ) ;
#526 = LINE ( 'NONE', #992, #589 ) ;
#527 = PRODUCT_DEFINITION ( 'UNKNOWN', '', #542, #431 ) ;
#528 = PLANE ( 'NONE',  #106 ) ;
#529 = ORIENTED_EDGE ( 'NONE', *, *, #784, .T. ) ;
#530 = ORIENTED_EDGE ( 'NONE', *, *, #170, .T. ) ;
#531 = FACE_OUTER_BOUND ( 'NONE', #781, .T. ) ;
#532 = DIRECTION ( 'NONE',  ( 0.000000000000000000, 1.000000000000000000, 0.000000000000000000 ) ) ;
#533 = ORIENTED_EDGE ( 'NONE', *, *, #899, .T. ) ;
#534 = DIRECTION ( 'NONE',  ( 1.000000000000000000, 0.000000000000000000, 0.000000000000000000 ) ) ;
#535 = DIRECTION ( 'NONE',  ( -0.000000000000000000, -0.000000000000000000, -1.000000000000000000 ) ) ;
#536 = PRODUCT ( 'Holder1', 'Holder1', '', ( #907 ) ) ;
#537 = CARTESIAN_POINT ( 'NONE',  ( -627.8175408737779435, 831.9822226882110954, 2.500000000000000000 ) ) ;
#538 = VERTEX_POINT ( 'NONE', #998 ) ;
#539 = DIRECTION ( 'NONE',  ( 0.000000000000000000, 0.000000000000000000, 1.000000000000000000 ) ) ;
#540 = AXIS2_PLACEMENT_3D ( 'NONE', #952, #40, #741 ) ;
#541 = VECTOR ( 'NONE', #136, 1000.000000000000000 ) ;
#542 = PRODUCT_DEFINITION_FORMATION_WITH_SPECIFIED_SOURCE ( 'ANY', '', #536, .NOT_KNOWN. ) ;
#543 = DIRECTION ( 'NONE',  ( -1.000000000000000000, -0.000000000000000000, -0.000000000000000000 ) ) ;
#544 = EDGE_CURVE ( 'NONE', #700, #36, #226, .T. ) ;
#545 = EDGE_LOOP ( 'NONE', ( #616, #803, #344, #743 ) ) ;
#546 = ORIENTED_EDGE ( 'NONE', *, *, #972, .T. ) ;
#547 = DIRECTION ( 'NONE',  ( 0.000000000000000000, -1.000000000000000000, 0.000000000000000000 ) ) ;
#548 = CARTESIAN_POINT ( 'NONE',  ( -657.4168213242693355, 834.4822226882110954, 5.000000000000000000 ) ) ;
#549 = ORIENTED_EDGE ( 'NONE', *, *, #317, .F. ) ;
#550 = ORIENTED_EDGE ( 'NONE', *, *, #674, .F. ) ;
#551 = CARTESIAN_POINT ( 'NONE',  ( -655.9168213242694492, 839.4822226882110954, 0.000000000000000000 ) ) ;
#552 = CARTESIAN_POINT ( 'NONE',  ( -615.2182604232865515, 834.4822226882110954, 0.000000000000000000 ) ) ;
#553 = EDGE_LOOP ( 'NONE', ( #294, #401, #605, #16 ) ) ;
#554 = VERTEX_POINT ( 'NONE', #73 ) ;
#555 = CARTESIAN_POINT ( 'NONE',  ( -603.4158213242692455, 831.9822226882110954, 3.502593373026162027 ) ) ;
#556 = VECTOR ( 'NONE', #535, 1000.000000000000000 ) ;
#557 = AXIS2_PLACEMENT_3D ( 'NONE', #779, #101, #851 ) ;
#558 = CARTESIAN_POINT ( 'NONE',  ( -615.2182604232865515, 831.9822226882110954, 2.500000000000039524 ) ) ;
#559 = ORIENTED_EDGE ( 'NONE', *, *, #515, .T. ) ;
#560 = CARTESIAN_POINT ( 'NONE',  ( -608.4168213242693355, 839.4822226882110954, 5.000000000000000000 ) ) ;
#561 = EDGE_CURVE ( 'NONE', #158, #660, #60, .T. ) ;
#562 = CARTESIAN_POINT ( 'NONE',  ( -627.8175408737779435, 834.4822226882110954, 5.000000000000000000 ) ) ;
#563 = ORIENTED_EDGE ( 'NONE', *, *, #156, .F. ) ;
#564 = DIRECTION ( 'NONE',  ( -1.000000000000000000, 0.000000000000000000, 0.000000000000000000 ) ) ;
#565 = CYLINDRICAL_SURFACE ( 'NONE', #701, 1.002593373026162027 ) ;
#566 = EDGE_LOOP ( 'NONE', ( #730, #63 ) ) ;
#567 = UNCERTAINTY_MEASURE_WITH_UNIT (LENGTH_MEASURE( 1.000000000000000082E-05 ), #57, 'distance_accuracy_value', 'NONE');
#568 = CARTESIAN_POINT ( 'NONE',  ( -603.4158213242692455, 831.9822226882110954, 5.000000000000000000 ) ) ;
#569 = DIRECTION ( 'NONE',  ( 0.000000000000000000, 0.000000000000000000, 1.000000000000000000 ) ) ;
#570 = VECTOR ( 'NONE', #193, 1000.000000000000000 ) ;
#571 = CIRCLE ( 'NONE', #92, 5.000000000000004441 ) ;
#572 = AXIS2_PLACEMENT_3D ( 'NONE', #580, #749, #195 ) ;
#573 = CARTESIAN_POINT ( 'NONE',  ( -650.4168213242693355, 834.4822226882110954, 0.000000000000000000 ) ) ;
#574 = EDGE_CURVE ( 'NONE', #495, #96, #64, .T. ) ;
#575 = VERTEX_POINT ( 'NONE', #462 ) ;
#576 = DIRECTION ( 'NONE',  ( -0.000000000000000000, -0.000000000000000000, 1.000000000000000000 ) ) ;
#577 = DIRECTION ( 'NONE',  ( -0.000000000000000000, 0.000000000000000000, 1.000000000000000000 ) ) ;
#578 = CARTESIAN_POINT ( 'NONE',  ( -658.9168213242693355, 839.4822226882110954, 0.000000000000000000 ) ) ;
#579 = ORIENTED_EDGE ( 'NONE', *, *, #561, .T. ) ;
#580 = CARTESIAN_POINT ( 'NONE',  ( -629.3153872218880451, 839.4822226882110954, 5.000000000000000000 ) ) ;
#581 = LINE ( 'NONE', #196, #723 ) ;
#582 = DIRECTION ( 'NONE',  ( 0.000000000000000000, 0.000000000000000000, 1.000000000000000000 ) ) ;
#583 = ORIENTED_EDGE ( 'NONE', *, *, #421, .F. ) ;
#584 = DIRECTION ( 'NONE',  ( 0.000000000000000000, 0.000000000000000000, 1.000000000000000000 ) ) ;
#585 = DIRECTION ( 'NONE',  ( 1.000000000000000000, 0.000000000000000000, 0.000000000000000000 ) ) ;
#586 = EDGE_CURVE ( 'NONE', #726, #468, #526, .T. ) ;
#587 = PRODUCT_RELATED_PRODUCT_CATEGORY ( 'part', '', ( #536 ) ) ;
#588 = DIRECTION ( 'NONE',  ( -1.000000000000000000, -0.000000000000000000, -0.000000000000000000 ) ) ;
#589 = VECTOR ( 'NONE', #612, 1000.000000000000000 ) ;
#590 = ORIENTED_EDGE ( 'NONE', *, *, #39, .T. ) ;
#591 = LINE ( 'NONE', #365, #61 ) ;
#592 = FACE_BOUND ( 'NONE', #396, .T. ) ;
#593 = CARTESIAN_POINT ( 'NONE',  ( -657.4168213242693355, 839.4822226882110954, 0.000000000000000000 ) ) ;
#594 = ORIENTED_EDGE ( 'NONE', *, *, #227, .F. ) ;
#595 = LINE ( 'NONE', #453, #45 ) ;
#596 = DIRECTION ( 'NONE',  ( 0.000000000000000000, 0.000000000000000000, 1.000000000000000000 ) ) ;
#597 = DIRECTION ( 'NONE',  ( 0.000000000000000000, 0.000000000000000000, 1.000000000000000000 ) ) ;
#598 = EDGE_CURVE ( 'NONE', #68, #620, #11, .T. ) ;
#599 = EDGE_LOOP ( 'NONE', ( #807, #301 ) ) ;
#600 = ADVANCED_FACE ( 'NONE', ( #231 ), #214, .F. ) ;
#601 = CARTESIAN_POINT ( 'NONE',  ( -608.4168213242693355, 834.4822226882110954, 5.000000000000000000 ) ) ;
#602 = LINE ( 'NONE', #838, #185 ) ;
#603 = VECTOR ( 'NONE', #414, 1000.000000000000000 ) ;
#604 = VECTOR ( 'NONE', #476, 1000.000000000000000 ) ;
#605 = ORIENTED_EDGE ( 'NONE', *, *, #960, .T. ) ;
#606 = CIRCLE ( 'NONE', #449, 5.000000000000004441 ) ;
#607 = VECTOR ( 'NONE', #520, 1000.000000000000000 ) ;
#608 = CARTESIAN_POINT ( 'NONE',  ( -608.4168213242693355, 839.4822226882110954, 5.000000000000000000 ) ) ;
#609 = CARTESIAN_POINT ( 'NONE',  ( -615.2182604232865515, 834.4822226882110954, 0.000000000000000000 ) ) ;
#610 = ORIENTED_EDGE ( 'NONE', *, *, #253, .F. ) ;
#611 = ORIENTED_EDGE ( 'NONE', *, *, #854, .T. ) ;
#612 = DIRECTION ( 'NONE',  ( -1.000000000000000000, -0.000000000000000000, -0.000000000000000000 ) ) ;
#613 = EDGE_CURVE ( 'NONE', #916, #375, #639, .T. ) ;
#614 = CYLINDRICAL_SURFACE ( 'NONE', #331, 4.049999999999998046 ) ;
#615 = EDGE_LOOP ( 'NONE', ( #418, #208 ) ) ;
#616 = ORIENTED_EDGE ( 'NONE', *, *, #362, .T. ) ;
#617 = DIRECTION ( 'NONE',  ( -1.000000000000000000, -0.000000000000000000, -0.000000000000000000 ) ) ;
#618 = EDGE_CURVE ( 'NONE', #686, #26, #368, .T. ) ;
#619 = CARTESIAN_POINT ( 'NONE',  ( -657.4168213242693355, 839.4822226882110954, 5.000000000000000000 ) ) ;
#620 = VERTEX_POINT ( 'NONE', #840 ) ;
#621 = ORIENTED_EDGE ( 'NONE', *, *, #784, .F. ) ;
#622 = DIRECTION ( 'NONE',  ( 1.000000000000000000, 0.000000000000000000, 0.000000000000000000 ) ) ;
#623 = CIRCLE ( 'NONE', #153, 1.499999999999945821 ) ;
#624 = APPLICATION_CONTEXT ( 'automotive_design' ) ;
#625 = AXIS2_PLACEMENT_3D ( 'NONE', #403, #474, #241 ) ;
#626 = CARTESIAN_POINT ( 'NONE',  ( -629.3153872218880451, 839.4822226882110954, 0.000000000000000000 ) ) ;
#627 = ORIENTED_EDGE ( 'NONE', *, *, #393, .T. ) ;
#628 = EDGE_LOOP ( 'NONE', ( #563, #696, #325, #78, #107, #287, #930, #122, #853, #870, #1, #635, #17, #203, #850, #6, #718 ) ) ;
#629 = LINE ( 'NONE', #167, #931 ) ;
#630 = SURFACE_STYLE_FILL_AREA ( #15 ) ;
#631 = ORIENTED_EDGE ( 'NONE', *, *, #284, .T. ) ;
#632 = ADVANCED_FACE ( 'NONE', ( #531 ), #148, .T. ) ;
#633 = VERTEX_POINT ( 'NONE', #689 ) ;
#634 = CARTESIAN_POINT ( 'NONE',  ( -657.4168213242693355, 839.4822226882110954, 0.000000000000000000 ) ) ;
#635 = ORIENTED_EDGE ( 'NONE', *, *, #900, .T. ) ;
#636 = ORIENTED_EDGE ( 'NONE', *, *, #253, .T. ) ;
#637 = FACE_OUTER_BOUND ( 'NONE', #778, .T. ) ;
#638 = STYLED_ITEM ( 'NONE', ( #502 ), #409 ) ;
#639 = CIRCLE ( 'NONE', #351, 1.499999999999945821 ) ;
#640 = AXIS2_PLACEMENT_3D ( 'NONE', #43, #505, #892 ) ;
#641 = CARTESIAN_POINT ( 'NONE',  ( -657.4168213242693355, 831.9822226882110954, 5.000000000000000000 ) ) ;
#642 = ORIENTED_EDGE ( 'NONE', *, *, #80, .F. ) ;
#643 = CYLINDRICAL_SURFACE ( 'NONE', #557, 1.499999999999945821 ) ;
#644 = EDGE_CURVE ( 'NONE', #575, #306, #372, .T. ) ;
#645 = CARTESIAN_POINT ( 'NONE',  ( -603.4158213242692455, 831.9822226882110954, 1.497406626973837973 ) ) ;
#646 = EDGE_LOOP ( 'NONE', ( #358, #183, #702, #82 ) ) ;
#647 = LINE ( 'NONE', #496, #29 ) ;
#648 = DIRECTION ( 'NONE',  ( -0.000000000000000000, -0.000000000000000000, -1.000000000000000000 ) ) ;
#649 = ADVANCED_FACE ( 'NONE', ( #145 ), #459, .F. ) ;
#650 = LINE ( 'NONE', #801, #263 ) ;
#651 = ORIENTED_EDGE ( 'NONE', *, *, #66, .T. ) ;
#652 = DIRECTION ( 'NONE',  ( -0.000000000000000000, -0.000000000000000000, -1.000000000000000000 ) ) ;
#653 = CARTESIAN_POINT ( 'NONE',  ( -627.8175408737779435, 834.4822226882110954, -0.001000000000008806345 ) ) ;
#654 = AXIS2_PLACEMENT_3D ( 'NONE', #289, #835, #137 ) ;
#655 = AXIS2_PLACEMENT_3D ( 'NONE', #946, #407, #719 ) ;
#656 = DIRECTION ( 'NONE',  ( 0.000000000000000000, 0.000000000000000000, -1.000000000000000000 ) ) ;
#657 = ORIENTED_EDGE ( 'NONE', *, *, #958, .F. ) ;
#658 = FACE_OUTER_BOUND ( 'NONE', #969, .T. ) ;
#659 = LINE ( 'NONE', #968, #10 ) ;
#660 = VERTEX_POINT ( 'NONE', #444 ) ;
#661 = CARTESIAN_POINT ( 'NONE',  ( -657.4168213242693355, 839.4822226882110954, 5.000000000000000000 ) ) ;
#662 = EDGE_CURVE ( 'NONE', #936, #500, #775, .T. ) ;
#663 = DIRECTION ( 'NONE',  ( 1.000000000000000000, -0.000000000000000000, -0.000000000000000000 ) ) ;
#664 = ORIENTED_EDGE ( 'NONE', *, *, #798, .F. ) ;
#665 = DIRECTION ( 'NONE',  ( 0.000000000000000000, 0.000000000000000000, 1.000000000000000000 ) ) ;
#666 = CARTESIAN_POINT ( 'NONE',  ( -662.4168213242693355, 839.4822226882110954, 0.000000000000000000 ) ) ;
#667 = AXIS2_PLACEMENT_3D ( 'NONE', #725, #343, #186 ) ;
#668 =( GEOMETRIC_REPRESENTATION_CONTEXT ( 3 ) GLOBAL_UNCERTAINTY_ASSIGNED_CONTEXT ( ( #340 ) ) GLOBAL_UNIT_ASSIGNED_CONTEXT ( ( #210, #120, #126 ) ) REPRESENTATION_CONTEXT ( 'NONE', 'WORKASPACE' ) );
#669 = DIRECTION ( 'NONE',  ( 1.000000000000000000, 0.000000000000000000, -0.000000000000000000 ) ) ;
#670 = CIRCLE ( 'NONE', #655, 1.499999999999945821 ) ;
#671 = ORIENTED_EDGE ( 'NONE', *, *, #65, .F. ) ;
#672 = CARTESIAN_POINT ( 'NONE',  ( 0.000000000000000000, 0.000000000000000000, 0.000000000000000000 ) ) ;
#673 = CARTESIAN_POINT ( 'NONE',  ( -615.2182604232865515, 834.4822226882110954, 0.000000000000000000 ) ) ;
#674 = EDGE_CURVE ( 'NONE', #302, #213, #308, .T. ) ;
#675 = CARTESIAN_POINT ( 'NONE',  ( -615.2182604232865515, 834.4822226882110954, -0.001000000000008806345 ) ) ;
#676 = VERTEX_POINT ( 'NONE', #454 ) ;
#677 = LINE ( 'NONE', #827, #541 ) ;
#678 = CARTESIAN_POINT ( 'NONE',  ( -637.8175408737779435, 831.9822226882109817, 0.000000000000000000 ) ) ;
#679 = EDGE_CURVE ( 'NONE', #375, #921, #677, .T. ) ;
#680 = ORIENTED_EDGE ( 'NONE', *, *, #515, .F. ) ;
#681 = DIRECTION ( 'NONE',  ( 1.000000000000000000, 0.000000000000000000, 0.000000000000000000 ) ) ;
#682 = ORIENTED_EDGE ( 'NONE', *, *, #422, .F. ) ;
#683 = DIRECTION ( 'NONE',  ( -0.000000000000000000, -0.000000000000000000, -1.000000000000000000 ) ) ;
#684 = SURFACE_STYLE_USAGE ( .BOTH. , #243 ) ;
#685 = AXIS2_PLACEMENT_3D ( 'NONE', #869, #734, #656 ) ;
#686 = VERTEX_POINT ( 'NONE', #986 ) ;
#687 = SHAPE_DEFINITION_REPRESENTATION ( #169, #733 ) ;
#688 = ORIENTED_EDGE ( 'NONE', *, *, #977, .F. ) ;
#689 = CARTESIAN_POINT ( 'NONE',  ( -657.4168213242693355, 831.9822226882109817, 0.000000000000000000 ) ) ;
#690 = FACE_OUTER_BOUND ( 'NONE', #147, .T. ) ;
#691 = CARTESIAN_POINT ( 'NONE',  ( -603.4158213242692455, 831.9822226882110954, 3.502593373026162027 ) ) ;
#692 = ORIENTED_EDGE ( 'NONE', *, *, #586, .T. ) ;
#693 = DIRECTION ( 'NONE',  ( -0.000000000000000000, -0.000000000000000000, -1.000000000000000000 ) ) ;
#694 = EDGE_CURVE ( 'NONE', #406, #360, #69, .T. ) ;
#695 = LINE ( 'NONE', #857, #124 ) ;
#696 = ORIENTED_EDGE ( 'NONE', *, *, #77, .F. ) ;
#697 = ORIENTED_EDGE ( 'NONE', *, *, #285, .T. ) ;
#698 = CARTESIAN_POINT ( 'NONE',  ( -637.8175408737779435, 831.9822226882110954, 2.500000000000000000 ) ) ;
#699 = DIRECTION ( 'NONE',  ( -0.000000000000000000, -0.000000000000000000, -1.000000000000000000 ) ) ;
#700 = VERTEX_POINT ( 'NONE', #18 ) ;
#701 = AXIS2_PLACEMENT_3D ( 'NONE', #810, #121, #117 ) ;
#702 = ORIENTED_EDGE ( 'NONE', *, *, #3, .F. ) ;
#703 = DIRECTION ( 'NONE',  ( 1.000000000000000000, 0.000000000000000000, 0.000000000000000000 ) ) ;
#704 = CIRCLE ( 'NONE', #191, 1.499999999999945821 ) ;
#705 = VECTOR ( 'NONE', #878, 1000.000000000000000 ) ;
#706 = FILL_AREA_STYLE_COLOUR ( '', #74 ) ;
#707 = EDGE_CURVE ( 'NONE', #816, #468, #332, .T. ) ;
#708 = EDGE_CURVE ( 'NONE', #375, #916, #141, .T. ) ;
#709 = ORIENTED_EDGE ( 'NONE', *, *, #988, .F. ) ;
#710 = ORIENTED_EDGE ( 'NONE', *, *, #170, .F. ) ;
#711 = LINE ( 'NONE', #555, #109 ) ;
#712 = CARTESIAN_POINT ( 'NONE',  ( -650.4168213242693355, 834.4822226882110954, -0.001000000000008806345 ) ) ;
#713 = VERTEX_POINT ( 'NONE', #938 ) ;
#714 = ORIENTED_EDGE ( 'NONE', *, *, #662, .T. ) ;
#715 = CARTESIAN_POINT ( 'NONE',  ( -608.4168213242693355, 831.9822226882110954, 2.500000000000000000 ) ) ;
#716 = FACE_OUTER_BOUND ( 'NONE', #735, .T. ) ;
#717 = CIRCLE ( 'NONE', #667, 1.499999999999945821 ) ;
#718 = ORIENTED_EDGE ( 'NONE', *, *, #574, .F. ) ;
#719 = DIRECTION ( 'NONE',  ( 1.000000000000000000, 0.000000000000000000, 0.000000000000000000 ) ) ;
#720 = EDGE_CURVE ( 'NONE', #468, #816, #848, .T. ) ;
#721 = EDGE_CURVE ( 'NONE', #76, #752, #704, .T. ) ;
#722 = AXIS2_PLACEMENT_3D ( 'NONE', #619, #919, #842 ) ;
#723 = VECTOR ( 'NONE', #881, 1000.000000000000000 ) ;
#724 = CIRCLE ( 'NONE', #334, 5.000000000000004441 ) ;
#725 = CARTESIAN_POINT ( 'NONE',  ( -657.4168213242693355, 839.4822226882110954, 5.000000000000000000 ) ) ;
#726 = VERTEX_POINT ( 'NONE', #312 ) ;
#727 = CYLINDRICAL_SURFACE ( 'NONE', #481, 5.000000000000004441 ) ;
#728 = EDGE_CURVE ( 'NONE', #277, #36, #834, .T. ) ;
#729 = DIRECTION ( 'NONE',  ( 1.000000000000000000, 0.000000000000000000, 0.000000000000000000 ) ) ;
#730 = ORIENTED_EDGE ( 'NONE', *, *, #39, .F. ) ;
#731 = CARTESIAN_POINT ( 'NONE',  ( -603.4158213242692455, 831.9822226882110954, 3.502593373026162027 ) ) ;
#732 = CYLINDRICAL_SURFACE ( 'NONE', #266, 5.000000000000004441 ) ;
#733 = ADVANCED_BREP_SHAPE_REPRESENTATION ( 'Holder1', ( #409, #525 ), #433 ) ;
#734 = DIRECTION ( 'NONE',  ( 1.000000000000000000, -0.000000000000000000, -0.000000000000000000 ) ) ;
#735 = EDGE_LOOP ( 'NONE', ( #859, #657, #19, #651 ) ) ;
#736 = CARTESIAN_POINT ( 'NONE',  ( -603.4158213242692455, 831.9822226882110954, 2.500000000000039524 ) ) ;
#737 = DIRECTION ( 'NONE',  ( 0.000000000000000000, -0.000000000000000000, 1.000000000000000000 ) ) ;
#738 = CIRCLE ( 'NONE', #187, 1.002593373026162027 ) ;
#739 = VECTOR ( 'NONE', #385, 1000.000000000000000 ) ;
#740 = VECTOR ( 'NONE', #419, 1000.000000000000000 ) ;
#741 = DIRECTION ( 'NONE',  ( 0.000000000000000000, 0.000000000000000000, 1.000000000000000000 ) ) ;
#742 = ADVANCED_FACE ( 'NONE', ( #860 ), #397, .F. ) ;
#743 = ORIENTED_EDGE ( 'NONE', *, *, #957, .F. ) ;
#744 = FACE_OUTER_BOUND ( 'NONE', #553, .T. ) ;
#745 = APPLICATION_CONTEXT ( 'automotive_design' ) ;
#746 = FACE_BOUND ( 'NONE', #599, .T. ) ;
#747 = PLANE ( 'NONE',  #929 ) ;
#748 = VERTEX_POINT ( 'NONE', #951 ) ;
#749 = DIRECTION ( 'NONE',  ( 0.000000000000000000, -1.000000000000000000, 0.000000000000000000 ) ) ;
#750 = PLANE ( 'NONE',  #383 ) ;
#751 = LINE ( 'NONE', #518, #944 ) ;
#752 = VERTEX_POINT ( 'NONE', #551 ) ;
#753 = DIRECTION ( 'NONE',  ( -1.000000000000000000, -0.000000000000000000, -0.000000000000000000 ) ) ;
#754 = EDGE_CURVE ( 'NONE', #748, #660, #711, .T. ) ;
#755 = AXIS2_PLACEMENT_3D ( 'NONE', #558, #499, #105 ) ;
#756 = VECTOR ( 'NONE', #435, 1000.000000000000000 ) ;
#757 = DIRECTION ( 'NONE',  ( -0.000000000000000000, -0.000000000000000000, -1.000000000000000000 ) ) ;
#758 = AXIS2_PLACEMENT_3D ( 'NONE', #342, #279, #893 ) ;
#759 = VERTEX_POINT ( 'NONE', #14 ) ;
#760 = CARTESIAN_POINT ( 'NONE',  ( -657.4168213242693355, 831.9822226882110954, 2.500000000000000000 ) ) ;
#761 = ADVANCED_FACE ( 'NONE', ( #637 ), #104, .F. ) ;
#762 = CARTESIAN_POINT ( 'NONE',  ( -657.4168213242693355, 834.4822226882110954, 5.000000000000000000 ) ) ;
#763 = EDGE_LOOP ( 'NONE', ( #789, #100, #782, #709 ) ) ;
#764 = DIRECTION ( 'NONE',  ( 0.000000000000000000, 0.000000000000000000, 1.000000000000000000 ) ) ;
#765 = DIRECTION ( 'NONE',  ( 0.000000000000000000, -0.000000000000000000, -1.000000000000000000 ) ) ;
#766 = ORIENTED_EDGE ( 'NONE', *, *, #905, .T. ) ;
#767 =( NAMED_UNIT ( * ) PLANE_ANGLE_UNIT ( ) SI_UNIT ( $, .RADIAN. ) );
#768 = LINE ( 'NONE', #908, #978 ) ;
#769 = VECTOR ( 'NONE', #489, 1000.000000000000000 ) ;
#770 = LINE ( 'NONE', #75, #604 ) ;
#771 = AXIS2_PLACEMENT_3D ( 'NONE', #441, #62, #904 ) ;
#772 = DIRECTION ( 'NONE',  ( 0.000000000000000000, 0.000000000000000000, 1.000000000000000000 ) ) ;
#773 = APPLICATION_PROTOCOL_DEFINITION ( 'draft international standard', 'automotive_design', 1998, #745 ) ;
#774 = AXIS2_PLACEMENT_3D ( 'NONE', #2, #922, #521 ) ;
#775 = LINE ( 'NONE', #831, #28 ) ;
#776 = LINE ( 'NONE', #934, #173 ) ;
#777 = LINE ( 'NONE', #924, #833 ) ;
#778 = EDGE_LOOP ( 'NONE', ( #671, #130, #13, #51 ) ) ;
#779 = CARTESIAN_POINT ( 'NONE',  ( -657.4168213242693355, 839.4822226882110954, 5.000000000000000000 ) ) ;
#780 = LINE ( 'NONE', #86, #739 ) ;
#781 = EDGE_LOOP ( 'NONE', ( #664, #504, #787, #680 ) ) ;
#782 = ORIENTED_EDGE ( 'NONE', *, *, #337, .T. ) ;
#783 = DIRECTION ( 'NONE',  ( 1.000000000000000000, 0.000000000000000000, 0.000000000000000000 ) ) ;
#784 = EDGE_CURVE ( 'NONE', #165, #921, #670, .T. ) ;
#785 = ADVANCED_FACE ( 'NONE', ( #159, #871 ), #336, .F. ) ;
#786 = CARTESIAN_POINT ( 'NONE',  ( -627.8175408737779435, 834.4822226882110954, 5.000000000000000000 ) ) ;
#787 = ORIENTED_EDGE ( 'NONE', *, *, #140, .T. ) ;
#788 = VECTOR ( 'NONE', #588, 1000.000000000000000 ) ;
#789 = ORIENTED_EDGE ( 'NONE', *, *, #304, .T. ) ;
#790 = LINE ( 'NONE', #808, #979 ) ;
#791 = AXIS2_PLACEMENT_3D ( 'NONE', #698, #703, #252 ) ;
#792 = AXIS2_PLACEMENT_3D ( 'NONE', #438, #966, #564 ) ;
#793 = CARTESIAN_POINT ( 'NONE',  ( -627.8175408737779435, 831.9822226882110954, 2.500000000000000000 ) ) ;
#794 = LINE ( 'NONE', #691, #265 ) ;
#795 = EDGE_LOOP ( 'NONE', ( #83, #355, #179, #855 ) ) ;
#796 = DIRECTION ( 'NONE',  ( 0.000000000000000000, 0.000000000000000000, 1.000000000000000000 ) ) ;
#797 = DIRECTION ( 'NONE',  ( 0.000000000000000000, -1.000000000000000000, 0.000000000000000000 ) ) ;
#798 = EDGE_CURVE ( 'NONE', #495, #395, #233, .T. ) ;
#799 = EDGE_LOOP ( 'NONE', ( #162, #511, #328, #225 ) ) ;
#800 = FACE_OUTER_BOUND ( 'NONE', #940, .T. ) ;
#801 = CARTESIAN_POINT ( 'NONE',  ( -657.4168213242693355, 834.4822226882110954, 5.000000000000000000 ) ) ;
#802 = EDGE_CURVE ( 'NONE', #88, #633, #629, .T. ) ;
#803 = ORIENTED_EDGE ( 'NONE', *, *, #254, .T. ) ;
#804 = DIRECTION ( 'NONE',  ( 0.000000000000000000, 0.000000000000000000, 1.000000000000000000 ) ) ;
#805 = AXIS2_PLACEMENT_3D ( 'NONE', #675, #894, #146 ) ;
#806 = DIRECTION ( 'NONE',  ( -1.000000000000000000, 0.000000000000000000, 0.000000000000000000 ) ) ;
#807 = ORIENTED_EDGE ( 'NONE', *, *, #958, .T. ) ;
#808 = CARTESIAN_POINT ( 'NONE',  ( -613.4168213242693355, 839.4822226882110954, 5.000000000000000000 ) ) ;
#809 = DIRECTION ( 'NONE',  ( -1.000000000000000000, 0.000000000000000000, 0.000000000000000000 ) ) ;
#810 = CARTESIAN_POINT ( 'NONE',  ( -603.4158213242692455, 831.9822226882110954, 2.500000000000000000 ) ) ;
#811 = ORIENTED_EDGE ( 'NONE', *, *, #304, .F. ) ;
#812 = FACE_OUTER_BOUND ( 'NONE', #877, .T. ) ;
#813 = FACE_OUTER_BOUND ( 'NONE', #795, .T. ) ;
#814 = ADVANCED_FACE ( 'NONE', ( #856 ), #643, .F. ) ;
#815 = CYLINDRICAL_SURFACE ( 'NONE', #540, 2.500000000000048406 ) ;
#816 = VERTEX_POINT ( 'NONE', #163 ) ;
#817 = DIRECTION ( 'NONE',  ( 0.000000000000000000, 0.000000000000000000, -1.000000000000000000 ) ) ;
#818 = CIRCLE ( 'NONE', #758, 1.499999999999945821 ) ;
#819 = AXIS2_PLACEMENT_3D ( 'NONE', #512, #652, #114 ) ;
#820 = CYLINDRICAL_SURFACE ( 'NONE', #654, 5.000000000000004441 ) ;
#821 = ORIENTED_EDGE ( 'NONE', *, *, #720, .T. ) ;
#822 = CARTESIAN_POINT ( 'NONE',  ( -615.2182604232865515, 834.4822226882110954, 5.000000000000000000 ) ) ;
#823 = CARTESIAN_POINT ( 'NONE',  ( -615.2182604232865515, 834.4822226882110954, -0.001000000000008806345 ) ) ;
#824 = FACE_OUTER_BOUND ( 'NONE', #628, .T. ) ;
#825 = EDGE_CURVE ( 'NONE', #271, #487, #174, .T. ) ;
#826 = ORIENTED_EDGE ( 'NONE', *, *, #802, .F. ) ;
#827 = CARTESIAN_POINT ( 'NONE',  ( -609.9168213242692218, 839.4822226882110954, 5.000000000000000000 ) ) ;
#828 = LINE ( 'NONE', #973, #879 ) ;
#829 = ORIENTED_EDGE ( 'NONE', *, *, #618, .T. ) ;
#830 = ADVANCED_FACE ( 'NONE', ( #800 ), #180, .F. ) ;
#831 = CARTESIAN_POINT ( 'NONE',  ( -662.4168213242693355, 839.4822226882110954, 5.000000000000000000 ) ) ;
#832 = AXIS2_PLACEMENT_3D ( 'NONE', #873, #50, #363 ) ;
#833 = VECTOR ( 'NONE', #229, 1000.000000000000000 ) ;
#834 = CIRCLE ( 'NONE', #625, 2.500000000000048406 ) ;
#835 = DIRECTION ( 'NONE',  ( -0.000000000000000000, -0.000000000000000000, -1.000000000000000000 ) ) ;
#836 = ORIENTED_EDGE ( 'NONE', *, *, #928, .F. ) ;
#837 = DIRECTION ( 'NONE',  ( -1.000000000000000000, 0.000000000000000000, 0.000000000000000000 ) ) ;
#838 = CARTESIAN_POINT ( 'NONE',  ( -637.8175408737779435, 834.4822226882110954, 0.000000000000000000 ) ) ;
#839 = ORIENTED_EDGE ( 'NONE', *, *, #350, .F. ) ;
#840 = CARTESIAN_POINT ( 'NONE',  ( -608.4168213242693355, 831.9822226882110954, 5.000000000000000000 ) ) ;
#841 = EDGE_CURVE ( 'NONE', #686, #406, #790, .T. ) ;
#842 = DIRECTION ( 'NONE',  ( 1.000000000000000000, 0.000000000000000000, 0.000000000000000000 ) ) ;
#843 = ORIENTED_EDGE ( 'NONE', *, *, #258, .F. ) ;
#844 = VERTEX_POINT ( 'NONE', #875 ) ;
#845 = CARTESIAN_POINT ( 'NONE',  ( -608.4168213242693355, 839.4822226882110954, 5.000000000000000000 ) ) ;
#846 = CARTESIAN_POINT ( 'NONE',  ( -655.9168213242694492, 839.4822226882110954, 5.000000000000000000 ) ) ;
#847 = DIRECTION ( 'NONE',  ( -1.000000000000000000, -0.000000000000000000, -0.000000000000000000 ) ) ;
#848 = CIRCLE ( 'NONE', #791, 1.002593373026162027 ) ;
#849 = AXIS2_PLACEMENT_3D ( 'NONE', #341, #886, #584 ) ;
#850 = ORIENTED_EDGE ( 'NONE', *, *, #319, .T. ) ;
#851 = DIRECTION ( 'NONE',  ( -1.000000000000000000, 0.000000000000000000, 0.000000000000000000 ) ) ;
#852 = DIRECTION ( 'NONE',  ( -0.000000000000000000, -0.000000000000000000, -1.000000000000000000 ) ) ;
#853 = ORIENTED_EDGE ( 'NONE', *, *, #201, .T. ) ;
#854 = EDGE_CURVE ( 'NONE', #620, #995, #272, .T. ) ;
#855 = ORIENTED_EDGE ( 'NONE', *, *, #182, .F. ) ;
#856 = FACE_OUTER_BOUND ( 'NONE', #244, .T. ) ;
#857 = CARTESIAN_POINT ( 'NONE',  ( -603.4158213242692455, 831.9822226882109817, 0.000000000000000000 ) ) ;
#858 = ORIENTED_EDGE ( 'NONE', *, *, #53, .F. ) ;
#859 = ORIENTED_EDGE ( 'NONE', *, *, #34, .F. ) ;
#860 = FACE_OUTER_BOUND ( 'NONE', #216, .T. ) ;
#861 = ADVANCED_FACE ( 'NONE', ( #812 ), #432, .F. ) ;
#862 = LINE ( 'NONE', #548, #993 ) ;
#863 = CARTESIAN_POINT ( 'NONE',  ( -608.4168213242693355, 839.4822226882110954, 5.000000000000000000 ) ) ;
#864 = VECTOR ( 'NONE', #797, 1000.000000000000000 ) ;
#865 = EDGE_LOOP ( 'NONE', ( #710, #239 ) ) ;
#866 = CARTESIAN_POINT ( 'NONE',  ( -637.8175408737779435, 831.9822226882110954, 2.500000000000000000 ) ) ;
#867 = VECTOR ( 'NONE', #753, 1000.000000000000000 ) ;
#868 = CIRCLE ( 'NONE', #819, 4.049999999999998046 ) ;
#869 = CARTESIAN_POINT ( 'NONE',  ( -657.4168213242693355, 831.9822226882110954, 2.500000000000039524 ) ) ;
#870 = ORIENTED_EDGE ( 'NONE', *, *, #3, .T. ) ;
#871 = FACE_OUTER_BOUND ( 'NONE', #799, .T. ) ;
#872 = ADVANCED_FACE ( 'NONE', ( #744 ), #119, .F. ) ;
#873 = CARTESIAN_POINT ( 'NONE',  ( -627.8175408737779435, 831.9822226882110954, 2.500000000000039524 ) ) ;
#874 = ORIENTED_EDGE ( 'NONE', *, *, #708, .T. ) ;
#875 = CARTESIAN_POINT ( 'NONE',  ( -627.8175408737779435, 831.9822226882109817, 0.000000000000000000 ) ) ;
#876 = DIRECTION ( 'NONE',  ( 0.000000000000000000, 1.000000000000000000, 0.000000000000000000 ) ) ;
#877 = EDGE_LOOP ( 'NONE', ( #430, #452, #387, #829 ) ) ;
#878 = DIRECTION ( 'NONE',  ( -1.000000000000000000, -0.000000000000000000, -0.000000000000000000 ) ) ;
#879 = VECTOR ( 'NONE', #514, 1000.000000000000000 ) ;
#880 = AXIS2_PLACEMENT_3D ( 'NONE', #223, #381, #596 ) ;
#881 = DIRECTION ( 'NONE',  ( -0.000000000000000000, -0.000000000000000000, -1.000000000000000000 ) ) ;
#882 = AXIS2_PLACEMENT_3D ( 'NONE', #823, #889, #737 ) ;
#883 = AXIS2_PLACEMENT_3D ( 'NONE', #84, #488, #89 ) ;
#884 = DIRECTION ( 'NONE',  ( -0.000000000000000000, -0.000000000000000000, -1.000000000000000000 ) ) ;
#885 = ORIENTED_EDGE ( 'NONE', *, *, #34, .T. ) ;
#886 = DIRECTION ( 'NONE',  ( -1.000000000000000000, -0.000000000000000000, -0.000000000000000000 ) ) ;
#887 = EDGE_CURVE ( 'NONE', #500, #88, #724, .T. ) ;
#888 = EDGE_CURVE ( 'NONE', #554, #166, #425, .T. ) ;
#889 = DIRECTION ( 'NONE',  ( 0.000000000000000000, 1.000000000000000000, 0.000000000000000000 ) ) ;
#890 = FACE_BOUND ( 'NONE', #240, .T. ) ;
#891 = ORIENTED_EDGE ( 'NONE', *, *, #290, .T. ) ;
#892 = DIRECTION ( 'NONE',  ( 0.000000000000000000, 0.000000000000000000, 1.000000000000000000 ) ) ;
#893 = DIRECTION ( 'NONE',  ( 1.000000000000000000, 0.000000000000000000, 0.000000000000000000 ) ) ;
#894 = DIRECTION ( 'NONE',  ( 1.000000000000000000, 0.000000000000000000, 0.000000000000000000 ) ) ;
#895 = ORIENTED_EDGE ( 'NONE', *, *, #182, .T. ) ;
#896 = CARTESIAN_POINT ( 'NONE',  ( -606.9168213242693355, 839.4822226882110954, 5.000000000000000000 ) ) ;
#897 = PRESENTATION_LAYER_ASSIGNMENT (  '', '', ( #638 ) ) ;
#898 = AXIS2_PLACEMENT_3D ( 'NONE', #653, #971, #577 ) ;
#899 = EDGE_CURVE ( 'NONE', #291, #920, #384, .T. ) ;
#900 = EDGE_CURVE ( 'NONE', #406, #302, #868, .T. ) ;
#901 = PLANE ( 'NONE',  #805 ) ;
#902 = ORIENTED_EDGE ( 'NONE', *, *, #258, .T. ) ;
#903 = CARTESIAN_POINT ( 'NONE',  ( -657.4168213242693355, 839.4822226882110954, 0.000000000000000000 ) ) ;
#904 = DIRECTION ( 'NONE',  ( 1.000000000000000000, 0.000000000000000000, 0.000000000000000000 ) ) ;
#905 = EDGE_CURVE ( 'NONE', #103, #76, #647, .T. ) ;
#906 = EDGE_LOOP ( 'NONE', ( #483, #843, #477, #307 ) ) ;
#907 = PRODUCT_CONTEXT ( 'NONE', #745, 'mechanical' ) ;
#908 = CARTESIAN_POINT ( 'NONE',  ( -603.4158213242692455, 831.9822226882109817, 0.000000000000000000 ) ) ;
#909 = FACE_OUTER_BOUND ( 'NONE', #251, .T. ) ;
#910 = ORIENTED_EDGE ( 'NONE', *, *, #960, .F. ) ;
#911 = DIRECTION ( 'NONE',  ( 0.000000000000000000, 0.000000000000000000, 1.000000000000000000 ) ) ;
#912 = VECTOR ( 'NONE', #884, 1000.000000000000000 ) ;
#913 = AXIS2_PLACEMENT_3D ( 'NONE', #246, #485, #479 ) ;
#914 = FACE_OUTER_BOUND ( 'NONE', #763, .T. ) ;
#915 = AXIS2_PLACEMENT_3D ( 'NONE', #359, #131, #817 ) ;
#916 = VERTEX_POINT ( 'NONE', #896 ) ;
#917 = DIRECTION ( 'NONE',  ( 1.000000000000000000, 0.000000000000000000, 0.000000000000000000 ) ) ;
#918 = ADVANCED_FACE ( 'NONE', ( #184 ), #353, .T. ) ;
#919 = DIRECTION ( 'NONE',  ( 0.000000000000000000, 0.000000000000000000, 1.000000000000000000 ) ) ;
#920 = VERTEX_POINT ( 'NONE', #199 ) ;
#921 = VERTEX_POINT ( 'NONE', #123 ) ;
#922 = DIRECTION ( 'NONE',  ( -1.000000000000000000, -0.000000000000000000, -0.000000000000000000 ) ) ;
#923 = FACE_BOUND ( 'NONE', #473, .T. ) ;
#924 = CARTESIAN_POINT ( 'NONE',  ( -642.9168213242693355, 839.4822226882110954, 0.000000000000000000 ) ) ;
#925 = ORIENTED_EDGE ( 'NONE', *, *, #905, .F. ) ;
#926 = CARTESIAN_POINT ( 'NONE',  ( -637.8175408737779435, 834.4822226882110954, 0.000000000000000000 ) ) ;
#927 = CARTESIAN_POINT ( 'NONE',  ( -632.8175408737779435, 841.5162875344128679, 0.000000000000000000 ) ) ;
#928 = EDGE_CURVE ( 'NONE', #71, #26, #127, .T. ) ;
#929 = AXIS2_PLACEMENT_3D ( 'NONE', #762, #215, #293 ) ;
#930 = ORIENTED_EDGE ( 'NONE', *, *, #337, .F. ) ;
#931 = VECTOR ( 'NONE', #547, 1000.000000000000000 ) ;
#932 = ORIENTED_EDGE ( 'NONE', *, *, #679, .T. ) ;
#933 = CARTESIAN_POINT ( 'NONE',  ( -603.4158213242692455, 831.9822226882110954, 2.500000000000000000 ) ) ;
#934 = CARTESIAN_POINT ( 'NONE',  ( -608.4168213242693355, 834.4822226882110954, 5.000000000000000000 ) ) ;
#935 = ADVANCED_FACE ( 'NONE', ( #658 ), #204, .F. ) ;
#936 = VERTEX_POINT ( 'NONE', #416 ) ;
#937 = ORIENTED_EDGE ( 'NONE', *, *, #254, .F. ) ;
#938 = CARTESIAN_POINT ( 'NONE',  ( -637.8175408737779435, 834.4822226882110954, 5.000000000000000000 ) ) ;
#939 = LINE ( 'NONE', #309, #219 ) ;
#940 = EDGE_LOOP ( 'NONE', ( #839, #885, #579, #484 ) ) ;
#941 = ORIENTED_EDGE ( 'NONE', *, *, #957, .T. ) ;
#942 = DIRECTION ( 'NONE',  ( 0.000000000000000000, 0.000000000000000000, 1.000000000000000000 ) ) ;
#943 = CARTESIAN_POINT ( 'NONE',  ( -650.4168213242693355, 834.4822226882110954, 5.000000000000000000 ) ) ;
#944 = VECTOR ( 'NONE', #757, 1000.000000000000000 ) ;
#945 = EDGE_LOOP ( 'NONE', ( #236, #310, #209, #402 ) ) ;
#946 = CARTESIAN_POINT ( 'NONE',  ( -608.4168213242693355, 839.4822226882110954, 0.000000000000000000 ) ) ;
#947 = AXIS2_PLACEMENT_3D ( 'NONE', #49, #274, #283 ) ;
#948 = ADVANCED_FACE ( 'NONE', ( #108 ), #727, .T. ) ;
#949 = FACE_OUTER_BOUND ( 'NONE', #945, .T. ) ;
#950 = ORIENTED_EDGE ( 'NONE', *, *, #110, .F. ) ;
#951 = CARTESIAN_POINT ( 'NONE',  ( -650.4168213242693355, 831.9822226882110954, 3.502593373026162027 ) ) ;
#952 = CARTESIAN_POINT ( 'NONE',  ( -603.4158213242692455, 831.9822226882110954, 2.500000000000039524 ) ) ;
#953 = ORIENTED_EDGE ( 'NONE', *, *, #443, .F. ) ;
#954 = LINE ( 'NONE', #731, #705 ) ;
#955 = DIRECTION ( 'NONE',  ( -1.000000000000000000, 0.000000000000000000, 0.000000000000000000 ) ) ;
#956 = LINE ( 'NONE', #645, #769 ) ;
#957 = EDGE_CURVE ( 'NONE', #94, #676, #190, .T. ) ;
#958 = EDGE_CURVE ( 'NONE', #748, #245, #250, .T. ) ;
#959 = EDGE_LOOP ( 'NONE', ( #631, #176, #546, #937 ) ) ;
#960 = EDGE_CURVE ( 'NONE', #759, #816, #954, .T. ) ;
#961 = DIRECTION ( 'NONE',  ( 0.000000000000000000, 0.000000000000000000, 1.000000000000000000 ) ) ;
#962 = CIRCLE ( 'NONE', #832, 2.500000000000048406 ) ;
#963 = AXIS2_PLACEMENT_3D ( 'NONE', #933, #237, #942 ) ;
#964 = DIRECTION ( 'NONE',  ( 0.000000000000000000, -1.000000000000000000, 0.000000000000000000 ) ) ;
#965 = ORIENTED_EDGE ( 'NONE', *, *, #378, .T. ) ;
#966 = DIRECTION ( 'NONE',  ( -0.000000000000000000, -0.000000000000000000, -1.000000000000000000 ) ) ;
#967 = FACE_OUTER_BOUND ( 'NONE', #321, .T. ) ;
#968 = CARTESIAN_POINT ( 'NONE',  ( -627.8175408737779435, 834.4822226882110954, 0.000000000000000000 ) ) ;
#969 = EDGE_LOOP ( 'NONE', ( #379, #99, #766, #461 ) ) ;
#970 = DIRECTION ( 'NONE',  ( -0.000000000000000000, -0.000000000000000000, -1.000000000000000000 ) ) ;
#971 = DIRECTION ( 'NONE',  ( -1.000000000000000000, 0.000000000000000000, -0.000000000000000000 ) ) ;
#972 = EDGE_CURVE ( 'NONE', #36, #713, #261, .T. ) ;
#973 = CARTESIAN_POINT ( 'NONE',  ( -627.8175408737779435, 834.4822226882110954, -0.001000000000008806345 ) ) ;
#974 = ORIENTED_EDGE ( 'NONE', *, *, #708, .F. ) ;
#975 = CYLINDRICAL_SURFACE ( 'NONE', #493, 1.499999999999945821 ) ;
#976 = CIRCLE ( 'NONE', #413, 1.002593373026162027 ) ;
#977 = EDGE_CURVE ( 'NONE', #26, #360, #595, .T. ) ;
#978 = VECTOR ( 'NONE', #296, 1000.000000000000000 ) ;
#979 = VECTOR ( 'NONE', #501, 1000.000000000000000 ) ;
#980 = FACE_OUTER_BOUND ( 'NONE', #981, .T. ) ;
#981 = EDGE_LOOP ( 'NONE', ( #311, #642, #550, #902 ) ) ;
#982 = CARTESIAN_POINT ( 'NONE',  ( -608.4168213242693355, 831.9822226882110954, 2.500000000000039524 ) ) ;
#983 = DIRECTION ( 'NONE',  ( 0.000000000000000000, 0.000000000000000000, 1.000000000000000000 ) ) ;
#984 = VERTEX_POINT ( 'NONE', #458 ) ;
#985 = APPLICATION_PROTOCOL_DEFINITION ( 'draft international standard', 'automotive_design', 1998, #624 ) ;
#986 = CARTESIAN_POINT ( 'NONE',  ( -613.4168213242693355, 839.4822226882110954, 5.000000000000000000 ) ) ;
#987 = FACE_BOUND ( 'NONE', #566, .T. ) ;
#988 = EDGE_CURVE ( 'NONE', #306, #554, #591, .T. ) ;
#989 = ORIENTED_EDGE ( 'NONE', *, *, #168, .T. ) ;
#990 = DIRECTION ( 'NONE',  ( -1.000000000000000000, -0.000000000000000000, -0.000000000000000000 ) ) ;
#991 = ORIENTED_EDGE ( 'NONE', *, *, #65, .T. ) ;
#992 = CARTESIAN_POINT ( 'NONE',  ( -603.4158213242692455, 831.9822226882110954, 1.497406626973837973 ) ) ;
#993 = VECTOR ( 'NONE', #699, 1000.000000000000000 ) ;
#994 = CARTESIAN_POINT ( 'NONE',  ( -636.3196945256678418, 839.4822226882110954, 5.000000000000000000 ) ) ;
#995 = VERTEX_POINT ( 'NONE', #135 ) ;
#996 = DIRECTION ( 'NONE',  ( 0.000000000000000000, 0.000000000000000000, 1.000000000000000000 ) ) ;
#997 = ORIENTED_EDGE ( 'NONE', *, *, #802, .T. ) ;
#998 = CARTESIAN_POINT ( 'NONE',  ( -657.4168213242693355, 834.4822226882110954, 5.000000000000000000 ) ) ;
#999 = PLANE ( 'NONE',  #297 ) ;
#1000 = ORIENTED_EDGE ( 'NONE', *, *, #317, .T. ) ;
ENDSEC;
END-ISO-10303-21;
